<?xml version="1.0" encoding="utf-8"?>
<!-- Generator: Adobe Illustrator 16.0.0, SVG Export Plug-In . SVG Version: 6.00 Build 0)  -->
<!DOCTYPE svg PUBLIC "-//W3C//DTD SVG 1.1//EN" "http://www.w3.org/Graphics/SVG/1.1/DTD/svg11.dtd">
<svg version="1.1" id="图层_1" xmlns="http://www.w3.org/2000/svg" xmlns:xlink="http://www.w3.org/1999/xlink" x="0px" y="0px"
	 width="184.8px" height="83.4px" viewBox="0 0 184.8 83.4" enable-background="new 0 0 184.8 83.4" xml:space="preserve">
<g id="svg轮廓">
	<g id="LWPOLYLINE_156_">
		
			<polyline fill="#FCFBE3" stroke="#000000" stroke-width="0.01" stroke-linecap="round" stroke-linejoin="round" stroke-miterlimit="10" points="
			0.006,13.736 0.006,83.305 0.087,83.385 178.516,83.385 178.598,83.305 178.598,78.387 184.806,78.387 184.806,18.654 
			178.582,18.654 178.598,13.736 178.516,13.655 19.813,13.655 19.813,0.385 0.981,0.385 0.981,13.089 1.07,13.17 1.708,13.17 
			1.708,13.655 0.087,13.655 0.006,13.736 		"/>
	</g>
</g>
<g id="svg商户">
	<g id="LWPOLYLINE_1_">
		
			<rect x="12.188" y="24.383" fill="#FFDEC7" stroke="#000000" stroke-width="0.01" stroke-linecap="round" stroke-linejoin="round" stroke-miterlimit="10" width="8.954" height="11.946"/>
	</g>
	<g id="LWPOLYLINE_2_">
		
			<rect x="13.184" y="39.515" fill="#FFDEC7" stroke="#000000" stroke-width="0.01" stroke-linecap="round" stroke-linejoin="round" stroke-miterlimit="10" width="7.958" height="6.923"/>
	</g>
	<g id="LWPOLYLINE_3_">
		
			<rect x="25.618" y="50.466" fill="#FFDEC7" stroke="#000000" stroke-width="0.01" stroke-linecap="round" stroke-linejoin="round" stroke-miterlimit="10" width="12.436" height="15.933"/>
	</g>
	<g id="LWPOLYLINE_4_">

			<rect x="13.184" y="51.461" fill="#FFDEC7" stroke="#000000" stroke-width="0.01" stroke-linecap="round" stroke-linejoin="round" stroke-miterlimit="10" width="7.958" height="7.965"/>
	</g>
	<g id="LWPOLYLINE_5_">

			<rect x="13.184" y="63.409" fill="#FFDEC7" stroke="#000000" stroke-width="0.01" stroke-linecap="round" stroke-linejoin="round" stroke-miterlimit="10" width="7.958" height="8.959"/>
	</g>
	<g id="LWPOLYLINE_6_">

			<rect x="25.618" y="69.381" fill="#FFDEC7" stroke="#000000" stroke-width="0.01" stroke-linecap="round" stroke-linejoin="round" stroke-miterlimit="10" width="6.964" height="5.978"/>
	</g>
	<g id="LWPOLYLINE_7_">

			<rect x="32.582" y="69.381" fill="#FFDEC7" stroke="#000000" stroke-width="0.01" stroke-linecap="round" stroke-linejoin="round" stroke-miterlimit="10" width="5.969" height="5.978"/>
	</g>
	<g id="LWPOLYLINE_8_">

			<rect x="41.536" y="69.381" fill="#FFDEC7" stroke="#000000" stroke-width="0.01" stroke-linecap="round" stroke-linejoin="round" stroke-miterlimit="10" width="5.97" height="5.978"/>
	</g>
	<g id="LWPOLYLINE_9_">

			<rect x="47.505" y="69.381" fill="#FFDEC7" stroke="#000000" stroke-width="0.01" stroke-linecap="round" stroke-linejoin="round" stroke-miterlimit="10" width="2.984" height="5.978"/>
	</g>
	<g id="LWPOLYLINE_10_">

			<rect x="50.489" y="69.381" fill="#FFDEC7" stroke="#000000" stroke-width="0.01" stroke-linecap="round" stroke-linejoin="round" stroke-miterlimit="10" width="5.969" height="5.978"/>
	</g>
	<g id="LWPOLYLINE_11_">

			<rect x="60.438" y="69.381" fill="#FFDEC7" stroke="#000000" stroke-width="0.01" stroke-linecap="round" stroke-linejoin="round" stroke-miterlimit="10" width="8.954" height="5.978"/>
	</g>
	<g id="LWPOLYLINE_12_">

			<rect x="69.392" y="69.381" fill="#FFDEC7" stroke="#000000" stroke-width="0.01" stroke-linecap="round" stroke-linejoin="round" stroke-miterlimit="10" width="5.969" height="5.978"/>
	</g>
	<g id="LWPOLYLINE_13_">

			<rect x="66.689" y="78.355" fill="#FFDEC7" stroke="#000000" stroke-width="0.01" stroke-linecap="round" stroke-linejoin="round" stroke-miterlimit="10" width="5.969" height="2.982"/>
	</g>
	<g id="LWPOLYLINE_14_">

			<rect x="72.659" y="78.355" fill="#FFDEC7" stroke="#000000" stroke-width="0.01" stroke-linecap="round" stroke-linejoin="round" stroke-miterlimit="10" width="5.969" height="2.982"/>
	</g>
	<g id="LWPOLYLINE_15_">

			<rect x="78.627" y="78.355" fill="#FFDEC7" stroke="#000000" stroke-width="0.01" stroke-linecap="round" stroke-linejoin="round" stroke-miterlimit="10" width="2.985" height="2.982"/>
	</g>
	<g id="LWPOLYLINE_16_">

			<rect x="81.612" y="78.355" fill="#FFDEC7" stroke="#000000" stroke-width="0.01" stroke-linecap="round" stroke-linejoin="round" stroke-miterlimit="10" width="5.969" height="2.982"/>
	</g>
	<g id="LWPOLYLINE_17_">

			<rect x="78.344" y="69.879" fill="#FFDEC7" stroke="#000000" stroke-width="0.01" stroke-linecap="round" stroke-linejoin="round" stroke-miterlimit="10" width="4.975" height="5.479"/>
	</g>
	<g id="LWPOLYLINE_18_">

			<rect x="83.319" y="69.879" fill="#FFDEC7" stroke="#000000" stroke-width="0.01" stroke-linecap="round" stroke-linejoin="round" stroke-miterlimit="10" width="9.949" height="5.479"/>
	</g>
	<g id="LWPOLYLINE_19_">

			<rect x="83.319" y="64.404" fill="#FFDEC7" stroke="#000000" stroke-width="0.01" stroke-linecap="round" stroke-linejoin="round" stroke-miterlimit="10" width="9.949" height="5.476"/>
	</g>
	<g id="LWPOLYLINE_20_">

			<rect x="78.344" y="64.404" fill="#FFDEC7" stroke="#000000" stroke-width="0.01" stroke-linecap="round" stroke-linejoin="round" stroke-miterlimit="10" width="4.975" height="5.476"/>
	</g>
	<g id="LWPOLYLINE_21_">

			<rect x="60.438" y="50.466" fill="#FFDEC7" stroke="#000000" stroke-width="0.01" stroke-linecap="round" stroke-linejoin="round" stroke-miterlimit="10" width="5.969" height="14.937"/>
	</g>
	<g id="LWPOLYLINE_22_">

			<rect x="41.536" y="50.466" fill="#FFDEC7" stroke="#000000" stroke-width="0.01" stroke-linecap="round" stroke-linejoin="round" stroke-miterlimit="10" width="5.97" height="5.977"/>
	</g>
	<g id="LWPOLYLINE_23_">

			<rect x="50.489" y="50.466" fill="#FFDEC7" stroke="#000000" stroke-width="0.01" stroke-linecap="round" stroke-linejoin="round" stroke-miterlimit="10" width="5.969" height="5.977"/>
	</g>
	<g id="LWPOLYLINE_24_">

			<rect x="47.505" y="50.466" fill="#FFDEC7" stroke="#000000" stroke-width="0.01" stroke-linecap="round" stroke-linejoin="round" stroke-miterlimit="10" width="2.984" height="5.977"/>
	</g>
	<g id="LWPOLYLINE_25_">

			<rect x="50.489" y="59.426" fill="#FFDEC7" stroke="#000000" stroke-width="0.01" stroke-linecap="round" stroke-linejoin="round" stroke-miterlimit="10" width="5.969" height="5.977"/>
	</g>
	<g id="LWPOLYLINE_26_">

			<rect x="41.536" y="59.426" fill="#FFDEC7" stroke="#000000" stroke-width="0.01" stroke-linecap="round" stroke-linejoin="round" stroke-miterlimit="10" width="5.97" height="2.986"/>
	</g>
	<g id="LWPOLYLINE_27_">

			<rect x="41.536" y="62.413" fill="#FFDEC7" stroke="#000000" stroke-width="0.01" stroke-linecap="round" stroke-linejoin="round" stroke-miterlimit="10" width="5.97" height="2.986"/>
	</g>
	<g id="LWPOLYLINE_28_">

			<rect x="47.505" y="59.426" fill="#FFDEC7" stroke="#000000" stroke-width="0.01" stroke-linecap="round" stroke-linejoin="round" stroke-miterlimit="10" width="2.984" height="2.986"/>
	</g>
	<g id="LWPOLYLINE_29_">

			<rect x="47.505" y="62.413" fill="#FFDEC7" stroke="#000000" stroke-width="0.01" stroke-linecap="round" stroke-linejoin="round" stroke-miterlimit="10" width="2.984" height="2.986"/>
	</g>
	<g id="LWPOLYLINE_30_">

			<rect x="69.392" y="50.466" fill="#FFDEC7" stroke="#000000" stroke-width="0.01" stroke-linecap="round" stroke-linejoin="round" stroke-miterlimit="10" width="5.969" height="9.955"/>
	</g>
	<g id="LWPOLYLINE_31_">

			<rect x="69.392" y="60.421" fill="#FFDEC7" stroke="#000000" stroke-width="0.01" stroke-linecap="round" stroke-linejoin="round" stroke-miterlimit="10" width="5.969" height="5.978"/>
	</g>
	<g id="LWPOLYLINE_32_">

			<rect x="78.344" y="50.466" fill="#FFDEC7" stroke="#000000" stroke-width="0.01" stroke-linecap="round" stroke-linejoin="round" stroke-miterlimit="10" width="14.923" height="9.955"/>
	</g>
	<g id="LWPOLYLINE_33_">

			<rect x="99.236" y="50.466" fill="#FFDEC7" stroke="#000000" stroke-width="0.01" stroke-linecap="round" stroke-linejoin="round" stroke-miterlimit="10" width="10.943" height="9.955"/>
	</g>
	<g id="LWPOLYLINE_34_">

			<rect x="110.18" y="50.466" fill="#FFDEC7" stroke="#000000" stroke-width="0.01" stroke-linecap="round" stroke-linejoin="round" stroke-miterlimit="10" width="3.979" height="9.955"/>
	</g>
	<g id="LWPOLYLINE_35_">

			<rect x="99.236" y="64.404" fill="#FFDEC7" stroke="#000000" stroke-width="0.01" stroke-linecap="round" stroke-linejoin="round" stroke-miterlimit="10" width="9.949" height="5.476"/>
	</g>
	<g id="LWPOLYLINE_36_">

			<rect x="109.186" y="64.404" fill="#FFDEC7" stroke="#000000" stroke-width="0.01" stroke-linecap="round" stroke-linejoin="round" stroke-miterlimit="10" width="4.974" height="5.476"/>
	</g>
	<g id="LWPOLYLINE_37_">

			<rect x="109.186" y="69.879" fill="#FFDEC7" stroke="#000000" stroke-width="0.01" stroke-linecap="round" stroke-linejoin="round" stroke-miterlimit="10" width="4.974" height="5.479"/>
	</g>
	<g id="LWPOLYLINE_38_">

			<rect x="99.236" y="69.879" fill="#FFDEC7" stroke="#000000" stroke-width="0.01" stroke-linecap="round" stroke-linejoin="round" stroke-miterlimit="10" width="9.949" height="5.479"/>
	</g>
	<g id="LWPOLYLINE_39_">

			<rect x="117.143" y="69.381" fill="#FFDEC7" stroke="#000000" stroke-width="0.01" stroke-linecap="round" stroke-linejoin="round" stroke-miterlimit="10" width="5.97" height="5.978"/>
	</g>
	<g id="LWPOLYLINE_40_">

			<rect x="123.112" y="69.381" fill="#FFDEC7" stroke="#000000" stroke-width="0.01" stroke-linecap="round" stroke-linejoin="round" stroke-miterlimit="10" width="5.968" height="5.978"/>
	</g>
	<g id="LWPOLYLINE_41_">

			<rect x="117.832" y="78.355" fill="#FFDEC7" stroke="#000000" stroke-width="0.01" stroke-linecap="round" stroke-linejoin="round" stroke-miterlimit="10" width="5.969" height="2.982"/>
	</g>
	<g id="LWPOLYLINE_42_">

			<rect x="114.846" y="78.355" fill="#FFDEC7" stroke="#000000" stroke-width="0.01" stroke-linecap="round" stroke-linejoin="round" stroke-miterlimit="10" width="2.985" height="2.982"/>
	</g>
	<g id="LWPOLYLINE_43_">

			<rect x="108.876" y="78.355" fill="#FFDEC7" stroke="#000000" stroke-width="0.01" stroke-linecap="round" stroke-linejoin="round" stroke-miterlimit="10" width="5.97" height="2.982"/>
	</g>
	<g id="LWPOLYLINE_44_">

			<rect x="102.908" y="78.355" fill="#FFDEC7" stroke="#000000" stroke-width="0.01" stroke-linecap="round" stroke-linejoin="round" stroke-miterlimit="10" width="5.969" height="2.982"/>
	</g>
	<g id="LWPOLYLINE_45_">

			<rect x="45.802" y="78.355" fill="#FFDEC7" stroke="#000000" stroke-width="0.01" stroke-linecap="round" stroke-linejoin="round" stroke-miterlimit="10" width="5.97" height="2.982"/>
	</g>
	<g id="LWPOLYLINE_46_">

			<rect x="39.833" y="78.355" fill="#FFDEC7" stroke="#000000" stroke-width="0.01" stroke-linecap="round" stroke-linejoin="round" stroke-miterlimit="10" width="5.969" height="2.982"/>
	</g>
	<g id="LWPOLYLINE_47_">

			<rect x="36.848" y="78.355" fill="#FFDEC7" stroke="#000000" stroke-width="0.01" stroke-linecap="round" stroke-linejoin="round" stroke-miterlimit="10" width="2.985" height="2.982"/>
	</g>
	<g id="LWPOLYLINE_48_">

			<rect x="30.879" y="78.355" fill="#FFDEC7" stroke="#000000" stroke-width="0.01" stroke-linecap="round" stroke-linejoin="round" stroke-miterlimit="10" width="5.969" height="2.982"/>
	</g>
	<g id="LWPOLYLINE_49_">

			<rect x="133.061" y="69.381" fill="#FFDEC7" stroke="#000000" stroke-width="0.01" stroke-linecap="round" stroke-linejoin="round" stroke-miterlimit="10" width="8.953" height="5.978"/>
	</g>
	<g id="LWPOLYLINE_50_">

			<rect x="142.014" y="69.381" fill="#FFDEC7" stroke="#000000" stroke-width="0.01" stroke-linecap="round" stroke-linejoin="round" stroke-miterlimit="10" width="5.97" height="5.978"/>
	</g>
	<g id="LWPOLYLINE_51_">

			<rect x="138.427" y="78.355" fill="#FFDEC7" stroke="#000000" stroke-width="0.01" stroke-linecap="round" stroke-linejoin="round" stroke-miterlimit="10" width="5.97" height="2.982"/>
	</g>
	<g id="LWPOLYLINE_52_">

			<rect x="144.396" y="78.355" fill="#FFDEC7" stroke="#000000" stroke-width="0.01" stroke-linecap="round" stroke-linejoin="round" stroke-miterlimit="10" width="5.968" height="2.982"/>
	</g>
	<g id="LWPOLYLINE_53_">

			<rect x="150.364" y="78.355" fill="#FFDEC7" stroke="#000000" stroke-width="0.01" stroke-linecap="round" stroke-linejoin="round" stroke-miterlimit="10" width="2.986" height="2.982"/>
	</g>
	<g id="LWPOLYLINE_54_">

			<rect x="153.351" y="78.355" fill="#FFDEC7" stroke="#000000" stroke-width="0.01" stroke-linecap="round" stroke-linejoin="round" stroke-miterlimit="10" width="5.968" height="2.982"/>
	</g>
	<g id="LWPOLYLINE_55_">

			<rect x="150.968" y="69.381" fill="#FFDEC7" stroke="#000000" stroke-width="0.01" stroke-linecap="round" stroke-linejoin="round" stroke-miterlimit="10" width="5.97" height="5.978"/>
	</g>
	<g id="LWPOLYLINE_56_">

			<rect x="156.938" y="69.381" fill="#FFDEC7" stroke="#000000" stroke-width="0.01" stroke-linecap="round" stroke-linejoin="round" stroke-miterlimit="10" width="2.983" height="5.978"/>
	</g>
	<g id="LWPOLYLINE_57_">

			<rect x="159.921" y="69.381" fill="#FFDEC7" stroke="#000000" stroke-width="0.01" stroke-linecap="round" stroke-linejoin="round" stroke-miterlimit="10" width="5.968" height="5.978"/>
	</g>
	<g id="LWPOLYLINE_58_">

			<rect x="44.52" y="21.594" fill="#FFDEC7" stroke="#000000" stroke-width="0.01" stroke-linecap="round" stroke-linejoin="round" stroke-miterlimit="10" width="11.938" height="5.978"/>
	</g>
	<g id="LWPOLYLINE_59_">

			<rect x="60.438" y="21.594" fill="#FFDEC7" stroke="#000000" stroke-width="0.01" stroke-linecap="round" stroke-linejoin="round" stroke-miterlimit="10" width="8.954" height="5.978"/>
	</g>
	<g id="LWPOLYLINE_60_">

			<rect x="69.392" y="21.594" fill="#FFDEC7" stroke="#000000" stroke-width="0.01" stroke-linecap="round" stroke-linejoin="round" stroke-miterlimit="10" width="5.969" height="5.978"/>
	</g>
	<g id="LWPOLYLINE_61_">

			<rect x="60.438" y="30.555" fill="#FFDEC7" stroke="#000000" stroke-width="0.01" stroke-linecap="round" stroke-linejoin="round" stroke-miterlimit="10" width="8.954" height="5.974"/>
	</g>
	<g id="LWPOLYLINE_62_">

			<rect x="69.392" y="30.555" fill="#FFDEC7" stroke="#000000" stroke-width="0.01" stroke-linecap="round" stroke-linejoin="round" stroke-miterlimit="10" width="5.969" height="5.974"/>
	</g>
	<g id="LWPOLYLINE_63_">

			<rect x="49.494" y="30.555" fill="#FFDEC7" stroke="#000000" stroke-width="0.01" stroke-linecap="round" stroke-linejoin="round" stroke-miterlimit="10" width="6.964" height="5.974"/>
	</g>
	<g id="LWPOLYLINE_64_">

			<rect x="43.525" y="30.555" fill="#FFDEC7" stroke="#000000" stroke-width="0.01" stroke-linecap="round" stroke-linejoin="round" stroke-miterlimit="10" width="5.969" height="2.983"/>
	</g>
	<g id="LWPOLYLINE_65_">

			<rect x="43.525" y="33.542" fill="#FFDEC7" stroke="#000000" stroke-width="0.01" stroke-linecap="round" stroke-linejoin="round" stroke-miterlimit="10" width="5.969" height="2.987"/>
	</g>
	<g id="LWPOLYLINE_66_">

			<rect x="60.438" y="39.515" fill="#FFDEC7" stroke="#000000" stroke-width="0.01" stroke-linecap="round" stroke-linejoin="round" stroke-miterlimit="10" width="11.938" height="5.974"/>
	</g>
	<g id="LWPOLYLINE_67_">

			<rect x="72.375" y="39.515" fill="#FFDEC7" stroke="#000000" stroke-width="0.01" stroke-linecap="round" stroke-linejoin="round" stroke-miterlimit="10" width="2.985" height="5.974"/>
	</g>
	<g id="LWPOLYLINE_68_">

			<rect x="79.837" y="30.555" fill="#FFDEC7" stroke="#000000" stroke-width="0.01" stroke-linecap="round" stroke-linejoin="round" stroke-miterlimit="10" width="13.431" height="14.934"/>
	</g>
	<g id="LWPOLYLINE_69_">

			<rect x="81.33" y="21.594" fill="#FFDEC7" stroke="#000000" stroke-width="0.01" stroke-linecap="round" stroke-linejoin="round" stroke-miterlimit="10" width="11.938" height="5.978"/>
	</g>
	<g id="LWPOLYLINE_70_">

			<rect x="78.344" y="21.594" fill="#FFDEC7" stroke="#000000" stroke-width="0.01" stroke-linecap="round" stroke-linejoin="round" stroke-miterlimit="10" width="2.985" height="5.978"/>
	</g>
	<g id="LWPOLYLINE_71_">

			<rect x="99.236" y="21.594" fill="#FFDEC7" stroke="#000000" stroke-width="0.01" stroke-linecap="round" stroke-linejoin="round" stroke-miterlimit="10" width="14.924" height="5.978"/>
	</g>
	<g id="LWPOLYLINE_72_">

			<rect x="117.143" y="21.594" fill="#FFDEC7" stroke="#000000" stroke-width="0.01" stroke-linecap="round" stroke-linejoin="round" stroke-miterlimit="10" width="11.938" height="5.978"/>
	</g>
	<g id="LWPOLYLINE_73_">

			<rect x="99.236" y="30.555" fill="#FFDEC7" stroke="#000000" stroke-width="0.01" stroke-linecap="round" stroke-linejoin="round" stroke-miterlimit="10" width="19.896" height="14.934"/>
	</g>
	<g id="LWPOLYLINE_74_">

			<rect x="123.112" y="30.555" fill="#FFDEC7" stroke="#000000" stroke-width="0.01" stroke-linecap="round" stroke-linejoin="round" stroke-miterlimit="10" width="5.968" height="5.974"/>
	</g>
	<g id="LWPOLYLINE_75_">

			<rect x="123.112" y="36.528" fill="#FFDEC7" stroke="#000000" stroke-width="0.01" stroke-linecap="round" stroke-linejoin="round" stroke-miterlimit="10" width="5.968" height="8.96"/>
	</g>
	<g id="LWPOLYLINE_76_">

			<rect x="133.061" y="39.515" fill="#FFDEC7" stroke="#000000" stroke-width="0.01" stroke-linecap="round" stroke-linejoin="round" stroke-miterlimit="10" width="14.923" height="5.974"/>
	</g>
	<g id="LWPOLYLINE_77_">

			<rect x="150.968" y="50.466" fill="#FFDEC7" stroke="#000000" stroke-width="0.01" stroke-linecap="round" stroke-linejoin="round" stroke-miterlimit="10" width="14.921" height="14.937"/>
	</g>
	<g id="LWPOLYLINE_78_">

			<rect x="150.968" y="39.515" fill="#FFDEC7" stroke="#000000" stroke-width="0.01" stroke-linecap="round" stroke-linejoin="round" stroke-miterlimit="10" width="5.97" height="5.974"/>
	</g>
	<g id="LWPOLYLINE_79_">

			<rect x="156.938" y="39.515" fill="#FFDEC7" stroke="#000000" stroke-width="0.01" stroke-linecap="round" stroke-linejoin="round" stroke-miterlimit="10" width="8.951" height="5.974"/>
	</g>
	<g id="LWPOLYLINE_80_">

			<rect x="144.998" y="50.466" fill="#FFDEC7" stroke="#000000" stroke-width="0.01" stroke-linecap="round" stroke-linejoin="round" stroke-miterlimit="10" width="2.985" height="5.977"/>
	</g>
	<g id="LWPOLYLINE_81_">

			<rect x="133.061" y="50.466" fill="#FFDEC7" stroke="#000000" stroke-width="0.01" stroke-linecap="round" stroke-linejoin="round" stroke-miterlimit="10" width="11.938" height="5.977"/>
	</g>
	<g id="LWPOLYLINE_82_">

			<rect x="123.112" y="50.466" fill="#FFDEC7" stroke="#000000" stroke-width="0.01" stroke-linecap="round" stroke-linejoin="round" stroke-miterlimit="10" width="5.968" height="5.977"/>
	</g>
	<g id="LWPOLYLINE_83_">

			<rect x="117.143" y="50.466" fill="#FFDEC7" stroke="#000000" stroke-width="0.01" stroke-linecap="round" stroke-linejoin="round" stroke-miterlimit="10" width="5.97" height="5.977"/>
	</g>
	<g id="LWPOLYLINE_84_">

			<rect x="123.112" y="60.421" fill="#FFDEC7" stroke="#000000" stroke-width="0.01" stroke-linecap="round" stroke-linejoin="round" stroke-miterlimit="10" width="5.968" height="5.978"/>
	</g>
	<g id="LWPOLYLINE_85_">

			<rect x="117.143" y="60.421" fill="#FFDEC7" stroke="#000000" stroke-width="0.01" stroke-linecap="round" stroke-linejoin="round" stroke-miterlimit="10" width="5.97" height="2.987"/>
	</g>
	<g id="LWPOLYLINE_86_">

			<rect x="117.143" y="63.409" fill="#FFDEC7" stroke="#000000" stroke-width="0.01" stroke-linecap="round" stroke-linejoin="round" stroke-miterlimit="10" width="5.97" height="2.986"/>
	</g>
	<g id="LWPOLYLINE_87_">

			<rect x="133.061" y="60.421" fill="#FFDEC7" stroke="#000000" stroke-width="0.01" stroke-linecap="round" stroke-linejoin="round" stroke-miterlimit="10" width="8.953" height="5.978"/>
	</g>
	<g id="LWPOLYLINE_88_">

			<rect x="142.014" y="60.421" fill="#FFDEC7" stroke="#000000" stroke-width="0.01" stroke-linecap="round" stroke-linejoin="round" stroke-miterlimit="10" width="5.97" height="5.978"/>
	</g>
	<g id="LWPOLYLINE_89_">

			<rect x="169.869" y="66.395" fill="#FFDEC7" stroke="#000000" stroke-width="0.01" stroke-linecap="round" stroke-linejoin="round" stroke-miterlimit="10" width="2.985" height="8.96"/>
	</g>
	<g id="LWPOLYLINE_90_">

			<rect x="169.89" y="63.397" fill="#FFDEC7" stroke="#000000" stroke-width="0.01" stroke-linecap="round" stroke-linejoin="round" stroke-miterlimit="10" width="2.965" height="2.998"/>
	</g>
	<g id="LWPOLYLINE_91_">

			<rect x="169.876" y="60.427" fill="#FFDEC7" stroke="#000000" stroke-width="0.01" stroke-linecap="round" stroke-linejoin="round" stroke-miterlimit="10" width="2.979" height="2.98"/>
	</g>
	<g id="LWPOLYLINE_92_">

			<rect x="169.882" y="56.426" fill="#FFDEC7" stroke="#000000" stroke-width="0.01" stroke-linecap="round" stroke-linejoin="round" stroke-miterlimit="10" width="2.973" height="4.005"/>
	</g>
	<g id="LWPOLYLINE_93_">

			<rect x="169.878" y="50.476" fill="#FFDEC7" stroke="#000000" stroke-width="0.01" stroke-linecap="round" stroke-linejoin="round" stroke-miterlimit="10" width="2.977" height="5.946"/>
	</g>
	<g id="LWPOLYLINE_94_">

			<rect x="133.061" y="30.555" fill="#FFDEC7" stroke="#000000" stroke-width="0.01" stroke-linecap="round" stroke-linejoin="round" stroke-miterlimit="10" width="5.969" height="5.974"/>
	</g>
	<g id="LWPOLYLINE_95_">

			<rect x="139.029" y="30.555" fill="#FFDEC7" stroke="#000000" stroke-width="0.01" stroke-linecap="round" stroke-linejoin="round" stroke-miterlimit="10" width="8.954" height="5.974"/>
	</g>
	<g id="LWPOLYLINE_96_">

			<rect x="133.061" y="21.594" fill="#FFDEC7" stroke="#000000" stroke-width="0.01" stroke-linecap="round" stroke-linejoin="round" stroke-miterlimit="10" width="5.969" height="5.978"/>
	</g>
	<g id="LWPOLYLINE_97_">

			<rect x="139.029" y="21.594" fill="#FFDEC7" stroke="#000000" stroke-width="0.01" stroke-linecap="round" stroke-linejoin="round" stroke-miterlimit="10" width="2.984" height="2.987"/>
	</g>
	<g id="LWPOLYLINE_98_">

			<rect x="142.014" y="21.594" fill="#FFDEC7" stroke="#000000" stroke-width="0.01" stroke-linecap="round" stroke-linejoin="round" stroke-miterlimit="10" width="5.97" height="2.987"/>
	</g>
	<g id="LWPOLYLINE_99_">

			<rect x="142.014" y="24.582" fill="#FFDEC7" stroke="#000000" stroke-width="0.01" stroke-linecap="round" stroke-linejoin="round" stroke-miterlimit="10" width="5.97" height="2.987"/>
	</g>
	<g id="LWPOLYLINE_100_">

			<rect x="139.029" y="24.582" fill="#FFDEC7" stroke="#000000" stroke-width="0.01" stroke-linecap="round" stroke-linejoin="round" stroke-miterlimit="10" width="2.984" height="2.987"/>
	</g>
	<g id="LWPOLYLINE_101_">

			<rect x="150.968" y="21.594" fill="#FFDEC7" stroke="#000000" stroke-width="0.01" stroke-linecap="round" stroke-linejoin="round" stroke-miterlimit="10" width="5.97" height="5.978"/>
	</g>
	<g id="LWPOLYLINE_102_">

			<rect x="156.938" y="21.594" fill="#FFDEC7" stroke="#000000" stroke-width="0.01" stroke-linecap="round" stroke-linejoin="round" stroke-miterlimit="10" width="2.983" height="2.987"/>
	</g>
	<g id="LWPOLYLINE_103_">

			<rect x="159.921" y="21.594" fill="#FFDEC7" stroke="#000000" stroke-width="0.01" stroke-linecap="round" stroke-linejoin="round" stroke-miterlimit="10" width="5.968" height="2.987"/>
	</g>
	<g id="LWPOLYLINE_104_">

			<rect x="156.938" y="24.582" fill="#FFDEC7" stroke="#000000" stroke-width="0.01" stroke-linecap="round" stroke-linejoin="round" stroke-miterlimit="10" width="2.983" height="2.987"/>
	</g>
	<g id="LWPOLYLINE_105_">

			<rect x="159.921" y="24.582" fill="#FFDEC7" stroke="#000000" stroke-width="0.01" stroke-linecap="round" stroke-linejoin="round" stroke-miterlimit="10" width="5.968" height="2.987"/>
	</g>
	<g id="LWPOLYLINE_106_">

			<rect x="150.968" y="30.555" fill="#FFDEC7" stroke="#000000" stroke-width="0.01" stroke-linecap="round" stroke-linejoin="round" stroke-miterlimit="10" width="5.97" height="2.983"/>
	</g>
	<g id="LWPOLYLINE_107_">

			<rect x="150.968" y="33.542" fill="#FFDEC7" stroke="#000000" stroke-width="0.01" stroke-linecap="round" stroke-linejoin="round" stroke-miterlimit="10" width="2.982" height="2.987"/>
	</g>
	<g id="LWPOLYLINE_108_">

			<rect x="153.951" y="33.542" fill="#FFDEC7" stroke="#000000" stroke-width="0.01" stroke-linecap="round" stroke-linejoin="round" stroke-miterlimit="10" width="2.986" height="2.987"/>
	</g>
	<g id="LWPOLYLINE_109_">

			<rect x="156.938" y="33.542" fill="#FFDEC7" stroke="#000000" stroke-width="0.01" stroke-linecap="round" stroke-linejoin="round" stroke-miterlimit="10" width="2.983" height="2.987"/>
	</g>
	<g id="LWPOLYLINE_110_">

			<rect x="159.921" y="30.555" fill="#FFDEC7" stroke="#000000" stroke-width="0.01" stroke-linecap="round" stroke-linejoin="round" stroke-miterlimit="10" width="5.968" height="5.974"/>
	</g>
	<g id="LWPOLYLINE_111_">

			<rect x="156.938" y="30.555" fill="#FFDEC7" stroke="#000000" stroke-width="0.01" stroke-linecap="round" stroke-linejoin="round" stroke-miterlimit="10" width="2.983" height="2.983"/>
	</g>
	<g id="LWPOLYLINE_112_">

			<rect x="169.869" y="39.515" fill="#FFDEC7" stroke="#000000" stroke-width="0.01" stroke-linecap="round" stroke-linejoin="round" stroke-miterlimit="10" width="2.985" height="5.974"/>
	</g>
	<g id="LWPOLYLINE_113_">

			<rect x="169.869" y="36.528" fill="#FFDEC7" stroke="#000000" stroke-width="0.01" stroke-linecap="round" stroke-linejoin="round" stroke-miterlimit="10" width="2.985" height="2.987"/>
	</g>
	<g id="LWPOLYLINE_114_">

			<rect x="169.869" y="30.555" fill="#FFDEC7" stroke="#000000" stroke-width="0.01" stroke-linecap="round" stroke-linejoin="round" stroke-miterlimit="10" width="2.985" height="5.974"/>
	</g>
	<g id="LWPOLYLINE_115_">

			<rect x="169.869" y="21.594" fill="#FFDEC7" stroke="#000000" stroke-width="0.01" stroke-linecap="round" stroke-linejoin="round" stroke-miterlimit="10" width="2.985" height="8.964"/>
	</g>
	<g id="LWPOLYLINE_116_">

			<rect x="30.922" y="15.627" fill="#FFDEC7" stroke="#000000" stroke-width="0.01" stroke-linecap="round" stroke-linejoin="round" stroke-miterlimit="10" width="5.969" height="2.986"/>
	</g>
	<g id="LWPOLYLINE_117_">

			<rect x="36.891" y="15.627" fill="#FFDEC7" stroke="#000000" stroke-width="0.01" stroke-linecap="round" stroke-linejoin="round" stroke-miterlimit="10" width="2.984" height="2.986"/>
	</g>
	<g id="LWPOLYLINE_118_">

			<rect x="39.875" y="15.627" fill="#FFDEC7" stroke="#000000" stroke-width="0.01" stroke-linecap="round" stroke-linejoin="round" stroke-miterlimit="10" width="5.969" height="2.986"/>
	</g>
	<g id="LWPOLYLINE_119_">

			<rect x="45.844" y="15.627" fill="#FFDEC7" stroke="#000000" stroke-width="0.01" stroke-linecap="round" stroke-linejoin="round" stroke-miterlimit="10" width="5.969" height="2.986"/>
	</g>
	<g id="LWPOLYLINE_120_">

			<rect x="67.159" y="15.627" fill="#FFDEC7" stroke="#000000" stroke-width="0.01" stroke-linecap="round" stroke-linejoin="round" stroke-miterlimit="10" width="5.969" height="2.986"/>
	</g>
	<g id="LWPOLYLINE_121_">

			<rect x="73.128" y="15.627" fill="#FFDEC7" stroke="#000000" stroke-width="0.01" stroke-linecap="round" stroke-linejoin="round" stroke-miterlimit="10" width="5.969" height="2.986"/>
	</g>
	<g id="LWPOLYLINE_122_">

			<rect x="79.097" y="15.627" fill="#FFDEC7" stroke="#000000" stroke-width="0.01" stroke-linecap="round" stroke-linejoin="round" stroke-miterlimit="10" width="2.984" height="2.986"/>
	</g>
	<g id="LWPOLYLINE_123_">

			<rect x="82.082" y="15.627" fill="#FFDEC7" stroke="#000000" stroke-width="0.01" stroke-linecap="round" stroke-linejoin="round" stroke-miterlimit="10" width="5.969" height="2.986"/>
	</g>
	<g id="LWPOLYLINE_124_">

			<rect x="102.796" y="15.627" fill="#FFDEC7" stroke="#000000" stroke-width="0.01" stroke-linecap="round" stroke-linejoin="round" stroke-miterlimit="10" width="5.968" height="2.986"/>
	</g>
	<g id="LWPOLYLINE_125_">

			<rect x="108.764" y="15.627" fill="#FFDEC7" stroke="#000000" stroke-width="0.01" stroke-linecap="round" stroke-linejoin="round" stroke-miterlimit="10" width="2.985" height="2.986"/>
	</g>
	<g id="LWPOLYLINE_126_">

			<rect x="111.75" y="15.627" fill="#FFDEC7" stroke="#000000" stroke-width="0.01" stroke-linecap="round" stroke-linejoin="round" stroke-miterlimit="10" width="5.972" height="2.986"/>
	</g>
	<g id="LWPOLYLINE_127_">

			<rect x="117.718" y="15.627" fill="#FFDEC7" stroke="#000000" stroke-width="0.01" stroke-linecap="round" stroke-linejoin="round" stroke-miterlimit="10" width="5.97" height="2.986"/>
	</g>
	<g id="LWPOLYLINE_128_">

			<rect x="138.367" y="15.584" fill="#FFDEC7" stroke="#000000" stroke-width="0.01" stroke-linecap="round" stroke-linejoin="round" stroke-miterlimit="10" width="5.969" height="2.987"/>
	</g>
	<g id="LWPOLYLINE_129_">

			<rect x="144.335" y="15.584" fill="#FFDEC7" stroke="#000000" stroke-width="0.01" stroke-linecap="round" stroke-linejoin="round" stroke-miterlimit="10" width="5.97" height="2.987"/>
	</g>
	<g id="LWPOLYLINE_130_">

			<rect x="150.305" y="15.584" fill="#FFDEC7" stroke="#000000" stroke-width="0.01" stroke-linecap="round" stroke-linejoin="round" stroke-miterlimit="10" width="2.985" height="2.987"/>
	</g>
	<g id="LWPOLYLINE_131_">

			<rect x="153.291" y="15.584" fill="#FFDEC7" stroke="#000000" stroke-width="0.01" stroke-linecap="round" stroke-linejoin="round" stroke-miterlimit="10" width="5.967" height="2.987"/>
	</g>
	<g id="LWPOLYLINE_140_">

			<rect x="25.618" y="21.594" fill="#FFDEC7" stroke="#000000" stroke-width="0.01" stroke-linecap="round" stroke-linejoin="round" stroke-miterlimit="10" width="4.975" height="5.978"/>
	</g>
	<g id="LWPOLYLINE_141_">

			<rect x="34.572" y="21.594" fill="#FFDEC7" stroke="#000000" stroke-width="0.01" stroke-linecap="round" stroke-linejoin="round" stroke-miterlimit="10" width="5.969" height="5.978"/>
	</g>
	<g id="LWPOLYLINE_142_">

			<rect x="30.593" y="21.594" fill="#FFDEC7" stroke="#000000" stroke-width="0.01" stroke-linecap="round" stroke-linejoin="round" stroke-miterlimit="10" width="3.979" height="2.987"/>
	</g>
	<g id="LWPOLYLINE_143_">

			<rect x="30.593" y="24.582" fill="#FFDEC7" stroke="#000000" stroke-width="0.01" stroke-linecap="round" stroke-linejoin="round" stroke-miterlimit="10" width="3.979" height="2.987"/>
	</g>
	<g id="LWPOLYLINE_144_">

			<rect x="25.618" y="30.555" fill="#FFDEC7" stroke="#000000" stroke-width="0.01" stroke-linecap="round" stroke-linejoin="round" stroke-miterlimit="10" width="4.975" height="5.974"/>
	</g>
	<g id="LWPOLYLINE_145_">

			<rect x="30.593" y="30.555" fill="#FFDEC7" stroke="#000000" stroke-width="0.01" stroke-linecap="round" stroke-linejoin="round" stroke-miterlimit="10" width="3.979" height="2.983"/>
	</g>
	<g id="LWPOLYLINE_146_">

			<rect x="34.572" y="30.555" fill="#FFDEC7" stroke="#000000" stroke-width="0.01" stroke-linecap="round" stroke-linejoin="round" stroke-miterlimit="10" width="5.969" height="2.983"/>
	</g>
	<g id="LWPOLYLINE_147_">

			<rect x="34.572" y="33.542" fill="#FFDEC7" stroke="#000000" stroke-width="0.01" stroke-linecap="round" stroke-linejoin="round" stroke-miterlimit="10" width="5.969" height="2.987"/>
	</g>
	<g id="LWPOLYLINE_148_">

			<rect x="30.593" y="33.542" fill="#FFDEC7" stroke="#000000" stroke-width="0.01" stroke-linecap="round" stroke-linejoin="round" stroke-miterlimit="10" width="3.979" height="2.987"/>
	</g>
	<g id="LWPOLYLINE_149_">

			<polyline fill="#FFDEC7" stroke="#000000" stroke-width="0.01" stroke-linecap="round" stroke-linejoin="round" stroke-miterlimit="10" points="
			25.618,39.515 25.618,45.489 34.572,45.489 34.572,42.501 35.567,42.501 35.567,39.515 25.618,39.515 		"/>
	</g>
	<g id="LWPOLYLINE_150_">

			<rect x="35.567" y="39.515" fill="#FFDEC7" stroke="#000000" stroke-width="0.01" stroke-linecap="round" stroke-linejoin="round" stroke-miterlimit="10" width="3.98" height="2.982"/>
	</g>
	<g id="LWPOLYLINE_151_">

			<rect x="34.572" y="42.501" fill="#FFDEC7" stroke="#000000" stroke-width="0.01" stroke-linecap="round" stroke-linejoin="round" stroke-miterlimit="10" width="4.975" height="2.987"/>
	</g>
	<g id="LWPOLYLINE_152_">

			<rect x="48.5" y="42.501" fill="#FFDEC7" stroke="#000000" stroke-width="0.01" stroke-linecap="round" stroke-linejoin="round" stroke-miterlimit="10" width="7.958" height="2.987"/>
	</g>
	<g id="LWPOLYLINE_153_">

			<rect x="50.489" y="39.515" fill="#FFDEC7" stroke="#000000" stroke-width="0.01" stroke-linecap="round" stroke-linejoin="round" stroke-miterlimit="10" width="5.969" height="2.982"/>
	</g>
	<g id="LWPOLYLINE_154_">

			<rect x="46.51" y="39.515" fill="#FFDEC7" stroke="#000000" stroke-width="0.01" stroke-linecap="round" stroke-linejoin="round" stroke-miterlimit="10" width="3.979" height="2.982"/>
	</g>
	<g id="LWPOLYLINE_155_">

			<polyline fill="#FFDEC7" stroke="#000000" stroke-width="0.01" stroke-linecap="round" stroke-linejoin="round" stroke-miterlimit="10" points="
			46.51,39.515 43.525,39.515 43.525,45.489 48.5,45.489 48.5,42.501 46.51,42.501 46.51,39.515 		"/>
	</g>
</g>
<g id="svg楼梯">
	<g id="LWPOLYLINE_132_">

			<rect x="171.648" y="14.975" fill="#F6F9A7" stroke="#000000" stroke-width="0.01" stroke-linecap="round" stroke-linejoin="round" stroke-miterlimit="10" width="6.167" height="3.037"/>
	</g>
	<g id="LWPOLYLINE_133_">

			<rect x="0.76" y="14.975" fill="#F6F9A7" stroke="#000000" stroke-width="0.01" stroke-linecap="round" stroke-linejoin="round" stroke-miterlimit="10" width="6.168" height="3.037"/>
	</g>
	<g id="LWPOLYLINE_134_">

			<rect x="0.76" y="78.939" fill="#F6F9A7" stroke="#000000" stroke-width="0.01" stroke-linecap="round" stroke-linejoin="round" stroke-miterlimit="10" width="6.168" height="3.036"/>
	</g>
	<g id="LWPOLYLINE_135_">

			<rect x="171.648" y="78.939" fill="#F6F9A7" stroke="#000000" stroke-width="0.01" stroke-linecap="round" stroke-linejoin="round" stroke-miterlimit="10" width="6.167" height="3.036"/>
	</g>
</g>
<g id="svg厕所">
	<g id="LWPOLYLINE_136_">

			<rect x="174.408" y="20.583" fill="#BEBBFB" stroke="#000000" stroke-width="0.01" stroke-linecap="round" stroke-linejoin="round" stroke-miterlimit="10" width="10.393" height="5.532"/>
	</g>
</g>
<g id="svg障碍物">
	<g id="LWPOLYLINE_137_">

			<rect y="25.976" fill="#DDDDDD" stroke="#000000" stroke-width="0.01" stroke-linecap="round" stroke-linejoin="round" stroke-miterlimit="10" width="10.306" height="45.021"/>
	</g>
	<g id="LWPOLYLINE_138_">

			<rect x="174.218" y="26.115" fill="#DDDDDD" stroke="#000000" stroke-width="0.01" stroke-linecap="round" stroke-linejoin="round" stroke-miterlimit="10" width="10.582" height="50.271"/>
	</g>
	<g id="LWPOLYLINE_139_">

			<polyline fill="#DDDDDD" stroke="#000000" stroke-width="0.01" stroke-linecap="round" stroke-linejoin="round" stroke-miterlimit="10" points="
			0.975,0.399 19.807,0.399 19.807,13.669 1.702,13.669 1.702,13.184 1.064,13.184 0.975,13.103 0.975,0.399 		"/>
	</g>
</g>
<g id="轮廓2">
	<g id="LWPOLYLINE">
		<polyline fill="none" points="0,13.75 0,83.319 0.081,83.4 178.509,83.4 178.591,83.319 178.591,78.401 184.8,78.401
			184.8,18.668 178.576,18.668 178.591,13.75 178.509,13.669 19.807,13.669 19.807,0.399 0.975,0.399 0.975,13.103 1.064,13.184
			1.702,13.184 1.702,13.669 0.081,13.669 0,13.75 		"/>
	</g>
</g>
<g id="device">
	<circle id="E4:95:6E:4C:09:D9" fill="#F90606" cx="17.163" cy="43.003" r="0.5"/>
	<circle id="E4:95:6E:4C:0A:7C" fill="#F90606" cx="35.567" cy="72.368" r="0.5"/>
	<circle id="E4:95:6E:4C:09:E4" fill="#F90606" cx="37.557" cy="41.008" r="0.5"/>
	<circle id="E4:95:6E:4C:0A:4A" fill="#F90606" cx="72.375" cy="63.409" r="0.5"/>
	<circle id="E4:95:6E:4C:0A:E5" fill="#F90606" cx="72.659" cy="33.542" r="0.5"/>
	<circle id="E4:95:6E:4C:55:D8" fill="#F90606" cx="111.673" cy="67.141" r="0.5"/>
	<circle id="E4:95:6E:4C:09:C1" fill="#F90606" cx="104.21" cy="54.943" r="0.5"/>
	<circle id="E4:95:6E:4C:0B:0A" fill="#F90606" cx="144.335" cy="33.542" r="0.5"/>
	<circle id="E4:95:6E:4C:0A:4C" fill="#F90606" cx="153.951" cy="72.368" r="0.5"/>
	<circle id="E4:95:6E:4C:09:B1" fill="#F90606" cx="171.361" cy="53.451" r="0.5"/>
</g>
<g id="展会大门">
	<g>
		<g>
			<text transform="matrix(1.0002 0 0 1 21.3428 17.3088)" fill="#020002" font-family="'Arial-BoldMT'" font-size="1.1921">6</text>
			<text transform="matrix(1.0002 0 0 1 22.0132 17.3054)" fill="#020002" font-family="'SimSun'" font-size="1.2146">号门</text>
		</g>
		<g>

				<line fill="none" stroke="#020002" stroke-width="0.01" stroke-linecap="square" stroke-miterlimit="10" x1="25.282" y1="15.842" x2="25.282" y2="13.566"/>

				<line fill="none" stroke="#020002" stroke-width="0.01" stroke-linecap="square" stroke-miterlimit="10" x1="25.214" y1="13.566" x2="25.214" y2="15.842"/>
			<polyline fill="none" stroke="#020002" stroke-width="0.01" stroke-linecap="square" stroke-miterlimit="10" points="
				23.006,13.566 23.095,14.265 23.434,14.918 23.929,15.414 24.583,15.73 25.282,15.842 			"/>

				<line fill="none" stroke="#020002" stroke-width="0.01" stroke-linecap="square" stroke-miterlimit="10" x1="20.707" y1="15.842" x2="20.707" y2="13.566"/>

				<line fill="none" stroke="#020002" stroke-width="0.01" stroke-linecap="square" stroke-miterlimit="10" x1="20.775" y1="13.566" x2="20.775" y2="15.842"/>
			<polyline fill="none" stroke="#020002" stroke-width="0.01" stroke-linecap="square" stroke-miterlimit="10" points="
				20.707,15.842 21.406,15.73 22.06,15.414 22.555,14.918 22.893,14.265 23.006,13.566 			"/>
		</g>
	</g>
	<g>
		<g>
			<text transform="matrix(1.0002 0 0 1 56.5483 17.3923)" fill="#050005" font-family="'Arial-BoldMT'" font-size="1.1921">7</text>
			<text transform="matrix(1.0002 0 0 1 57.2227 17.3884)" fill="#050005" font-family="'SimSun'" font-size="1.2146">号门</text>
		</g>
		<g>

				<line fill="none" stroke="#020002" stroke-width="0.01" stroke-linecap="square" stroke-miterlimit="10" x1="60.247" y1="15.924" x2="60.247" y2="13.648"/>

				<line fill="none" stroke="#020002" stroke-width="0.01" stroke-linecap="square" stroke-miterlimit="10" x1="60.179" y1="13.648" x2="60.179" y2="15.924"/>
			<polyline fill="none" stroke="#020002" stroke-width="0.01" stroke-linecap="square" stroke-miterlimit="10" points="
				57.947,13.648 58.061,14.346 58.375,15 58.895,15.495 59.525,15.811 60.247,15.924 			"/>

				<line fill="none" stroke="#020002" stroke-width="0.01" stroke-linecap="square" stroke-miterlimit="10" x1="55.649" y1="15.924" x2="55.649" y2="13.648"/>

				<line fill="none" stroke="#020002" stroke-width="0.01" stroke-linecap="square" stroke-miterlimit="10" x1="55.716" y1="13.648" x2="55.716" y2="15.924"/>
			<polyline fill="none" stroke="#020002" stroke-width="0.01" stroke-linecap="square" stroke-miterlimit="10" points="
				55.649,15.924 56.37,15.811 57,15.495 57.521,15 57.835,14.346 57.947,13.648 			"/>
		</g>
	</g>
	<g>
		<g>
			<text transform="matrix(1.0002 0 0 1 93.5874 17.3464)" fill="#020002" font-family="'Arial-BoldMT'" font-size="1.1921">8</text>
			<text transform="matrix(1.0002 0 0 1 94.2612 17.3508)" fill="#020002" font-family="'SimSun'" font-size="1.2146">号门</text>
		</g>
		<g>

				<line fill="none" stroke="#050005" stroke-width="0.01" stroke-linecap="square" stroke-miterlimit="10" x1="97.363" y1="15.881" x2="97.363" y2="13.605"/>

				<line fill="none" stroke="#050005" stroke-width="0.01" stroke-linecap="square" stroke-miterlimit="10" x1="97.292" y1="13.605" x2="97.292" y2="15.881"/>
			<polyline fill="none" stroke="#050005" stroke-width="0.01" stroke-linecap="square" stroke-miterlimit="10" points="
				95.06,13.605 95.175,14.303 95.511,14.957 96.007,15.452 96.662,15.768 97.363,15.881 			"/>

				<line fill="none" stroke="#050005" stroke-width="0.01" stroke-linecap="square" stroke-miterlimit="10" x1="92.785" y1="15.881" x2="92.785" y2="13.605"/>

				<line fill="none" stroke="#050005" stroke-width="0.01" stroke-linecap="square" stroke-miterlimit="10" x1="92.853" y1="13.605" x2="92.853" y2="15.881"/>
			<polyline fill="none" stroke="#050005" stroke-width="0.01" stroke-linecap="square" stroke-miterlimit="10" points="
				92.785,15.881 93.484,15.768 94.117,15.452 94.632,14.957 94.949,14.303 95.06,13.605 			"/>
		</g>
	</g>
	<g>
		<g>
			<text transform="matrix(1.0002 0 0 1 129.0425 17.3416)" fill="#020002" font-family="'Arial-BoldMT'" font-size="1.1921">9</text>
			<text transform="matrix(1.0002 0 0 1 129.7183 17.3455)" fill="#020002" font-family="'SimSun'" font-size="1.2146">号门</text>
		</g>
		<g>

				<line fill="none" stroke="#050005" stroke-width="0.01" stroke-linecap="square" stroke-miterlimit="10" x1="132.691" y1="15.881" x2="132.691" y2="13.605"/>

				<line fill="none" stroke="#050005" stroke-width="0.01" stroke-linecap="square" stroke-miterlimit="10" x1="132.626" y1="13.605" x2="132.626" y2="15.881"/>
			<polyline fill="none" stroke="#050005" stroke-width="0.01" stroke-linecap="square" stroke-miterlimit="10" points="
				130.417,13.605 130.531,14.303 130.845,14.935 131.339,15.452 131.994,15.768 132.691,15.881 			"/>

				<line fill="none" stroke="#050005" stroke-width="0.01" stroke-linecap="square" stroke-miterlimit="10" x1="128.119" y1="15.881" x2="128.119" y2="13.605"/>

				<line fill="none" stroke="#050005" stroke-width="0.01" stroke-linecap="square" stroke-miterlimit="10" x1="128.185" y1="13.605" x2="128.185" y2="15.881"/>
			<polyline fill="none" stroke="#050005" stroke-width="0.01" stroke-linecap="square" stroke-miterlimit="10" points="
				128.119,15.881 128.818,15.768 129.472,15.452 129.964,14.935 130.302,14.303 130.417,13.605 			"/>
		</g>
	</g>
	<g>
		<g>
			<text transform="matrix(1.0002 0 0 1 165.5522 17.3508)" fill="#020002" font-family="'Arial-BoldMT'" font-size="1.1921">10</text>
			<text transform="matrix(1.0002 0 0 1 166.7554 17.3171)" fill="#020002" font-family="'SimSun'" font-size="1.2146">号门</text>
		</g>
		<g>

				<line fill="none" stroke="#020002" stroke-width="0.01" stroke-linecap="square" stroke-miterlimit="10" x1="169.732" y1="15.903" x2="169.732" y2="13.605"/>

				<line fill="none" stroke="#020002" stroke-width="0.01" stroke-linecap="square" stroke-miterlimit="10" x1="169.664" y1="13.605" x2="169.664" y2="15.903"/>
			<polyline fill="none" stroke="#020002" stroke-width="0.01" stroke-linecap="square" stroke-miterlimit="10" points="
				167.431,13.605 167.546,14.302 167.859,14.957 168.38,15.452 169.009,15.79 169.732,15.903 			"/>

				<line fill="none" stroke="#020002" stroke-width="0.01" stroke-linecap="square" stroke-miterlimit="10" x1="165.134" y1="15.903" x2="165.134" y2="13.605"/>

				<line fill="none" stroke="#020002" stroke-width="0.01" stroke-linecap="square" stroke-miterlimit="10" x1="165.205" y1="13.605" x2="165.205" y2="15.903"/>
			<polyline fill="none" stroke="#020002" stroke-width="0.01" stroke-linecap="square" stroke-miterlimit="10" points="
				165.134,15.903 165.855,15.79 166.486,15.452 167.005,14.957 167.32,14.302 167.431,13.605 			"/>
		</g>
	</g>
	<g>
		<g>
			<text transform="matrix(1.0002 0 0 1 21.1563 80.1238)" fill="#020002" font-family="'Arial-BoldMT'" font-size="1.1921">1</text>
			<text transform="matrix(1.0002 0 0 1 21.811 80.1218)" fill="#020002" font-family="'SimSun'" font-size="1.2146">号门</text>
		</g>
		<g>

				<line fill="none" stroke="#000000" stroke-width="0.01" stroke-linecap="square" stroke-miterlimit="10" x1="24.909" y1="80.802" x2="24.909" y2="83.097"/>

				<line fill="none" stroke="#000000" stroke-width="0.01" stroke-linecap="square" stroke-miterlimit="10" x1="24.841" y1="83.097" x2="24.841" y2="80.802"/>
			<polyline fill="none" stroke="#000000" stroke-width="0.01" stroke-linecap="square" stroke-miterlimit="10" points="
				22.633,83.097 22.722,82.4 23.061,81.75 23.556,81.252 24.21,80.916 24.909,80.802 			"/>

				<line fill="none" stroke="#000000" stroke-width="0.01" stroke-linecap="square" stroke-miterlimit="10" x1="20.334" y1="80.802" x2="20.334" y2="83.097"/>

				<line fill="none" stroke="#000000" stroke-width="0.01" stroke-linecap="square" stroke-miterlimit="10" x1="20.402" y1="83.097" x2="20.402" y2="80.802"/>
			<polyline fill="none" stroke="#000000" stroke-width="0.01" stroke-linecap="square" stroke-miterlimit="10" points="
				20.334,80.802 21.033,80.916 21.687,81.252 22.182,81.75 22.52,82.4 22.633,83.097 			"/>
		</g>
	</g>
	<g>
		<g>
			<text transform="matrix(1.0002 0 0 1 56.4639 80.1179)" font-family="'Arial-BoldMT'" font-size="1.1921">2</text>
			<text transform="matrix(1.0002 0 0 1 57.1348 80.114)" font-family="'SimSun'" font-size="1.2146">号门</text>
		</g>
		<g>

				<line fill="none" stroke="#020002" stroke-width="0.01" stroke-linecap="square" stroke-miterlimit="10" x1="60.248" y1="80.795" x2="60.248" y2="83.088"/>

				<line fill="none" stroke="#020002" stroke-width="0.01" stroke-linecap="square" stroke-miterlimit="10" x1="60.18" y1="83.088" x2="60.18" y2="80.795"/>
			<polyline fill="none" stroke="#020002" stroke-width="0.01" stroke-linecap="square" stroke-miterlimit="10" points="
				57.948,83.088 58.062,82.39 58.376,81.74 58.896,81.244 59.526,80.906 60.248,80.795 			"/>

				<line fill="none" stroke="#020002" stroke-width="0.01" stroke-linecap="square" stroke-miterlimit="10" x1="55.65" y1="80.795" x2="55.65" y2="83.088"/>

				<line fill="none" stroke="#020002" stroke-width="0.01" stroke-linecap="square" stroke-miterlimit="10" x1="55.717" y1="83.088" x2="55.717" y2="80.795"/>
			<polyline fill="none" stroke="#020002" stroke-width="0.01" stroke-linecap="square" stroke-miterlimit="10" points="
				55.65,80.795 56.371,80.906 57.001,81.244 57.521,81.74 57.836,82.39 57.948,83.088 			"/>
		</g>
	</g>
	<g>
		<g>
			<text transform="matrix(1.0002 0 0 1 93.2632 80.28)" fill="#020002" font-family="'Arial-BoldMT'" font-size="1.1921">3</text>
			<text transform="matrix(1.0002 0 0 1 93.939 80.2761)" fill="#020002" font-family="'SimSun'" font-size="1.2146">号门</text>
		</g>
		<g>

				<line fill="none" stroke="#020002" stroke-width="0.01" stroke-linecap="square" stroke-miterlimit="10" x1="97.039" y1="80.638" x2="97.039" y2="82.931"/>

				<line fill="none" stroke="#020002" stroke-width="0.01" stroke-linecap="square" stroke-miterlimit="10" x1="96.968" y1="82.931" x2="96.968" y2="80.638"/>
			<polyline fill="none" stroke="#020002" stroke-width="0.01" stroke-linecap="square" stroke-miterlimit="10" points="
				94.738,82.931 94.853,82.234 95.189,81.584 95.685,81.088 96.339,80.75 97.039,80.638 			"/>

				<line fill="none" stroke="#020002" stroke-width="0.01" stroke-linecap="square" stroke-miterlimit="10" x1="92.462" y1="80.638" x2="92.462" y2="82.931"/>

				<line fill="none" stroke="#020002" stroke-width="0.01" stroke-linecap="square" stroke-miterlimit="10" x1="92.53" y1="82.931" x2="92.53" y2="80.638"/>
			<polyline fill="none" stroke="#020002" stroke-width="0.01" stroke-linecap="square" stroke-miterlimit="10" points="
				92.462,80.638 93.162,80.75 93.792,81.088 94.31,81.584 94.626,82.234 94.738,82.931 			"/>
		</g>
	</g>
	<g>
		<g>
			<text transform="matrix(1.0002 0 0 1 128.6694 80.0105)" fill="#020002" font-family="'Arial-BoldMT'" font-size="1.1921">4</text>
			<text transform="matrix(1.0002 0 0 1 129.3452 80.0076)" fill="#020002" font-family="'SimSun'" font-size="1.2146">号门</text>
		</g>
		<g>

				<line fill="none" stroke="#050005" stroke-width="0.01" stroke-linecap="square" stroke-miterlimit="10" x1="132.318" y1="80.863" x2="132.318" y2="83.135"/>

				<line fill="none" stroke="#050005" stroke-width="0.01" stroke-linecap="square" stroke-miterlimit="10" x1="132.253" y1="83.135" x2="132.253" y2="80.863"/>
			<polyline fill="none" stroke="#050005" stroke-width="0.01" stroke-linecap="square" stroke-miterlimit="10" points="
				130.044,83.135 130.158,82.437 130.472,81.787 130.966,81.291 131.621,80.974 132.318,80.863 			"/>

				<line fill="none" stroke="#050005" stroke-width="0.01" stroke-linecap="square" stroke-miterlimit="10" x1="127.746" y1="80.863" x2="127.746" y2="83.135"/>

				<line fill="none" stroke="#050005" stroke-width="0.01" stroke-linecap="square" stroke-miterlimit="10" x1="127.812" y1="83.135" x2="127.812" y2="80.863"/>
			<polyline fill="none" stroke="#050005" stroke-width="0.01" stroke-linecap="square" stroke-miterlimit="10" points="
				127.746,80.863 128.445,80.974 129.099,81.291 129.591,81.787 129.929,82.437 130.044,83.135 			"/>
		</g>
	</g>
	<g>
		<g>
			<text transform="matrix(1.0002 0 0 1 165.8862 80.616)" fill="#020002" font-family="'Arial-BoldMT'" font-size="1.1921">5</text>
			<text transform="matrix(1.0002 0 0 1 166.5913 80.6121)" fill="#020002" font-family="'SimSun'" font-size="1.2146">号门</text>
		</g>
		<g>

				<line fill="none" stroke="#070007" stroke-width="0.01" stroke-linecap="square" stroke-miterlimit="10" x1="169.359" y1="81.109" x2="169.359" y2="83.408"/>

				<line fill="none" stroke="#070007" stroke-width="0.01" stroke-linecap="square" stroke-miterlimit="10" x1="169.291" y1="83.408" x2="169.291" y2="81.109"/>
			<polyline fill="none" stroke="#070007" stroke-width="0.01" stroke-linecap="square" stroke-miterlimit="10" points="
				167.058,83.408 167.173,82.685 167.486,82.054 168.007,81.539 168.636,81.22 169.359,81.109 			"/>

				<line fill="none" stroke="#070007" stroke-width="0.01" stroke-linecap="square" stroke-miterlimit="10" x1="164.761" y1="81.109" x2="164.761" y2="83.408"/>

				<line fill="none" stroke="#070007" stroke-width="0.01" stroke-linecap="square" stroke-miterlimit="10" x1="164.832" y1="83.408" x2="164.832" y2="81.109"/>
			<polyline fill="none" stroke="#070007" stroke-width="0.01" stroke-linecap="square" stroke-miterlimit="10" points="
				164.761,81.109 165.482,81.22 166.113,81.539 166.632,82.054 166.947,82.685 167.058,83.408 			"/>
		</g>
	</g>
</g>
</svg>
