<?xml version="1.0" encoding="utf-8"?>
<!-- Generator: Adobe Illustrator 16.0.0, SVG Export Plug-In . SVG Version: 6.00 Build 0)  -->
<!DOCTYPE svg PUBLIC "-//W3C//DTD SVG 1.1//EN" "http://www.w3.org/Graphics/SVG/1.1/DTD/svg11.dtd">
<svg version="1.1" id="图层_1" xmlns="http://www.w3.org/2000/svg" xmlns:xlink="http://www.w3.org/1999/xlink" x="0px" y="0px"
	 width="184.8px" height="83.4px" viewBox="0 0 184.8 83.4" enable-background="new 0 0 184.8 83.4" xml:space="preserve">
<g id="svg轮廓">
	<g id="LWPOLYLINE">
		
			<polyline fill="#FCFBE3" stroke="#010201" stroke-width="0.05" stroke-linecap="round" stroke-linejoin="round" stroke-miterlimit="10" points="
			0.025,13.684 0.025,83.333 0.106,83.415 178.501,83.415 178.583,83.333 178.583,78.41 184.791,78.41 184.791,18.608 
			178.568,18.608 178.583,13.684 178.501,13.604 19.828,13.604 19.828,0.318 1,0.318 1,13.036 1.089,13.118 1.727,13.118 
			1.727,13.604 0.106,13.604 0.025,13.684 		"/>
	</g>
</g>
<g id="svg商户">
	<g id="LWPOLYLINE_1_">
		
			<rect x="12.219" y="24.588" fill="#FFDEC7" stroke="#010201" stroke-width="0.05" stroke-linecap="round" stroke-linejoin="round" stroke-miterlimit="10" width="8.952" height="5.98"/>
	</g>
	<g id="LWPOLYLINE_2_">
		
			<rect x="12.219" y="34.555" fill="#FFDEC7" stroke="#010201" stroke-width="0.05" stroke-linecap="round" stroke-linejoin="round" stroke-miterlimit="10" width="8.952" height="10.964"/>
	</g>
	<g id="LWPOLYLINE_3_">
		
			<rect x="26.641" y="37.545" fill="#FFDEC7" stroke="#010201" stroke-width="0.05" stroke-linecap="round" stroke-linejoin="round" stroke-miterlimit="10" width="14.92" height="7.977"/>
	</g>
	<g id="LWPOLYLINE_4_">

			<rect x="35.593" y="31.565" fill="#FFDEC7" stroke="#010201" stroke-width="0.05" stroke-linecap="round" stroke-linejoin="round" stroke-miterlimit="10" width="5.968" height="2.99"/>
	</g>
	<g id="LWPOLYLINE_5_">

			<rect x="32.609" y="31.565" fill="#FFDEC7" stroke="#010201" stroke-width="0.05" stroke-linecap="round" stroke-linejoin="round" stroke-miterlimit="10" width="2.984" height="2.99"/>
	</g>
	<g id="LWPOLYLINE_6_">

			<rect x="26.641" y="31.565" fill="#FFDEC7" stroke="#010201" stroke-width="0.05" stroke-linecap="round" stroke-linejoin="round" stroke-miterlimit="10" width="5.968" height="2.99"/>
	</g>
	<g id="LWPOLYLINE_7_">

			<rect x="26.641" y="51.5" fill="#FFDEC7" stroke="#010201" stroke-width="0.05" stroke-linecap="round" stroke-linejoin="round" stroke-miterlimit="10" width="15.417" height="15.449"/>
	</g>
	<g id="LWPOLYLINE_8_">

			<rect x="44.545" y="51.5" fill="#FFDEC7" stroke="#010201" stroke-width="0.05" stroke-linecap="round" stroke-linejoin="round" stroke-miterlimit="10" width="11.936" height="5.979"/>
	</g>
	<g id="LWPOLYLINE_9_">

			<rect x="44.545" y="60.468" fill="#FFDEC7" stroke="#010201" stroke-width="0.05" stroke-linecap="round" stroke-linejoin="round" stroke-miterlimit="10" width="5.968" height="2.991"/>
	</g>
	<g id="LWPOLYLINE_10_">

			<rect x="50.513" y="60.468" fill="#FFDEC7" stroke="#010201" stroke-width="0.05" stroke-linecap="round" stroke-linejoin="round" stroke-miterlimit="10" width="5.968" height="5.981"/>
	</g>
	<g id="LWPOLYLINE_11_">

			<rect x="47.528" y="63.459" fill="#FFDEC7" stroke="#010201" stroke-width="0.05" stroke-linecap="round" stroke-linejoin="round" stroke-miterlimit="10" width="2.984" height="2.99"/>
	</g>
	<g id="LWPOLYLINE_12_">

			<rect x="44.545" y="63.459" fill="#FFDEC7" stroke="#010201" stroke-width="0.05" stroke-linecap="round" stroke-linejoin="round" stroke-miterlimit="10" width="2.983" height="2.99"/>
	</g>
	<g id="LWPOLYLINE_13_">

			<rect x="50.513" y="69.44" fill="#FFDEC7" stroke="#010201" stroke-width="0.05" stroke-linecap="round" stroke-linejoin="round" stroke-miterlimit="10" width="5.968" height="5.979"/>
	</g>
	<g id="LWPOLYLINE_14_">

			<rect x="44.545" y="69.44" fill="#FFDEC7" stroke="#010201" stroke-width="0.05" stroke-linecap="round" stroke-linejoin="round" stroke-miterlimit="10" width="5.968" height="2.99"/>
	</g>
	<g id="LWPOLYLINE_15_">

			<rect x="44.545" y="72.43" fill="#FFDEC7" stroke="#010201" stroke-width="0.05" stroke-linecap="round" stroke-linejoin="round" stroke-miterlimit="10" width="5.968" height="2.987"/>
	</g>
	<g id="LWPOLYLINE_16_">

			<rect x="35.593" y="69.44" fill="#FFDEC7" stroke="#010201" stroke-width="0.05" stroke-linecap="round" stroke-linejoin="round" stroke-miterlimit="10" width="6.465" height="2.99"/>
	</g>
	<g id="LWPOLYLINE_17_">

			<rect x="35.593" y="72.43" fill="#FFDEC7" stroke="#010201" stroke-width="0.05" stroke-linecap="round" stroke-linejoin="round" stroke-miterlimit="10" width="6.465" height="2.987"/>
	</g>
	<g id="LWPOLYLINE_18_">

			<rect x="26.641" y="69.44" fill="#FFDEC7" stroke="#010201" stroke-width="0.05" stroke-linecap="round" stroke-linejoin="round" stroke-miterlimit="10" width="8.952" height="5.979"/>
	</g>
	<g id="LWPOLYLINE_19_">

			<rect x="60.459" y="39.539" fill="#FFDEC7" stroke="#010201" stroke-width="0.05" stroke-linecap="round" stroke-linejoin="round" stroke-miterlimit="10" width="14.919" height="5.98"/>
	</g>
	<g id="LWPOLYLINE_20_">

			<rect x="47.528" y="39.539" fill="#FFDEC7" stroke="#010201" stroke-width="0.05" stroke-linecap="round" stroke-linejoin="round" stroke-miterlimit="10" width="8.952" height="5.98"/>
	</g>
	<g id="LWPOLYLINE_21_">

			<rect x="44.545" y="39.539" fill="#FFDEC7" stroke="#010201" stroke-width="0.05" stroke-linecap="round" stroke-linejoin="round" stroke-miterlimit="10" width="2.983" height="5.98"/>
	</g>
	<g id="LWPOLYLINE_22_">

			<rect x="60.459" y="30.569" fill="#FFDEC7" stroke="#010201" stroke-width="0.05" stroke-linecap="round" stroke-linejoin="round" stroke-miterlimit="10" width="8.952" height="5.979"/>
	</g>
	<g id="LWPOLYLINE_23_">

			<rect x="69.411" y="30.569" fill="#FFDEC7" stroke="#010201" stroke-width="0.05" stroke-linecap="round" stroke-linejoin="round" stroke-miterlimit="10" width="5.968" height="5.979"/>
	</g>
	<g id="LWPOLYLINE_24_">

			<rect x="50.513" y="30.569" fill="#FFDEC7" stroke="#010201" stroke-width="0.05" stroke-linecap="round" stroke-linejoin="round" stroke-miterlimit="10" width="5.968" height="5.979"/>
	</g>
	<g id="LWPOLYLINE_25_">

			<rect x="44.545" y="30.569" fill="#FFDEC7" stroke="#010201" stroke-width="0.05" stroke-linecap="round" stroke-linejoin="round" stroke-miterlimit="10" width="5.968" height="5.979"/>
	</g>
	<g id="LWPOLYLINE_26_">

			<rect x="26.641" y="21.598" fill="#FFDEC7" stroke="#010201" stroke-width="0.05" stroke-linecap="round" stroke-linejoin="round" stroke-miterlimit="10" width="8.952" height="5.979"/>
	</g>
	<g id="LWPOLYLINE_27_">

			<rect x="35.593" y="21.598" fill="#FFDEC7" stroke="#010201" stroke-width="0.05" stroke-linecap="round" stroke-linejoin="round" stroke-miterlimit="10" width="5.968" height="5.979"/>
	</g>
	<g id="LWPOLYLINE_28_">

			<rect x="44.545" y="21.598" fill="#FFDEC7" stroke="#010201" stroke-width="0.05" stroke-linecap="round" stroke-linejoin="round" stroke-miterlimit="10" width="5.968" height="5.979"/>
	</g>
	<g id="LWPOLYLINE_29_">

			<rect x="50.513" y="21.598" fill="#FFDEC7" stroke="#010201" stroke-width="0.05" stroke-linecap="round" stroke-linejoin="round" stroke-miterlimit="10" width="5.968" height="5.979"/>
	</g>
	<g id="LWPOLYLINE_30_">

			<rect x="60.459" y="21.598" fill="#FFDEC7" stroke="#010201" stroke-width="0.05" stroke-linecap="round" stroke-linejoin="round" stroke-miterlimit="10" width="8.952" height="5.979"/>
	</g>
	<g id="LWPOLYLINE_31_">

			<rect x="69.411" y="21.598" fill="#FFDEC7" stroke="#010201" stroke-width="0.05" stroke-linecap="round" stroke-linejoin="round" stroke-miterlimit="10" width="5.968" height="5.979"/>
	</g>
	<g id="LWPOLYLINE_32_">

			<rect x="78.363" y="21.598" fill="#FFDEC7" stroke="#010201" stroke-width="0.05" stroke-linecap="round" stroke-linejoin="round" stroke-miterlimit="10" width="5.968" height="5.979"/>
	</g>
	<g id="LWPOLYLINE_33_">

			<rect x="84.331" y="21.598" fill="#FFDEC7" stroke="#010201" stroke-width="0.05" stroke-linecap="round" stroke-linejoin="round" stroke-miterlimit="10" width="8.954" height="5.979"/>
	</g>
	<g id="LWPOLYLINE_34_">

			<rect x="78.363" y="32.063" fill="#FFDEC7" stroke="#010201" stroke-width="0.05" stroke-linecap="round" stroke-linejoin="round" stroke-miterlimit="10" width="14.92" height="13.456"/>
	</g>
	<g id="LWPOLYLINE_35_">

			<rect x="60.459" y="51.5" fill="#FFDEC7" stroke="#010201" stroke-width="0.05" stroke-linecap="round" stroke-linejoin="round" stroke-miterlimit="10" width="17.903" height="5.979"/>
	</g>
	<g id="LWPOLYLINE_36_">

			<rect x="81.347" y="51.5" fill="#FFDEC7" stroke="#010201" stroke-width="0.05" stroke-linecap="round" stroke-linejoin="round" stroke-miterlimit="10" width="11.936" height="8.969"/>
	</g>
	<g id="LWPOLYLINE_37_">

			<rect x="78.363" y="63.459" fill="#FFDEC7" stroke="#010201" stroke-width="0.05" stroke-linecap="round" stroke-linejoin="round" stroke-miterlimit="10" width="5.968" height="5.98"/>
	</g>
	<g id="LWPOLYLINE_38_">

			<rect x="87.315" y="63.459" fill="#FFDEC7" stroke="#010201" stroke-width="0.05" stroke-linecap="round" stroke-linejoin="round" stroke-miterlimit="10" width="5.968" height="11.961"/>
	</g>
	<g id="LWPOLYLINE_39_">

			<rect x="78.363" y="69.44" fill="#FFDEC7" stroke="#010201" stroke-width="0.05" stroke-linecap="round" stroke-linejoin="round" stroke-miterlimit="10" width="5.968" height="5.979"/>
	</g>
	<g id="LWPOLYLINE_40_">

			<rect x="69.411" y="60.468" fill="#FFDEC7" stroke="#010201" stroke-width="0.05" stroke-linecap="round" stroke-linejoin="round" stroke-miterlimit="10" width="5.968" height="5.981"/>
	</g>
	<g id="LWPOLYLINE_41_">

			<rect x="66.427" y="60.468" fill="#FFDEC7" stroke="#010201" stroke-width="0.05" stroke-linecap="round" stroke-linejoin="round" stroke-miterlimit="10" width="2.984" height="2.991"/>
	</g>
	<g id="LWPOLYLINE_42_">

			<rect x="66.427" y="63.459" fill="#FFDEC7" stroke="#010201" stroke-width="0.05" stroke-linecap="round" stroke-linejoin="round" stroke-miterlimit="10" width="2.984" height="2.99"/>
	</g>
	<g id="LWPOLYLINE_43_">

			<rect x="60.459" y="60.468" fill="#FFDEC7" stroke="#010201" stroke-width="0.05" stroke-linecap="round" stroke-linejoin="round" stroke-miterlimit="10" width="5.968" height="5.981"/>
	</g>
	<g id="LWPOLYLINE_44_">

			<rect x="60.459" y="69.44" fill="#FFDEC7" stroke="#010201" stroke-width="0.05" stroke-linecap="round" stroke-linejoin="round" stroke-miterlimit="10" width="5.968" height="5.979"/>
	</g>
	<g id="LWPOLYLINE_45_">

			<rect x="69.411" y="69.44" fill="#FFDEC7" stroke="#010201" stroke-width="0.05" stroke-linecap="round" stroke-linejoin="round" stroke-miterlimit="10" width="5.968" height="5.979"/>
	</g>
	<g id="LWPOLYLINE_46_">

			<rect x="66.427" y="69.44" fill="#FFDEC7" stroke="#010201" stroke-width="0.05" stroke-linecap="round" stroke-linejoin="round" stroke-miterlimit="10" width="2.984" height="2.99"/>
	</g>
	<g id="LWPOLYLINE_47_">

			<rect x="66.427" y="72.43" fill="#FFDEC7" stroke="#010201" stroke-width="0.05" stroke-linecap="round" stroke-linejoin="round" stroke-miterlimit="10" width="2.984" height="2.987"/>
	</g>
	<g id="LWPOLYLINE_48_">

			<rect x="99.25" y="69.44" fill="#FFDEC7" stroke="#010201" stroke-width="0.05" stroke-linecap="round" stroke-linejoin="round" stroke-miterlimit="10" width="11.938" height="5.979"/>
	</g>
	<g id="LWPOLYLINE_49_">

			<rect x="111.186" y="69.44" fill="#FFDEC7" stroke="#010201" stroke-width="0.05" stroke-linecap="round" stroke-linejoin="round" stroke-miterlimit="10" width="2.983" height="5.979"/>
	</g>
	<g id="LWPOLYLINE_50_">

			<rect x="99.25" y="60.468" fill="#FFDEC7" stroke="#010201" stroke-width="0.05" stroke-linecap="round" stroke-linejoin="round" stroke-miterlimit="10" width="5.972" height="5.981"/>
	</g>
	<g id="LWPOLYLINE_51_">

			<rect x="108.203" y="60.468" fill="#FFDEC7" stroke="#010201" stroke-width="0.05" stroke-linecap="round" stroke-linejoin="round" stroke-miterlimit="10" width="5.967" height="5.981"/>
	</g>
	<g id="LWPOLYLINE_52_">

			<rect x="105.218" y="60.468" fill="#FFDEC7" stroke="#010201" stroke-width="0.05" stroke-linecap="round" stroke-linejoin="round" stroke-miterlimit="10" width="2.984" height="2.991"/>
	</g>
	<g id="LWPOLYLINE_53_">

			<rect x="105.218" y="63.459" fill="#FFDEC7" stroke="#010201" stroke-width="0.05" stroke-linecap="round" stroke-linejoin="round" stroke-miterlimit="10" width="2.984" height="2.99"/>
	</g>
	<g id="LWPOLYLINE_54_">

			<rect x="99.25" y="51.5" fill="#FFDEC7" stroke="#010201" stroke-width="0.05" stroke-linecap="round" stroke-linejoin="round" stroke-miterlimit="10" width="11.938" height="5.979"/>
	</g>
	<g id="LWPOLYLINE_55_">

			<rect x="111.186" y="51.5" fill="#FFDEC7" stroke="#010201" stroke-width="0.05" stroke-linecap="round" stroke-linejoin="round" stroke-miterlimit="10" width="2.983" height="5.979"/>
	</g>
	<g id="LWPOLYLINE_56_">

			<rect x="117.154" y="51.5" fill="#FFDEC7" stroke="#010201" stroke-width="0.05" stroke-linecap="round" stroke-linejoin="round" stroke-miterlimit="10" width="5.969" height="5.979"/>
	</g>
	<g id="LWPOLYLINE_57_">

			<rect x="123.123" y="51.5" fill="#FFDEC7" stroke="#010201" stroke-width="0.05" stroke-linecap="round" stroke-linejoin="round" stroke-miterlimit="10" width="5.967" height="5.979"/>
	</g>
	<g id="LWPOLYLINE_58_">

			<rect x="117.154" y="60.468" fill="#FFDEC7" stroke="#010201" stroke-width="0.05" stroke-linecap="round" stroke-linejoin="round" stroke-miterlimit="10" width="5.969" height="2.991"/>
	</g>
	<g id="LWPOLYLINE_59_">

			<rect x="123.123" y="60.468" fill="#FFDEC7" stroke="#010201" stroke-width="0.05" stroke-linecap="round" stroke-linejoin="round" stroke-miterlimit="10" width="5.967" height="2.991"/>
	</g>
	<g id="LWPOLYLINE_60_">

			<rect x="123.123" y="63.459" fill="#FFDEC7" stroke="#010201" stroke-width="0.05" stroke-linecap="round" stroke-linejoin="round" stroke-miterlimit="10" width="5.967" height="2.99"/>
	</g>
	<g id="LWPOLYLINE_61_">

			<rect x="117.154" y="63.459" fill="#FFDEC7" stroke="#010201" stroke-width="0.05" stroke-linecap="round" stroke-linejoin="round" stroke-miterlimit="10" width="5.969" height="2.99"/>
	</g>
	<g id="LWPOLYLINE_62_">

			<rect x="117.154" y="69.44" fill="#FFDEC7" stroke="#010201" stroke-width="0.05" stroke-linecap="round" stroke-linejoin="round" stroke-miterlimit="10" width="11.936" height="2.99"/>
	</g>
	<g id="LWPOLYLINE_63_">

			<rect x="117.154" y="72.43" fill="#FFDEC7" stroke="#010201" stroke-width="0.05" stroke-linecap="round" stroke-linejoin="round" stroke-miterlimit="10" width="5.969" height="2.987"/>
	</g>
	<g id="LWPOLYLINE_64_">

			<rect x="123.123" y="72.43" fill="#FFDEC7" stroke="#010201" stroke-width="0.05" stroke-linecap="round" stroke-linejoin="round" stroke-miterlimit="10" width="5.967" height="2.987"/>
	</g>
	<g id="LWPOLYLINE_65_">

			<rect x="133.068" y="69.44" fill="#FFDEC7" stroke="#010201" stroke-width="0.05" stroke-linecap="round" stroke-linejoin="round" stroke-miterlimit="10" width="5.969" height="2.99"/>
	</g>
	<g id="LWPOLYLINE_66_">

			<rect x="133.068" y="72.43" fill="#FFDEC7" stroke="#010201" stroke-width="0.05" stroke-linecap="round" stroke-linejoin="round" stroke-miterlimit="10" width="5.969" height="2.987"/>
	</g>
	<g id="LWPOLYLINE_67_">

			<rect x="139.037" y="69.44" fill="#FFDEC7" stroke="#010201" stroke-width="0.05" stroke-linecap="round" stroke-linejoin="round" stroke-miterlimit="10" width="2.983" height="2.99"/>
	</g>
	<g id="LWPOLYLINE_68_">

			<rect x="142.021" y="69.44" fill="#FFDEC7" stroke="#010201" stroke-width="0.05" stroke-linecap="round" stroke-linejoin="round" stroke-miterlimit="10" width="5.969" height="2.99"/>
	</g>
	<g id="LWPOLYLINE_69_">

			<rect x="139.037" y="72.43" fill="#FFDEC7" stroke="#010201" stroke-width="0.05" stroke-linecap="round" stroke-linejoin="round" stroke-miterlimit="10" width="2.983" height="2.987"/>
	</g>
	<g id="LWPOLYLINE_70_">

			<rect x="142.021" y="72.43" fill="#FFDEC7" stroke="#010201" stroke-width="0.05" stroke-linecap="round" stroke-linejoin="round" stroke-miterlimit="10" width="5.969" height="2.987"/>
	</g>
	<g id="LWPOLYLINE_71_">

			<rect x="153.957" y="69.44" fill="#FFDEC7" stroke="#010201" stroke-width="0.05" stroke-linecap="round" stroke-linejoin="round" stroke-miterlimit="10" width="5.969" height="5.979"/>
	</g>
	<g id="LWPOLYLINE_72_">

			<rect x="159.925" y="69.44" fill="#FFDEC7" stroke="#010201" stroke-width="0.05" stroke-linecap="round" stroke-linejoin="round" stroke-miterlimit="10" width="5.967" height="5.979"/>
	</g>
	<g id="LWPOLYLINE_73_">

			<rect x="159.925" y="60.468" fill="#FFDEC7" stroke="#010201" stroke-width="0.05" stroke-linecap="round" stroke-linejoin="round" stroke-miterlimit="10" width="5.967" height="5.981"/>
	</g>
	<g id="LWPOLYLINE_74_">

			<rect x="153.957" y="60.468" fill="#FFDEC7" stroke="#010201" stroke-width="0.05" stroke-linecap="round" stroke-linejoin="round" stroke-miterlimit="10" width="5.969" height="2.991"/>
	</g>
	<g id="LWPOLYLINE_75_">

			<rect x="153.957" y="63.459" fill="#FFDEC7" stroke="#010201" stroke-width="0.05" stroke-linecap="round" stroke-linejoin="round" stroke-miterlimit="10" width="5.969" height="2.99"/>
	</g>
	<g id="LWPOLYLINE_76_">

			<rect x="142.021" y="60.468" fill="#FFDEC7" stroke="#010201" stroke-width="0.05" stroke-linecap="round" stroke-linejoin="round" stroke-miterlimit="10" width="5.969" height="2.991"/>
	</g>
	<g id="LWPOLYLINE_77_">

			<rect x="142.021" y="63.459" fill="#FFDEC7" stroke="#010201" stroke-width="0.05" stroke-linecap="round" stroke-linejoin="round" stroke-miterlimit="10" width="5.969" height="2.99"/>
	</g>
	<g id="LWPOLYLINE_78_">

			<rect x="139.037" y="63.459" fill="#FFDEC7" stroke="#010201" stroke-width="0.05" stroke-linecap="round" stroke-linejoin="round" stroke-miterlimit="10" width="2.983" height="2.99"/>
	</g>
	<g id="LWPOLYLINE_79_">

			<rect x="133.068" y="63.459" fill="#FFDEC7" stroke="#010201" stroke-width="0.05" stroke-linecap="round" stroke-linejoin="round" stroke-miterlimit="10" width="5.969" height="2.99"/>
	</g>
	<g id="LWPOLYLINE_80_">

			<rect x="133.068" y="60.468" fill="#FFDEC7" stroke="#010201" stroke-width="0.05" stroke-linecap="round" stroke-linejoin="round" stroke-miterlimit="10" width="8.952" height="2.991"/>
	</g>
	<g id="LWPOLYLINE_81_">

			<rect x="133.068" y="51.5" fill="#FFDEC7" stroke="#010201" stroke-width="0.05" stroke-linecap="round" stroke-linejoin="round" stroke-miterlimit="10" width="8.952" height="5.979"/>
	</g>
	<g id="LWPOLYLINE_82_">

			<rect x="142.021" y="51.5" fill="#FFDEC7" stroke="#010201" stroke-width="0.05" stroke-linecap="round" stroke-linejoin="round" stroke-miterlimit="10" width="5.969" height="5.979"/>
	</g>
	<g id="LWPOLYLINE_83_">

			<rect x="150.973" y="51.5" fill="#FFDEC7" stroke="#010201" stroke-width="0.05" stroke-linecap="round" stroke-linejoin="round" stroke-miterlimit="10" width="2.983" height="5.979"/>
	</g>
	<g id="LWPOLYLINE_84_">

			<rect x="156.94" y="51.5" fill="#FFDEC7" stroke="#010201" stroke-width="0.05" stroke-linecap="round" stroke-linejoin="round" stroke-miterlimit="10" width="8.951" height="5.979"/>
	</g>
	<g id="LWPOLYLINE_85_">

			<rect x="153.957" y="51.5" fill="#FFDEC7" stroke="#010201" stroke-width="0.05" stroke-linecap="round" stroke-linejoin="round" stroke-miterlimit="10" width="2.983" height="2.99"/>
	</g>
	<g id="LWPOLYLINE_86_">

			<rect x="153.957" y="54.49" fill="#FFDEC7" stroke="#010201" stroke-width="0.05" stroke-linecap="round" stroke-linejoin="round" stroke-miterlimit="10" width="2.983" height="2.989"/>
	</g>
	<g id="LWPOLYLINE_87_">

			<rect x="121.134" y="35.552" fill="#FFDEC7" stroke="#010201" stroke-width="0.05" stroke-linecap="round" stroke-linejoin="round" stroke-miterlimit="10" width="7.955" height="9.97"/>
	</g>
	<g id="LWPOLYLINE_88_">

			<rect x="99.25" y="21.598" fill="#FFDEC7" stroke="#010201" stroke-width="0.05" stroke-linecap="round" stroke-linejoin="round" stroke-miterlimit="10" width="16.91" height="23.921"/>
	</g>
	<g id="LWPOLYLINE_89_">

			<rect x="123.123" y="21.598" fill="#FFDEC7" stroke="#010201" stroke-width="0.05" stroke-linecap="round" stroke-linejoin="round" stroke-miterlimit="10" width="5.967" height="5.979"/>
	</g>
	<g id="LWPOLYLINE_90_">

			<rect x="123.123" y="27.578" fill="#FFDEC7" stroke="#010201" stroke-width="0.05" stroke-linecap="round" stroke-linejoin="round" stroke-miterlimit="10" width="5.967" height="5.981"/>
	</g>
	<g id="LWPOLYLINE_91_">

			<rect x="133.068" y="21.598" fill="#FFDEC7" stroke="#010201" stroke-width="0.05" stroke-linecap="round" stroke-linejoin="round" stroke-miterlimit="10" width="5.969" height="5.979"/>
	</g>
	<g id="LWPOLYLINE_92_">

			<rect x="139.037" y="21.598" fill="#FFDEC7" stroke="#010201" stroke-width="0.05" stroke-linecap="round" stroke-linejoin="round" stroke-miterlimit="10" width="2.983" height="2.987"/>
	</g>
	<g id="LWPOLYLINE_93_">

			<rect x="139.037" y="24.588" fill="#FFDEC7" stroke="#010201" stroke-width="0.05" stroke-linecap="round" stroke-linejoin="round" stroke-miterlimit="10" width="2.983" height="2.99"/>
	</g>
	<g id="LWPOLYLINE_94_">

			<rect x="142.021" y="21.598" fill="#FFDEC7" stroke="#010201" stroke-width="0.05" stroke-linecap="round" stroke-linejoin="round" stroke-miterlimit="10" width="5.969" height="2.987"/>
	</g>
	<g id="LWPOLYLINE_95_">

			<rect x="142.021" y="24.588" fill="#FFDEC7" stroke="#010201" stroke-width="0.05" stroke-linecap="round" stroke-linejoin="round" stroke-miterlimit="10" width="5.969" height="2.99"/>
	</g>
	<g id="LWPOLYLINE_96_">

			<rect x="133.068" y="30.569" fill="#FFDEC7" stroke="#010201" stroke-width="0.05" stroke-linecap="round" stroke-linejoin="round" stroke-miterlimit="10" width="5.969" height="5.979"/>
	</g>
	<g id="LWPOLYLINE_97_">

			<rect x="133.068" y="39.539" fill="#FFDEC7" stroke="#010201" stroke-width="0.05" stroke-linecap="round" stroke-linejoin="round" stroke-miterlimit="10" width="5.969" height="5.98"/>
	</g>
	<g id="LWPOLYLINE_98_">

			<rect x="139.037" y="39.539" fill="#FFDEC7" stroke="#010201" stroke-width="0.05" stroke-linecap="round" stroke-linejoin="round" stroke-miterlimit="10" width="2.983" height="2.991"/>
	</g>
	<g id="LWPOLYLINE_99_">

			<rect x="142.021" y="39.539" fill="#FFDEC7" stroke="#010201" stroke-width="0.05" stroke-linecap="round" stroke-linejoin="round" stroke-miterlimit="10" width="5.969" height="2.991"/>
	</g>
	<g id="LWPOLYLINE_100_">

			<rect x="139.037" y="42.53" fill="#FFDEC7" stroke="#010201" stroke-width="0.05" stroke-linecap="round" stroke-linejoin="round" stroke-miterlimit="10" width="8.952" height="2.989"/>
	</g>
	<g id="LWPOLYLINE_101_">

			<rect x="139.037" y="30.569" fill="#FFDEC7" stroke="#010201" stroke-width="0.05" stroke-linecap="round" stroke-linejoin="round" stroke-miterlimit="10" width="2.983" height="2.99"/>
	</g>
	<g id="LWPOLYLINE_102_">

			<rect x="139.037" y="33.559" fill="#FFDEC7" stroke="#010201" stroke-width="0.05" stroke-linecap="round" stroke-linejoin="round" stroke-miterlimit="10" width="2.983" height="2.987"/>
	</g>
	<g id="LWPOLYLINE_103_">

			<rect x="142.021" y="30.569" fill="#FFDEC7" stroke="#010201" stroke-width="0.05" stroke-linecap="round" stroke-linejoin="round" stroke-miterlimit="10" width="5.969" height="2.99"/>
	</g>
	<g id="LWPOLYLINE_104_">

			<rect x="142.021" y="33.559" fill="#FFDEC7" stroke="#010201" stroke-width="0.05" stroke-linecap="round" stroke-linejoin="round" stroke-miterlimit="10" width="5.969" height="2.987"/>
	</g>
	<g id="LWPOLYLINE_105_">

			<rect x="150.973" y="30.569" fill="#FFDEC7" stroke="#010201" stroke-width="0.05" stroke-linecap="round" stroke-linejoin="round" stroke-miterlimit="10" width="5.968" height="5.979"/>
	</g>
	<g id="LWPOLYLINE_106_">

			<rect x="156.94" y="30.569" fill="#FFDEC7" stroke="#010201" stroke-width="0.05" stroke-linecap="round" stroke-linejoin="round" stroke-miterlimit="10" width="2.983" height="2.99"/>
	</g>
	<g id="LWPOLYLINE_107_">

			<rect x="159.925" y="30.569" fill="#FFDEC7" stroke="#010201" stroke-width="0.05" stroke-linecap="round" stroke-linejoin="round" stroke-miterlimit="10" width="5.967" height="5.979"/>
	</g>
	<g id="LWPOLYLINE_108_">

			<rect x="156.94" y="33.559" fill="#FFDEC7" stroke="#010201" stroke-width="0.05" stroke-linecap="round" stroke-linejoin="round" stroke-miterlimit="10" width="2.983" height="2.987"/>
	</g>
	<g id="LWPOLYLINE_109_">

			<rect x="150.973" y="39.539" fill="#FFDEC7" stroke="#010201" stroke-width="0.05" stroke-linecap="round" stroke-linejoin="round" stroke-miterlimit="10" width="5.968" height="5.98"/>
	</g>
	<g id="LWPOLYLINE_110_">

			<rect x="159.925" y="39.539" fill="#FFDEC7" stroke="#010201" stroke-width="0.05" stroke-linecap="round" stroke-linejoin="round" stroke-miterlimit="10" width="5.967" height="5.98"/>
	</g>
	<g id="LWPOLYLINE_111_">

			<rect x="156.94" y="39.539" fill="#FFDEC7" stroke="#010201" stroke-width="0.05" stroke-linecap="round" stroke-linejoin="round" stroke-miterlimit="10" width="2.983" height="2.991"/>
	</g>
	<g id="LWPOLYLINE_112_">

			<rect x="156.94" y="42.53" fill="#FFDEC7" stroke="#010201" stroke-width="0.05" stroke-linecap="round" stroke-linejoin="round" stroke-miterlimit="10" width="2.983" height="2.989"/>
	</g>
	<g id="LWPOLYLINE_113_">

			<rect x="159.925" y="21.598" fill="#FFDEC7" stroke="#010201" stroke-width="0.05" stroke-linecap="round" stroke-linejoin="round" stroke-miterlimit="10" width="5.967" height="5.979"/>
	</g>
	<g id="LWPOLYLINE_114_">

			<rect x="169.871" y="27.578" fill="#FFDEC7" stroke="#010201" stroke-width="0.05" stroke-linecap="round" stroke-linejoin="round" stroke-miterlimit="10" width="2.983" height="2.991"/>
	</g>
	<g id="LWPOLYLINE_115_">

			<rect x="169.871" y="30.569" fill="#FFDEC7" stroke="#010201" stroke-width="0.05" stroke-linecap="round" stroke-linejoin="round" stroke-miterlimit="10" width="2.983" height="2.99"/>
	</g>
	<g id="LWPOLYLINE_116_">

			<rect x="169.871" y="33.559" fill="#FFDEC7" stroke="#010201" stroke-width="0.05" stroke-linecap="round" stroke-linejoin="round" stroke-miterlimit="10" width="2.983" height="5.979"/>
	</g>
	<g id="LWPOLYLINE_117_">

			<rect x="169.871" y="39.539" fill="#FFDEC7" stroke="#010201" stroke-width="0.05" stroke-linecap="round" stroke-linejoin="round" stroke-miterlimit="10" width="2.983" height="5.98"/>
	</g>
	<g id="LWPOLYLINE_118_">

			<rect x="169.871" y="51.5" fill="#FFDEC7" stroke="#010201" stroke-width="0.05" stroke-linecap="round" stroke-linejoin="round" stroke-miterlimit="10" width="2.983" height="5.979"/>
	</g>
	<g id="LWPOLYLINE_119_">

			<rect x="169.871" y="57.479" fill="#FFDEC7" stroke="#010201" stroke-width="0.05" stroke-linecap="round" stroke-linejoin="round" stroke-miterlimit="10" width="2.983" height="2.986"/>
	</g>
	<g id="LWPOLYLINE_120_">

			<rect x="169.871" y="60.468" fill="#FFDEC7" stroke="#010201" stroke-width="0.05" stroke-linecap="round" stroke-linejoin="round" stroke-miterlimit="10" width="2.983" height="2.991"/>
	</g>
	<g id="LWPOLYLINE_121_">

			<rect x="169.871" y="63.459" fill="#FFDEC7" stroke="#010201" stroke-width="0.05" stroke-linecap="round" stroke-linejoin="round" stroke-miterlimit="10" width="2.983" height="2.99"/>
	</g>
	<g id="LWPOLYLINE_122_">

			<rect x="169.871" y="66.45" fill="#FFDEC7" stroke="#010201" stroke-width="0.05" stroke-linecap="round" stroke-linejoin="round" stroke-miterlimit="10" width="2.983" height="2.99"/>
	</g>
	<g id="LWPOLYLINE_123_">

			<rect x="169.871" y="69.44" fill="#FFDEC7" stroke="#010201" stroke-width="0.05" stroke-linecap="round" stroke-linejoin="round" stroke-miterlimit="10" width="2.983" height="5.979"/>
	</g>
	<g id="LWPOLYLINE_124_">

			<rect x="117.729" y="15.623" fill="#FFDEC7" stroke="#010201" stroke-width="0.05" stroke-linecap="round" stroke-linejoin="round" stroke-miterlimit="10" width="5.97" height="2.99"/>
	</g>
	<g id="LWPOLYLINE_125_">

			<rect x="114.748" y="15.623" fill="#FFDEC7" stroke="#010201" stroke-width="0.05" stroke-linecap="round" stroke-linejoin="round" stroke-miterlimit="10" width="2.98" height="2.99"/>
	</g>
	<g id="LWPOLYLINE_126_">

			<rect x="111.761" y="15.623" fill="#FFDEC7" stroke="#010201" stroke-width="0.05" stroke-linecap="round" stroke-linejoin="round" stroke-miterlimit="10" width="2.986" height="2.99"/>
	</g>
	<g id="LWPOLYLINE_127_">

			<rect x="102.809" y="15.623" fill="#FFDEC7" stroke="#010201" stroke-width="0.05" stroke-linecap="round" stroke-linejoin="round" stroke-miterlimit="10" width="8.952" height="2.99"/>
	</g>
	<g id="LWPOLYLINE_128_">

			<rect x="79.115" y="15.623" fill="#FFDEC7" stroke="#010201" stroke-width="0.05" stroke-linecap="round" stroke-linejoin="round" stroke-miterlimit="10" width="8.952" height="2.99"/>
	</g>
	<g id="LWPOLYLINE_129_">

			<rect x="73.147" y="15.623" fill="#FFDEC7" stroke="#010201" stroke-width="0.05" stroke-linecap="round" stroke-linejoin="round" stroke-miterlimit="10" width="5.967" height="2.99"/>
	</g>
	<g id="LWPOLYLINE_130_">

			<rect x="67.18" y="15.623" fill="#FFDEC7" stroke="#010201" stroke-width="0.05" stroke-linecap="round" stroke-linejoin="round" stroke-miterlimit="10" width="5.968" height="2.99"/>
	</g>
	<g id="LWPOLYLINE_131_">

			<rect x="30.949" y="15.623" fill="#FFDEC7" stroke="#010201" stroke-width="0.05" stroke-linecap="round" stroke-linejoin="round" stroke-miterlimit="10" width="5.968" height="2.99"/>
	</g>
	<g id="LWPOLYLINE_132_">

			<rect x="36.917" y="15.623" fill="#FFDEC7" stroke="#010201" stroke-width="0.05" stroke-linecap="round" stroke-linejoin="round" stroke-miterlimit="10" width="8.952" height="2.99"/>
	</g>
	<g id="LWPOLYLINE_133_">

			<rect x="45.869" y="15.623" fill="#FFDEC7" stroke="#010201" stroke-width="0.05" stroke-linecap="round" stroke-linejoin="round" stroke-miterlimit="10" width="5.968" height="2.99"/>
	</g>
	<g id="LWPOLYLINE_134_">

			<rect x="12.219" y="51.5" fill="#FFDEC7" stroke="#010201" stroke-width="0.05" stroke-linecap="round" stroke-linejoin="round" stroke-miterlimit="10" width="8.952" height="5.979"/>
	</g>
	<g id="LWPOLYLINE_135_">

			<rect x="12.219" y="57.479" fill="#FFDEC7" stroke="#010201" stroke-width="0.05" stroke-linecap="round" stroke-linejoin="round" stroke-miterlimit="10" width="8.952" height="5.979"/>
	</g>
	<g id="LWPOLYLINE_136_">

			<rect x="12.219" y="67.448" fill="#FFDEC7" stroke="#010201" stroke-width="0.05" stroke-linecap="round" stroke-linejoin="round" stroke-miterlimit="10" width="8.952" height="5.979"/>
	</g>
	<g id="LWPOLYLINE_137_">

			<rect x="32.649" y="78.423" fill="#FFDEC7" stroke="#010201" stroke-width="0.05" stroke-linecap="round" stroke-linejoin="round" stroke-miterlimit="10" width="5.967" height="2.991"/>
	</g>
	<g id="LWPOLYLINE_138_">

			<rect x="38.616" y="78.423" fill="#FFDEC7" stroke="#010201" stroke-width="0.05" stroke-linecap="round" stroke-linejoin="round" stroke-miterlimit="10" width="2.985" height="2.991"/>
	</g>
	<g id="LWPOLYLINE_139_">

			<rect x="41.601" y="78.423" fill="#FFDEC7" stroke="#010201" stroke-width="0.05" stroke-linecap="round" stroke-linejoin="round" stroke-miterlimit="10" width="8.951" height="2.991"/>
	</g>
	<g id="LWPOLYLINE_140_">

			<rect x="66.71" y="78.423" fill="#FFDEC7" stroke="#010201" stroke-width="0.05" stroke-linecap="round" stroke-linejoin="round" stroke-miterlimit="10" width="5.968" height="2.991"/>
	</g>
	<g id="LWPOLYLINE_141_">

			<rect x="72.678" y="78.423" fill="#FFDEC7" stroke="#010201" stroke-width="0.05" stroke-linecap="round" stroke-linejoin="round" stroke-miterlimit="10" width="2.983" height="2.991"/>
	</g>
	<g id="LWPOLYLINE_142_">

			<rect x="75.662" y="78.423" fill="#FFDEC7" stroke="#010201" stroke-width="0.05" stroke-linecap="round" stroke-linejoin="round" stroke-miterlimit="10" width="2.984" height="2.991"/>
	</g>
	<g id="LWPOLYLINE_143_">

			<rect x="78.646" y="78.423" fill="#FFDEC7" stroke="#010201" stroke-width="0.05" stroke-linecap="round" stroke-linejoin="round" stroke-miterlimit="10" width="2.984" height="2.991"/>
	</g>
	<g id="LWPOLYLINE_144_">

			<rect x="81.63" y="78.423" fill="#FFDEC7" stroke="#010201" stroke-width="0.05" stroke-linecap="round" stroke-linejoin="round" stroke-miterlimit="10" width="5.968" height="2.991"/>
	</g>
	<g id="LWPOLYLINE_145_">

			<rect x="102.757" y="78.423" fill="#FFDEC7" stroke="#010201" stroke-width="0.05" stroke-linecap="round" stroke-linejoin="round" stroke-miterlimit="10" width="5.968" height="2.991"/>
	</g>
	<g id="LWPOLYLINE_146_">

			<rect x="108.725" y="78.423" fill="#FFDEC7" stroke="#010201" stroke-width="0.05" stroke-linecap="round" stroke-linejoin="round" stroke-miterlimit="10" width="2.985" height="2.991"/>
	</g>
	<g id="LWPOLYLINE_147_">

			<rect x="111.71" y="78.423" fill="#FFDEC7" stroke="#010201" stroke-width="0.05" stroke-linecap="round" stroke-linejoin="round" stroke-miterlimit="10" width="2.98" height="2.991"/>
	</g>
	<g id="LWPOLYLINE_148_">

			<rect x="114.693" y="78.423" fill="#FFDEC7" stroke="#010201" stroke-width="0.05" stroke-linecap="round" stroke-linejoin="round" stroke-miterlimit="10" width="2.984" height="2.991"/>
	</g>
	<g id="LWPOLYLINE_149_">

			<rect x="117.678" y="78.423" fill="#FFDEC7" stroke="#010201" stroke-width="0.05" stroke-linecap="round" stroke-linejoin="round" stroke-miterlimit="10" width="5.968" height="2.991"/>
	</g>
</g>
<g id="svg楼梯">
	<g id="LWPOLYLINE_150_">

			<rect x="171.649" y="79.008" fill="#F6F9A7" stroke="#010201" stroke-width="0.05" stroke-linecap="round" stroke-linejoin="round" stroke-miterlimit="10" width="6.167" height="3.039"/>
	</g>
	<g id="LWPOLYLINE_151_">

			<rect x="0.792" y="79.008" fill="#F6F9A7" stroke="#010201" stroke-width="0.05" stroke-linecap="round" stroke-linejoin="round" stroke-miterlimit="10" width="6.167" height="3.039"/>
	</g>
	<g id="LWPOLYLINE_152_">

			<rect x="171.649" y="14.969" fill="#F6F9A7" stroke="#010201" stroke-width="0.05" stroke-linecap="round" stroke-linejoin="round" stroke-miterlimit="10" width="6.167" height="3.04"/>
	</g>
	<g id="LWPOLYLINE_153_">

			<rect x="0.792" y="14.969" fill="#F6F9A7" stroke="#010201" stroke-width="0.05" stroke-linecap="round" stroke-linejoin="round" stroke-miterlimit="10" width="6.167" height="3.04"/>
	</g>
</g>
<g id="svg厕所">
	<g id="LWPOLYLINE_154_">

			<rect x="174.401" y="20.602" fill="#BEBBFB" stroke="#010201" stroke-width="0.05" stroke-linecap="round" stroke-linejoin="round" stroke-miterlimit="10" width="10.39" height="5.538"/>
	</g>
</g>
<g id="svg障碍物">
	<g id="LWPOLYLINE_155_">

			<rect x="0.025" y="26.007" fill="#DDDDDD" stroke="#010201" stroke-width="0.05" stroke-linecap="round" stroke-linejoin="round" stroke-miterlimit="10" width="10.304" height="45.077"/>
	</g>
	<g id="LWPOLYLINE_156_">

			<rect x="174.212" y="26.139" fill="#DDDDDD" stroke="#010201" stroke-width="0.05" stroke-linecap="round" stroke-linejoin="round" stroke-miterlimit="10" width="10.578" height="50.327"/>
	</g>
	<g id="LWPOLYLINE_157_">

			<polyline fill="#DDDDDD" stroke="#010201" stroke-width="0.05" stroke-linecap="round" stroke-linejoin="round" stroke-miterlimit="10" points="
			1,0.318 19.828,0.318 19.828,13.604 1.727,13.604 1.727,13.118 1.089,13.118 1,13.036 1,0.318 		"/>
	</g>
</g>
<g id="轮廓2">
	<g id="LWPOLYLINE_158_">
		<polyline fill="none" points="0,13.702 0,83.351 0.081,83.431 178.478,83.431 178.558,83.351 178.558,78.427 184.767,78.427
			184.767,18.625 178.544,18.625 178.558,13.702 178.478,13.621 19.803,13.621 19.803,0.336 0.975,0.336 0.975,13.054 1.064,13.135
			1.702,13.135 1.702,13.621 0.081,13.621 0,13.702 		"/>
	</g>
</g>
<g id="device">
	<circle id="E4:95:6E:4E:63:01" fill="#FF0606" cx="16.358" cy="55.198" r="0.5"/>
	<circle id="E4:95:6E:4E:63:11" fill="#FF0606" cx="45.869" cy="64.954" r="0.5"/>
	<circle id="E4:95:6E:4E:64:76" fill="#FF0606" cx="47.529" cy="33.559" r="0.5"/>
	<circle id="E4:95:6E:4E:63:DF" fill="#FF0606" cx="72.678" cy="63.459" r="0.5"/>
	<circle id="E4:95:6E:4E:63:B2" fill="#FF0606" cx="72.395" cy="33.559" r="0.5"/>
	<circle id="E4:95:6E:4E:62:C2" fill="#FF0606" cx="112.677" cy="72.43" r="0.5"/>
	<circle id="E4:95:6E:4C:55:25" fill="#FF0606" cx="108.203" cy="33.06" r="0.5"/>
	<circle id="E4:95:6E:4E:63:64" fill="#FF0606" cx="145.005" cy="61.964" r="0.5"/>
	<circle id="E4:95:6E:4C:09:EC" fill="#FF0606" cx="144.505" cy="35.054" r="0.5"/>
	<circle id="E4:95:6E:4E:63:03" fill="#FF0606" cx="171.649" cy="42.53" r="0.5"/>
</g>
<g id="展会大门">
	<g>
		<g>
			<text transform="matrix(1.0002 0 0 1 21.9556 17.4114)" fill="#020002" font-family="'Arial-BoldMT'" font-size="1.1921">6</text>
			<text transform="matrix(1.0002 0 0 1 22.626 17.408)" fill="#020002" font-family="'SimSun'" font-size="1.2146">号门</text>
		</g>
		<g>

				<line fill="none" stroke="#020002" stroke-width="0.01" stroke-linecap="square" stroke-miterlimit="10" x1="25.895" y1="15.945" x2="25.895" y2="13.669"/>

				<line fill="none" stroke="#020002" stroke-width="0.01" stroke-linecap="square" stroke-miterlimit="10" x1="25.827" y1="13.669" x2="25.827" y2="15.945"/>
			<polyline fill="none" stroke="#020002" stroke-width="0.01" stroke-linecap="square" stroke-miterlimit="10" points="
				23.619,13.669 23.708,14.367 24.047,15.021 24.542,15.516 25.196,15.832 25.895,15.945 			"/>

				<line fill="none" stroke="#020002" stroke-width="0.01" stroke-linecap="square" stroke-miterlimit="10" x1="21.32" y1="15.945" x2="21.32" y2="13.669"/>

				<line fill="none" stroke="#020002" stroke-width="0.01" stroke-linecap="square" stroke-miterlimit="10" x1="21.388" y1="13.669" x2="21.388" y2="15.945"/>
			<polyline fill="none" stroke="#020002" stroke-width="0.01" stroke-linecap="square" stroke-miterlimit="10" points="
				21.32,15.945 22.019,15.832 22.672,15.516 23.167,15.021 23.505,14.367 23.619,13.669 			"/>
		</g>
	</g>
	<g>
		<g>
			<text transform="matrix(1.0002 0 0 1 57.1611 17.4949)" fill="#050005" font-family="'Arial-BoldMT'" font-size="1.1921">7</text>
			<text transform="matrix(1.0002 0 0 1 57.8354 17.491)" fill="#050005" font-family="'SimSun'" font-size="1.2146">号门</text>
		</g>
		<g>

				<line fill="none" stroke="#020002" stroke-width="0.01" stroke-linecap="square" stroke-miterlimit="10" x1="60.859" y1="16.026" x2="60.859" y2="13.75"/>

				<line fill="none" stroke="#020002" stroke-width="0.01" stroke-linecap="square" stroke-miterlimit="10" x1="60.792" y1="13.75" x2="60.792" y2="16.026"/>
			<polyline fill="none" stroke="#020002" stroke-width="0.01" stroke-linecap="square" stroke-miterlimit="10" points="
				58.56,13.75 58.673,14.449 58.988,15.102 59.507,15.597 60.138,15.914 60.859,16.026 			"/>

				<line fill="none" stroke="#020002" stroke-width="0.01" stroke-linecap="square" stroke-miterlimit="10" x1="56.262" y1="16.026" x2="56.262" y2="13.75"/>

				<line fill="none" stroke="#020002" stroke-width="0.01" stroke-linecap="square" stroke-miterlimit="10" x1="56.329" y1="13.75" x2="56.329" y2="16.026"/>
			<polyline fill="none" stroke="#020002" stroke-width="0.01" stroke-linecap="square" stroke-miterlimit="10" points="
				56.262,16.026 56.982,15.914 57.613,15.597 58.133,15.102 58.448,14.449 58.56,13.75 			"/>
		</g>
	</g>
	<g>
		<g>
			<text transform="matrix(1.0002 0 0 1 94.2007 17.449)" fill="#020002" font-family="'Arial-BoldMT'" font-size="1.1921">8</text>
			<text transform="matrix(1.0002 0 0 1 94.8745 17.4534)" fill="#020002" font-family="'SimSun'" font-size="1.2146">号门</text>
		</g>
		<g>

				<line fill="none" stroke="#050005" stroke-width="0.01" stroke-linecap="square" stroke-miterlimit="10" x1="97.974" y1="15.983" x2="97.974" y2="13.707"/>

				<line fill="none" stroke="#050005" stroke-width="0.01" stroke-linecap="square" stroke-miterlimit="10" x1="97.904" y1="13.707" x2="97.904" y2="15.983"/>
			<polyline fill="none" stroke="#050005" stroke-width="0.01" stroke-linecap="square" stroke-miterlimit="10" points="
				95.673,13.707 95.789,14.406 96.125,15.059 96.621,15.554 97.275,15.871 97.974,15.983 			"/>

				<line fill="none" stroke="#050005" stroke-width="0.01" stroke-linecap="square" stroke-miterlimit="10" x1="93.398" y1="15.983" x2="93.398" y2="13.707"/>

				<line fill="none" stroke="#050005" stroke-width="0.01" stroke-linecap="square" stroke-miterlimit="10" x1="93.466" y1="13.707" x2="93.466" y2="15.983"/>
			<polyline fill="none" stroke="#050005" stroke-width="0.01" stroke-linecap="square" stroke-miterlimit="10" points="
				93.398,15.983 94.097,15.871 94.728,15.554 95.246,15.059 95.562,14.406 95.673,13.707 			"/>
		</g>
	</g>
	<g>
		<g>
			<text transform="matrix(1.0002 0 0 1 129.6558 17.4441)" fill="#020002" font-family="'Arial-BoldMT'" font-size="1.1921">9</text>
			<text transform="matrix(1.0002 0 0 1 130.3315 17.448)" fill="#020002" font-family="'SimSun'" font-size="1.2146">号门</text>
		</g>
		<g>

				<line fill="none" stroke="#050005" stroke-width="0.01" stroke-linecap="square" stroke-miterlimit="10" x1="133.304" y1="15.983" x2="133.304" y2="13.707"/>

				<line fill="none" stroke="#050005" stroke-width="0.01" stroke-linecap="square" stroke-miterlimit="10" x1="133.238" y1="13.707" x2="133.238" y2="15.983"/>
			<polyline fill="none" stroke="#050005" stroke-width="0.01" stroke-linecap="square" stroke-miterlimit="10" points="
				131.029,13.707 131.142,14.406 131.458,15.037 131.953,15.554 132.607,15.871 133.304,15.983 			"/>

				<line fill="none" stroke="#050005" stroke-width="0.01" stroke-linecap="square" stroke-miterlimit="10" x1="128.732" y1="15.983" x2="128.732" y2="13.707"/>

				<line fill="none" stroke="#050005" stroke-width="0.01" stroke-linecap="square" stroke-miterlimit="10" x1="128.798" y1="13.707" x2="128.798" y2="15.983"/>
			<polyline fill="none" stroke="#050005" stroke-width="0.01" stroke-linecap="square" stroke-miterlimit="10" points="
				128.732,15.983 129.431,15.871 130.085,15.554 130.578,15.037 130.914,14.406 131.029,13.707 			"/>
		</g>
	</g>
	<g>
		<g>
			<text transform="matrix(1.0002 0 0 1 166.1646 17.4534)" fill="#020002" font-family="'Arial-BoldMT'" font-size="1.1921">10</text>
			<text transform="matrix(1.0002 0 0 1 167.3687 17.4197)" fill="#020002" font-family="'SimSun'" font-size="1.2146">号门</text>
		</g>
		<g>

				<line fill="none" stroke="#020002" stroke-width="0.01" stroke-linecap="square" stroke-miterlimit="10" x1="170.345" y1="16.006" x2="170.345" y2="13.707"/>

				<line fill="none" stroke="#020002" stroke-width="0.01" stroke-linecap="square" stroke-miterlimit="10" x1="170.277" y1="13.707" x2="170.277" y2="16.006"/>
			<polyline fill="none" stroke="#020002" stroke-width="0.01" stroke-linecap="square" stroke-miterlimit="10" points="
				168.042,13.707 168.158,14.405 168.472,15.059 168.992,15.554 169.623,15.892 170.345,16.006 			"/>

				<line fill="none" stroke="#020002" stroke-width="0.01" stroke-linecap="square" stroke-miterlimit="10" x1="165.748" y1="16.006" x2="165.748" y2="13.707"/>

				<line fill="none" stroke="#020002" stroke-width="0.01" stroke-linecap="square" stroke-miterlimit="10" x1="165.818" y1="13.707" x2="165.818" y2="16.006"/>
			<polyline fill="none" stroke="#020002" stroke-width="0.01" stroke-linecap="square" stroke-miterlimit="10" points="
				165.748,16.006 166.466,15.892 167.099,15.554 167.617,15.059 167.931,14.405 168.042,13.707 			"/>
		</g>
	</g>
	<g>
		<g>
			<text transform="matrix(1.0002 0 0 1 21.769 80.2273)" fill="#020002" font-family="'Arial-BoldMT'" font-size="1.1921">1</text>
			<text transform="matrix(1.0002 0 0 1 22.4238 80.2253)" fill="#020002" font-family="'SimSun'" font-size="1.2146">号门</text>
		</g>
		<g>

				<line fill="none" stroke="#000000" stroke-width="0.01" stroke-linecap="square" stroke-miterlimit="10" x1="25.521" y1="80.905" x2="25.521" y2="83.2"/>

				<line fill="none" stroke="#000000" stroke-width="0.01" stroke-linecap="square" stroke-miterlimit="10" x1="25.454" y1="83.2" x2="25.454" y2="80.905"/>
			<polyline fill="none" stroke="#000000" stroke-width="0.01" stroke-linecap="square" stroke-miterlimit="10" points="
				23.246,83.2 23.334,82.503 23.674,81.852 24.168,81.354 24.823,81.018 25.521,80.905 			"/>

				<line fill="none" stroke="#000000" stroke-width="0.01" stroke-linecap="square" stroke-miterlimit="10" x1="20.947" y1="80.905" x2="20.947" y2="83.2"/>

				<line fill="none" stroke="#000000" stroke-width="0.01" stroke-linecap="square" stroke-miterlimit="10" x1="21.015" y1="83.2" x2="21.015" y2="80.905"/>
			<polyline fill="none" stroke="#000000" stroke-width="0.01" stroke-linecap="square" stroke-miterlimit="10" points="
				20.947,80.905 21.646,81.018 22.299,81.354 22.794,81.852 23.132,82.503 23.246,83.2 			"/>
		</g>
	</g>
	<g>
		<g>
			<text transform="matrix(1.0002 0 0 1 57.0767 80.2195)" font-family="'Arial-BoldMT'" font-size="1.1921">2</text>
			<text transform="matrix(1.0002 0 0 1 57.7476 80.2175)" font-family="'SimSun'" font-size="1.2146">号门</text>
		</g>
		<g>

				<line fill="none" stroke="#020002" stroke-width="0.01" stroke-linecap="square" stroke-miterlimit="10" x1="60.86" y1="80.897" x2="60.86" y2="83.19"/>

				<line fill="none" stroke="#020002" stroke-width="0.01" stroke-linecap="square" stroke-miterlimit="10" x1="60.793" y1="83.19" x2="60.793" y2="80.897"/>
			<polyline fill="none" stroke="#020002" stroke-width="0.01" stroke-linecap="square" stroke-miterlimit="10" points="
				58.561,83.19 58.674,82.493 58.989,81.843 59.508,81.346 60.139,81.009 60.86,80.897 			"/>

				<line fill="none" stroke="#020002" stroke-width="0.01" stroke-linecap="square" stroke-miterlimit="10" x1="56.263" y1="80.897" x2="56.263" y2="83.19"/>

				<line fill="none" stroke="#020002" stroke-width="0.01" stroke-linecap="square" stroke-miterlimit="10" x1="56.33" y1="83.19" x2="56.33" y2="80.897"/>
			<polyline fill="none" stroke="#020002" stroke-width="0.01" stroke-linecap="square" stroke-miterlimit="10" points="
				56.263,80.897 56.983,81.009 57.614,81.346 58.134,81.843 58.449,82.493 58.561,83.19 			"/>
		</g>
	</g>
	<g>
		<g>
			<text transform="matrix(1.0002 0 0 1 93.8755 80.3816)" fill="#020002" font-family="'Arial-BoldMT'" font-size="1.1921">3</text>
			<text transform="matrix(1.0002 0 0 1 94.5522 80.3777)" fill="#020002" font-family="'SimSun'" font-size="1.2146">号门</text>
		</g>
		<g>

				<line fill="none" stroke="#020002" stroke-width="0.01" stroke-linecap="square" stroke-miterlimit="10" x1="97.652" y1="80.741" x2="97.652" y2="83.034"/>

				<line fill="none" stroke="#020002" stroke-width="0.01" stroke-linecap="square" stroke-miterlimit="10" x1="97.582" y1="83.034" x2="97.582" y2="80.741"/>
			<polyline fill="none" stroke="#020002" stroke-width="0.01" stroke-linecap="square" stroke-miterlimit="10" points="
				95.349,83.034 95.464,82.337 95.8,81.686 96.296,81.19 96.951,80.852 97.652,80.741 			"/>

				<line fill="none" stroke="#020002" stroke-width="0.01" stroke-linecap="square" stroke-miterlimit="10" x1="93.074" y1="80.741" x2="93.074" y2="83.034"/>

				<line fill="none" stroke="#020002" stroke-width="0.01" stroke-linecap="square" stroke-miterlimit="10" x1="93.142" y1="83.034" x2="93.142" y2="80.741"/>
			<polyline fill="none" stroke="#020002" stroke-width="0.01" stroke-linecap="square" stroke-miterlimit="10" points="
				93.074,80.741 93.773,80.852 94.406,81.19 94.921,81.686 95.238,82.337 95.349,83.034 			"/>
		</g>
	</g>
	<g>
		<g>
			<text transform="matrix(1.0002 0 0 1 129.2827 80.113)" fill="#020002" font-family="'Arial-BoldMT'" font-size="1.1921">4</text>
			<text transform="matrix(1.0002 0 0 1 129.9585 80.1101)" fill="#020002" font-family="'SimSun'" font-size="1.2146">号门</text>
		</g>
		<g>

				<line fill="none" stroke="#050005" stroke-width="0.01" stroke-linecap="square" stroke-miterlimit="10" x1="132.931" y1="80.966" x2="132.931" y2="83.237"/>

				<line fill="none" stroke="#050005" stroke-width="0.01" stroke-linecap="square" stroke-miterlimit="10" x1="132.865" y1="83.237" x2="132.865" y2="80.966"/>
			<polyline fill="none" stroke="#050005" stroke-width="0.01" stroke-linecap="square" stroke-miterlimit="10" points="
				130.656,83.237 130.769,82.54 131.085,81.889 131.58,81.393 132.234,81.077 132.931,80.966 			"/>

				<line fill="none" stroke="#050005" stroke-width="0.01" stroke-linecap="square" stroke-miterlimit="10" x1="128.359" y1="80.966" x2="128.359" y2="83.237"/>

				<line fill="none" stroke="#050005" stroke-width="0.01" stroke-linecap="square" stroke-miterlimit="10" x1="128.425" y1="83.237" x2="128.425" y2="80.966"/>
			<polyline fill="none" stroke="#050005" stroke-width="0.01" stroke-linecap="square" stroke-miterlimit="10" points="
				128.359,80.966 129.058,81.077 129.712,81.393 130.205,81.889 130.541,82.54 130.656,83.237 			"/>
		</g>
	</g>
	<g>
		<g>
			<text transform="matrix(1.0002 0 0 1 166.4995 80.7175)" fill="#020002" font-family="'Arial-BoldMT'" font-size="1.1921">5</text>
			<text transform="matrix(1.0002 0 0 1 167.2036 80.7156)" fill="#020002" font-family="'SimSun'" font-size="1.2146">号门</text>
		</g>
		<g>

				<line fill="none" stroke="#070007" stroke-width="0.01" stroke-linecap="square" stroke-miterlimit="10" x1="169.972" y1="81.212" x2="169.972" y2="83.51"/>

				<line fill="none" stroke="#070007" stroke-width="0.01" stroke-linecap="square" stroke-miterlimit="10" x1="169.904" y1="83.51" x2="169.904" y2="81.212"/>
			<polyline fill="none" stroke="#070007" stroke-width="0.01" stroke-linecap="square" stroke-miterlimit="10" points="
				167.669,83.51 167.785,82.788 168.099,82.157 168.619,81.641 169.25,81.323 169.972,81.212 			"/>

				<line fill="none" stroke="#070007" stroke-width="0.01" stroke-linecap="square" stroke-miterlimit="10" x1="165.375" y1="81.212" x2="165.375" y2="83.51"/>

				<line fill="none" stroke="#070007" stroke-width="0.01" stroke-linecap="square" stroke-miterlimit="10" x1="165.445" y1="83.51" x2="165.445" y2="81.212"/>
			<polyline fill="none" stroke="#070007" stroke-width="0.01" stroke-linecap="square" stroke-miterlimit="10" points="
				165.375,81.212 166.093,81.323 166.726,81.641 167.244,82.157 167.558,82.788 167.669,83.51 			"/>
		</g>
	</g>
</g>
</svg>
