<?xml version="1.0" encoding="utf-8"?>
<!-- Generator: Adobe Illustrator 16.0.0, SVG Export Plug-In . SVG Version: 6.00 Build 0)  -->
<!DOCTYPE svg PUBLIC "-//W3C//DTD SVG 1.1//EN" "http://www.w3.org/Graphics/SVG/1.1/DTD/svg11.dtd">
<svg version="1.1" id="图层_1" xmlns="http://www.w3.org/2000/svg" xmlns:xlink="http://www.w3.org/1999/xlink" x="0px" y="0px"
	 width="197.8px" height="70px" viewBox="0 0 197.8 70" enable-background="new 0 0 197.8 70" xml:space="preserve">
<g id="LUNKUO-01">
	<g id="LWPOLYLINE">
		
			<polygon fill="#FCFBE3" stroke="#020000" stroke-width="0.01" stroke-linecap="round" stroke-linejoin="round" stroke-miterlimit="10" points="
			-0.02,4.934 -0.02,65.025 -0.02,70.073 6.252,70.073 166.083,70.073 191.789,70.073 191.789,65.046 198.02,65.046 198.02,4.934 
			191.789,4.934 191.789,-0.073 177.99,-0.073 6.252,-0.073 -0.02,-0.073 		"/>
	</g>
</g>
<g id="障碍物">
	<g id="LWPOLYLINE_1_">
		
			<polygon fill="#DDDDDD" stroke="#020000" stroke-width="0.01" stroke-linecap="round" stroke-linejoin="round" stroke-miterlimit="10" points="
			0.041,-0.023 10.354,-0.023 10.354,19.868 10.354,27.463 10.354,50.063 10.354,50.299 10.354,69.923 0.041,69.923 		"/>
	</g>
	<g id="LWPOLYLINE_2_">
		
			<polygon fill="#DDDDDD" stroke="#020000" stroke-width="0.01" stroke-linecap="round" stroke-linejoin="round" stroke-miterlimit="10" points="
			189.626,7.083 189.626,12.34 187.423,12.34 187.423,57.659 189.626,57.659 189.626,64.875 197.869,64.875 197.869,5.125 
			191.769,5.125 191.769,7.083 		"/>
	</g>
</g>
<g id="楼梯">
	<g id="LWPOLYLINE_3_">
		
			<rect x="184.729" y="65.896" fill="#C9F3F7" stroke="#000002" stroke-width="0.01" stroke-linecap="round" stroke-linejoin="round" stroke-miterlimit="10" width="6.209" height="3.055"/>
	</g>
	<g id="LWPOLYLINE_4_">
		
			<rect x="184.729" y="1.199" fill="#C9F3F7" stroke="#000002" stroke-width="0.01" stroke-linecap="round" stroke-linejoin="round" stroke-miterlimit="10" width="6.209" height="3.055"/>
	</g>
</g>
<g id="展会店铺">
	<g id="LWPOLYLINE_5_">
		
			<rect x="12.558" y="11.479" fill="#FFDEC7" stroke="#000000" stroke-width="0.01" stroke-linecap="round" stroke-linejoin="round" stroke-miterlimit="10" width="8.012" height="8.012"/>
	</g>
	<g id="LWPOLYLINE_6_">
		
			<rect x="12.558" y="22.996" fill="#FFDEC7" stroke="#000000" stroke-width="0.01" stroke-linecap="round" stroke-linejoin="round" stroke-miterlimit="10" width="8.012" height="9.014"/>
	</g>
	<g id="LWPOLYLINE_7_">
		
			<rect x="12.558" y="38.02" fill="#FFDEC7" stroke="#000000" stroke-width="0.01" stroke-linecap="round" stroke-linejoin="round" stroke-miterlimit="10" width="8.012" height="9.016"/>
	</g>
	<g id="LWPOLYLINE_8_">
		
			<rect x="12.558" y="50.037" fill="#FFDEC7" stroke="#000000" stroke-width="0.01" stroke-linecap="round" stroke-linejoin="round" stroke-miterlimit="10" width="8.012" height="9.014"/>
	</g>
	<g id="LWPOLYLINE_9_">
		
			<rect x="26.579" y="7.974" fill="#FFDEC7" stroke="#000000" stroke-width="0.01" stroke-linecap="round" stroke-linejoin="round" stroke-miterlimit="10" width="9.014" height="6.009"/>
	</g>
	<g id="LWPOLYLINE_10_">
		
			<rect x="26.579" y="13.982" fill="#FFDEC7" stroke="#000000" stroke-width="0.01" stroke-linecap="round" stroke-linejoin="round" stroke-miterlimit="10" width="9.014" height="6.009"/>
	</g>
	<g id="LWPOLYLINE_11_">
		
			<rect x="38.597" y="7.974" fill="#FFDEC7" stroke="#000000" stroke-width="0.01" stroke-linecap="round" stroke-linejoin="round" stroke-miterlimit="10" width="6.009" height="6.009"/>
	</g>
	<g id="LWPOLYLINE_12_">
		
			<rect x="38.597" y="13.982" fill="#FFDEC7" stroke="#000000" stroke-width="0.01" stroke-linecap="round" stroke-linejoin="round" stroke-miterlimit="10" width="6.009" height="6.009"/>
	</g>
	<g id="LWPOLYLINE_13_">
		
			<rect x="48.112" y="7.974" fill="#FFDEC7" stroke="#000000" stroke-width="0.01" stroke-linecap="round" stroke-linejoin="round" stroke-miterlimit="10" width="6.009" height="6.009"/>
	</g>
	<g id="LWPOLYLINE_14_">
		
			<rect x="57.125" y="7.974" fill="#FFDEC7" stroke="#000000" stroke-width="0.01" stroke-linecap="round" stroke-linejoin="round" stroke-miterlimit="10" width="12.018" height="6.009"/>
	</g>
	<g id="LWPOLYLINE_15_">
		
			<rect x="31.286" y="1.967" fill="#FFDEC7" stroke="#000000" stroke-width="0.01" stroke-linecap="round" stroke-linejoin="round" stroke-miterlimit="10" width="9.014" height="2.995"/>
	</g>
	<g id="LWPOLYLINE_16_">
		
			<rect x="40.3" y="1.967" fill="#FFDEC7" stroke="#000000" stroke-width="0.01" stroke-linecap="round" stroke-linejoin="round" stroke-miterlimit="10" width="6.009" height="3.004"/>
	</g>
	<g id="LWPOLYLINE_17_">
		
			<rect x="46.309" y="1.967" fill="#FFDEC7" stroke="#000000" stroke-width="0.01" stroke-linecap="round" stroke-linejoin="round" stroke-miterlimit="10" width="6.009" height="3.004"/>
	</g>
	<g id="LWPOLYLINE_18_">
		
			<rect x="52.318" y="1.967" fill="#FFDEC7" stroke="#000000" stroke-width="0.01" stroke-linecap="round" stroke-linejoin="round" stroke-miterlimit="10" width="3.004" height="3.004"/>
	</g>
	<g id="LWPOLYLINE_19_">
		
			<rect x="55.323" y="1.967" fill="#FFDEC7" stroke="#000000" stroke-width="0.01" stroke-linecap="round" stroke-linejoin="round" stroke-miterlimit="10" width="3.004" height="3.004"/>
	</g>
	<g id="LWPOLYLINE_20_">
		
			<rect x="58.327" y="1.967" fill="#FFDEC7" stroke="#000000" stroke-width="0.01" stroke-linecap="round" stroke-linejoin="round" stroke-miterlimit="10" width="6.009" height="3.004"/>
	</g>
	<g id="LWPOLYLINE_21_">
		
			<rect x="48.112" y="16.984" fill="#FFDEC7" stroke="#000000" stroke-width="0.01" stroke-linecap="round" stroke-linejoin="round" stroke-miterlimit="10" width="6.009" height="6.012"/>
	</g>
	<g id="LWPOLYLINE_22_">
		
			<rect x="57.125" y="16.987" fill="#FFDEC7" stroke="#000000" stroke-width="0.01" stroke-linecap="round" stroke-linejoin="round" stroke-miterlimit="10" width="6.009" height="6.009"/>
	</g>
	<g id="LWPOLYLINE_23_">
		
			<rect x="63.134" y="16.987" fill="#FFDEC7" stroke="#000000" stroke-width="0.01" stroke-linecap="round" stroke-linejoin="round" stroke-miterlimit="10" width="6.009" height="6.009"/>
	</g>
	<g id="LWPOLYLINE_24_">
		
			<rect x="26.579" y="23.497" fill="#FFDEC7" stroke="#000000" stroke-width="0.01" stroke-linecap="round" stroke-linejoin="round" stroke-miterlimit="10" width="18.028" height="8.513"/>
	</g>
	<g id="LWPOLYLINE_25_">
		
			<rect x="48.112" y="26.001" fill="#FFDEC7" stroke="#000000" stroke-width="0.01" stroke-linecap="round" stroke-linejoin="round" stroke-miterlimit="10" width="9.014" height="6.009"/>
	</g>
	<g id="LWPOLYLINE_26_">
		
			<rect x="60.631" y="26.001" fill="#FFDEC7" stroke="#000000" stroke-width="0.01" stroke-linecap="round" stroke-linejoin="round" stroke-miterlimit="10" width="8.012" height="6.009"/>
	</g>
	<g id="LWPOLYLINE_27_">
		
			<rect x="26.579" y="38.02" fill="#FFDEC7" stroke="#000000" stroke-width="0.01" stroke-linecap="round" stroke-linejoin="round" stroke-miterlimit="10" width="12.019" height="10.017"/>
	</g>
	<g id="LWPOLYLINE_28_">
		
			<rect x="41.602" y="38.02" fill="#FFDEC7" stroke="#000000" stroke-width="0.01" stroke-linecap="round" stroke-linejoin="round" stroke-miterlimit="10" width="6.009" height="6.011"/>
	</g>
	<g id="LWPOLYLINE_29_">
		
			<rect x="47.611" y="38.02" fill="#FFDEC7" stroke="#000000" stroke-width="0.01" stroke-linecap="round" stroke-linejoin="round" stroke-miterlimit="10" width="6.009" height="6.011"/>
	</g>
	<g id="LWPOLYLINE_30_">
		
			<rect x="56.625" y="38.02" fill="#FFDEC7" stroke="#000000" stroke-width="0.01" stroke-linecap="round" stroke-linejoin="round" stroke-miterlimit="10" width="12.018" height="6.011"/>
	</g>
	<g id="LWPOLYLINE_31_">
		
			<rect x="41.602" y="48.034" fill="#FFDEC7" stroke="#000000" stroke-width="0.01" stroke-linecap="round" stroke-linejoin="round" stroke-miterlimit="10" width="12.019" height="4.507"/>
	</g>
	<g id="LWPOLYLINE_32_">
		
			<rect x="56.625" y="47.033" fill="#FFDEC7" stroke="#000000" stroke-width="0.01" stroke-linecap="round" stroke-linejoin="round" stroke-miterlimit="10" width="12.019" height="6.009"/>
	</g>
	<g id="LWPOLYLINE_33_">
		
			<rect x="26.579" y="52.04" fill="#FFDEC7" stroke="#000000" stroke-width="0.01" stroke-linecap="round" stroke-linejoin="round" stroke-miterlimit="10" width="12.019" height="10.017"/>
	</g>
	<g id="LWPOLYLINE_34_">
		
			<rect x="41.602" y="56.047" fill="#FFDEC7" stroke="#000000" stroke-width="0.01" stroke-linecap="round" stroke-linejoin="round" stroke-miterlimit="10" width="6.009" height="6.01"/>
	</g>
	<g id="LWPOLYLINE_35_">
		
			<rect x="47.611" y="56.047" fill="#FFDEC7" stroke="#000000" stroke-width="0.01" stroke-linecap="round" stroke-linejoin="round" stroke-miterlimit="10" width="6.009" height="6.01"/>
	</g>
	<g id="LWPOLYLINE_36_">
		
			<rect x="56.625" y="56.047" fill="#FFDEC7" stroke="#000000" stroke-width="0.01" stroke-linecap="round" stroke-linejoin="round" stroke-miterlimit="10" width="12.019" height="6.01"/>
	</g>
	<g id="LWPOLYLINE_37_">
		
			<rect x="32.788" y="65.064" fill="#FFDEC7" stroke="#000000" stroke-width="0.01" stroke-linecap="round" stroke-linejoin="round" stroke-miterlimit="10" width="6.009" height="3.004"/>
	</g>
	<g id="LWPOLYLINE_38_">
		
			<rect x="38.797" y="65.064" fill="#FFDEC7" stroke="#000000" stroke-width="0.01" stroke-linecap="round" stroke-linejoin="round" stroke-miterlimit="10" width="3.004" height="3.004"/>
	</g>
	<g id="LWPOLYLINE_39_">
		
			<rect x="41.802" y="65.064" fill="#FFDEC7" stroke="#000000" stroke-width="0.01" stroke-linecap="round" stroke-linejoin="round" stroke-miterlimit="10" width="6.009" height="3.004"/>
	</g>
	<g id="LWPOLYLINE_40_">
		
			<rect x="47.811" y="65.064" fill="#FFDEC7" stroke="#000000" stroke-width="0.01" stroke-linecap="round" stroke-linejoin="round" stroke-miterlimit="10" width="3.005" height="3.004"/>
	</g>
	<g id="LWPOLYLINE_41_">
		
			<rect x="50.816" y="65.064" fill="#FFDEC7" stroke="#000000" stroke-width="0.01" stroke-linecap="round" stroke-linejoin="round" stroke-miterlimit="10" width="6.009" height="3.004"/>
	</g>
	<g id="LWPOLYLINE_42_">
		
			<rect x="56.825" y="65.064" fill="#FFDEC7" stroke="#000000" stroke-width="0.01" stroke-linecap="round" stroke-linejoin="round" stroke-miterlimit="10" width="6.009" height="3.004"/>
	</g>
	<g id="LWPOLYLINE_43_">
		
			<rect x="77.857" y="1.96" fill="#FFDEC7" stroke="#000000" stroke-width="0.01" stroke-linecap="round" stroke-linejoin="round" stroke-miterlimit="10" width="6.009" height="3.004"/>
	</g>
	<g id="LWPOLYLINE_44_">
		
			<rect x="83.866" y="1.96" fill="#FFDEC7" stroke="#000000" stroke-width="0.01" stroke-linecap="round" stroke-linejoin="round" stroke-miterlimit="10" width="6.009" height="3.004"/>
	</g>
	<g id="LWPOLYLINE_45_">
		
			<rect x="89.875" y="1.96" fill="#FFDEC7" stroke="#000000" stroke-width="0.01" stroke-linecap="round" stroke-linejoin="round" stroke-miterlimit="10" width="6.009" height="3.004"/>
	</g>
	<g id="LWPOLYLINE_46_">
		
			<rect x="95.884" y="1.96" fill="#FFDEC7" stroke="#000000" stroke-width="0.01" stroke-linecap="round" stroke-linejoin="round" stroke-miterlimit="10" width="6.009" height="3.004"/>
	</g>
	<g id="LWPOLYLINE_47_">
		
			<rect x="74.652" y="7.974" fill="#FFDEC7" stroke="#000000" stroke-width="0.01" stroke-linecap="round" stroke-linejoin="round" stroke-miterlimit="10" width="9.014" height="6.009"/>
	</g>
	<g id="LWPOLYLINE_48_">
		
			<rect x="83.666" y="7.974" fill="#FFDEC7" stroke="#000000" stroke-width="0.01" stroke-linecap="round" stroke-linejoin="round" stroke-miterlimit="10" width="6.009" height="6.009"/>
	</g>
	<g id="LWPOLYLINE_49_">
		
			<rect x="92.679" y="7.974" fill="#FFDEC7" stroke="#000000" stroke-width="0.01" stroke-linecap="round" stroke-linejoin="round" stroke-miterlimit="10" width="3.005" height="6.009"/>
	</g>
	<g id="LWPOLYLINE_50_">
		
			<rect x="95.684" y="7.974" fill="#FFDEC7" stroke="#000000" stroke-width="0.01" stroke-linecap="round" stroke-linejoin="round" stroke-miterlimit="10" width="9.013" height="6.009"/>
	</g>
	<g id="LWPOLYLINE_51_">
		
			<rect x="74.652" y="16.386" fill="#FFDEC7" stroke="#000000" stroke-width="0.01" stroke-linecap="round" stroke-linejoin="round" stroke-miterlimit="10" width="9.014" height="6.009"/>
	</g>
	<g id="LWPOLYLINE_52_">
		
			<rect x="83.666" y="16.386" fill="#FFDEC7" stroke="#000000" stroke-width="0.01" stroke-linecap="round" stroke-linejoin="round" stroke-miterlimit="10" width="6.009" height="6.009"/>
	</g>
	<g id="LWPOLYLINE_53_">
		
			<rect x="92.679" y="16.737" fill="#FFDEC7" stroke="#000000" stroke-width="0.01" stroke-linecap="round" stroke-linejoin="round" stroke-miterlimit="10" width="12.018" height="4.507"/>
	</g>
	<g id="LWPOLYLINE_54_">
		
			<rect x="74.652" y="24.799" fill="#FFDEC7" stroke="#000000" stroke-width="0.01" stroke-linecap="round" stroke-linejoin="round" stroke-miterlimit="10" width="15.023" height="7.211"/>
	</g>
	<g id="LWPOLYLINE_55_">
		
			<rect x="92.679" y="24.499" fill="#FFDEC7" stroke="#000000" stroke-width="0.01" stroke-linecap="round" stroke-linejoin="round" stroke-miterlimit="10" width="12.018" height="7.511"/>
	</g>
	<g id="LWPOLYLINE_56_">
		
			<rect x="74.652" y="38.02" fill="#FFDEC7" stroke="#000000" stroke-width="0.01" stroke-linecap="round" stroke-linejoin="round" stroke-miterlimit="10" width="15.023" height="7.211"/>
	</g>
	<g id="LWPOLYLINE_57_">
		
			<rect x="92.679" y="38.02" fill="#FFDEC7" stroke="#000000" stroke-width="0.01" stroke-linecap="round" stroke-linejoin="round" stroke-miterlimit="10" width="12.018" height="9.016"/>
	</g>
	<g id="LWPOLYLINE_58_">
		
			<rect x="74.652" y="47.634" fill="#FFDEC7" stroke="#000000" stroke-width="0.01" stroke-linecap="round" stroke-linejoin="round" stroke-miterlimit="10" width="12.019" height="6.009"/>
	</g>
	<g id="LWPOLYLINE_59_">
		
			<rect x="90.282" y="49.036" fill="#FFDEC7" stroke="#000000" stroke-width="0.01" stroke-linecap="round" stroke-linejoin="round" stroke-miterlimit="10" width="7.211" height="5.008"/>
	</g>
	<g id="LWPOLYLINE_60_">
		
			<rect x="97.493" y="49.036" fill="#FFDEC7" stroke="#000000" stroke-width="0.01" stroke-linecap="round" stroke-linejoin="round" stroke-miterlimit="10" width="7.211" height="5.008"/>
	</g>
	<g id="LWPOLYLINE_61_">
		
			<rect x="74.652" y="56.047" fill="#FFDEC7" stroke="#000000" stroke-width="0.01" stroke-linecap="round" stroke-linejoin="round" stroke-miterlimit="10" width="12.019" height="6.01"/>
	</g>
	<g id="LWPOLYLINE_62_">
		
			<rect x="89.709" y="56.047" fill="#FFDEC7" stroke="#000000" stroke-width="0.01" stroke-linecap="round" stroke-linejoin="round" stroke-miterlimit="10" width="6.009" height="6.01"/>
	</g>
	<g id="LWPOLYLINE_63_">
		
			<rect x="95.719" y="56.047" fill="#FFDEC7" stroke="#000000" stroke-width="0.01" stroke-linecap="round" stroke-linejoin="round" stroke-miterlimit="10" width="9.014" height="6.01"/>
	</g>
	<g id="LWPOLYLINE_64_">
		
			<rect x="77.857" y="65.064" fill="#FFDEC7" stroke="#000000" stroke-width="0.01" stroke-linecap="round" stroke-linejoin="round" stroke-miterlimit="10" width="6.009" height="3.004"/>
	</g>
	<g id="LWPOLYLINE_65_">
		
			<rect x="83.866" y="65.064" fill="#FFDEC7" stroke="#000000" stroke-width="0.01" stroke-linecap="round" stroke-linejoin="round" stroke-miterlimit="10" width="6.009" height="3.004"/>
	</g>
	<g id="LWPOLYLINE_66_">
		
			<rect x="89.875" y="65.064" fill="#FFDEC7" stroke="#000000" stroke-width="0.01" stroke-linecap="round" stroke-linejoin="round" stroke-miterlimit="10" width="6.009" height="3.004"/>
	</g>
	<g id="LWPOLYLINE_67_">
		
			<rect x="95.884" y="65.064" fill="#FFDEC7" stroke="#000000" stroke-width="0.01" stroke-linecap="round" stroke-linejoin="round" stroke-miterlimit="10" width="6.009" height="3.004"/>
	</g>
	<g id="LWPOLYLINE_68_">
		
			<rect x="113.912" y="1.96" fill="#FFDEC7" stroke="#000000" stroke-width="0.01" stroke-linecap="round" stroke-linejoin="round" stroke-miterlimit="10" width="6.01" height="3.004"/>
	</g>
	<g id="LWPOLYLINE_69_">
		
			<rect x="119.921" y="1.96" fill="#FFDEC7" stroke="#000000" stroke-width="0.01" stroke-linecap="round" stroke-linejoin="round" stroke-miterlimit="10" width="6.009" height="3.004"/>
	</g>
	<g id="LWPOLYLINE_70_">
		
			<rect x="125.93" y="1.96" fill="#FFDEC7" stroke="#000000" stroke-width="0.01" stroke-linecap="round" stroke-linejoin="round" stroke-miterlimit="10" width="6.01" height="3.004"/>
	</g>
	<g id="LWPOLYLINE_71_">
		
			<rect x="131.939" y="1.96" fill="#FFDEC7" stroke="#000000" stroke-width="0.01" stroke-linecap="round" stroke-linejoin="round" stroke-miterlimit="10" width="6.01" height="3.004"/>
	</g>
	<g id="LWPOLYLINE_72_">
		
			<rect x="110.71" y="7.974" fill="#FFDEC7" stroke="#000000" stroke-width="0.01" stroke-linecap="round" stroke-linejoin="round" stroke-miterlimit="10" width="6.01" height="6.009"/>
	</g>
	<g id="LWPOLYLINE_73_">
		
			<rect x="119.721" y="7.974" fill="#FFDEC7" stroke="#000000" stroke-width="0.01" stroke-linecap="round" stroke-linejoin="round" stroke-miterlimit="10" width="6.009" height="6.009"/>
	</g>
	<g id="LWPOLYLINE_74_">
		
			<rect x="128.734" y="7.974" fill="#FFDEC7" stroke="#000000" stroke-width="0.01" stroke-linecap="round" stroke-linejoin="round" stroke-miterlimit="10" width="6.01" height="6.009"/>
	</g>
	<g id="LWPOLYLINE_75_">
		
			<rect x="134.744" y="7.974" fill="#FFDEC7" stroke="#000000" stroke-width="0.01" stroke-linecap="round" stroke-linejoin="round" stroke-miterlimit="10" width="6.01" height="6.009"/>
	</g>
	<g id="LWPOLYLINE_76_">
		
			<rect x="110.707" y="16.987" fill="#FFDEC7" stroke="#000000" stroke-width="0.01" stroke-linecap="round" stroke-linejoin="round" stroke-miterlimit="10" width="9.016" height="6.009"/>
	</g>
	<g id="LWPOLYLINE_77_">
		
			<rect x="119.721" y="16.987" fill="#FFDEC7" stroke="#000000" stroke-width="0.01" stroke-linecap="round" stroke-linejoin="round" stroke-miterlimit="10" width="6.009" height="6.009"/>
	</g>
	<g id="LWPOLYLINE_78_">
		
			<rect x="128.73" y="16.991" fill="#FFDEC7" stroke="#000000" stroke-width="0.01" stroke-linecap="round" stroke-linejoin="round" stroke-miterlimit="10" width="6.009" height="6.009"/>
	</g>
	<g id="LWPOLYLINE_79_">
		
			<rect x="134.739" y="16.991" fill="#FFDEC7" stroke="#000000" stroke-width="0.01" stroke-linecap="round" stroke-linejoin="round" stroke-miterlimit="10" width="6.011" height="6.009"/>
	</g>
	<g id="LWPOLYLINE_80_">
		
			<rect x="110.707" y="26.001" fill="#FFDEC7" stroke="#000000" stroke-width="0.01" stroke-linecap="round" stroke-linejoin="round" stroke-miterlimit="10" width="15.022" height="6.009"/>
	</g>
	<g id="LWPOLYLINE_81_">
		
			<rect x="128.734" y="26.001" fill="#FFDEC7" stroke="#000000" stroke-width="0.01" stroke-linecap="round" stroke-linejoin="round" stroke-miterlimit="10" width="12.02" height="6.009"/>
	</g>
	<g id="LWPOLYLINE_82_">
		
			<rect x="110.707" y="38.02" fill="#FFDEC7" stroke="#000000" stroke-width="0.01" stroke-linecap="round" stroke-linejoin="round" stroke-miterlimit="10" width="15.022" height="7.211"/>
	</g>
	<g id="LWPOLYLINE_83_">
		
			<rect x="128.734" y="38.02" fill="#FFDEC7" stroke="#000000" stroke-width="0.01" stroke-linecap="round" stroke-linejoin="round" stroke-miterlimit="10" width="12.02" height="7.513"/>
	</g>
	<g id="LWPOLYLINE_84_">
		
			<rect x="110.707" y="47.613" fill="#FFDEC7" stroke="#000000" stroke-width="0.01" stroke-linecap="round" stroke-linejoin="round" stroke-miterlimit="10" width="6.01" height="6.01"/>
	</g>
	<g id="LWPOLYLINE_85_">
		
			<rect x="116.716" y="47.613" fill="#FFDEC7" stroke="#000000" stroke-width="0.01" stroke-linecap="round" stroke-linejoin="round" stroke-miterlimit="10" width="3.005" height="3.005"/>
	</g>
	<g id="LWPOLYLINE_86_">
		
			<rect x="116.716" y="50.618" fill="#FFDEC7" stroke="#000000" stroke-width="0.01" stroke-linecap="round" stroke-linejoin="round" stroke-miterlimit="10" width="3.005" height="3.005"/>
	</g>
	<g id="LWPOLYLINE_87_">
		
			<rect x="119.721" y="47.613" fill="#FFDEC7" stroke="#000000" stroke-width="0.01" stroke-linecap="round" stroke-linejoin="round" stroke-miterlimit="10" width="6.009" height="6.01"/>
	</g>
	<g id="LWPOLYLINE_88_">
		
			<rect x="128.734" y="47.744" fill="#FFDEC7" stroke="#000000" stroke-width="0.01" stroke-linecap="round" stroke-linejoin="round" stroke-miterlimit="10" width="6.01" height="6.009"/>
	</g>
	<g id="LWPOLYLINE_89_">
		
			<rect x="134.744" y="47.744" fill="#FFDEC7" stroke="#000000" stroke-width="0.01" stroke-linecap="round" stroke-linejoin="round" stroke-miterlimit="10" width="6.01" height="6.009"/>
	</g>
	<g id="LWPOLYLINE_90_">
		
			<rect x="110.707" y="56.047" fill="#FFDEC7" stroke="#000000" stroke-width="0.01" stroke-linecap="round" stroke-linejoin="round" stroke-miterlimit="10" width="6.01" height="6.01"/>
	</g>
	<g id="LWPOLYLINE_91_">
		
			<rect x="116.716" y="56.047" fill="#FFDEC7" stroke="#000000" stroke-width="0.01" stroke-linecap="round" stroke-linejoin="round" stroke-miterlimit="10" width="3.005" height="3.004"/>
	</g>
	<g id="LWPOLYLINE_92_">
		
			<rect x="116.716" y="59.051" fill="#FFDEC7" stroke="#000000" stroke-width="0.01" stroke-linecap="round" stroke-linejoin="round" stroke-miterlimit="10" width="3.005" height="3.006"/>
	</g>
	<g id="LWPOLYLINE_93_">
		
			<rect x="119.721" y="56.047" fill="#FFDEC7" stroke="#000000" stroke-width="0.01" stroke-linecap="round" stroke-linejoin="round" stroke-miterlimit="10" width="6.009" height="6.01"/>
	</g>
	<g id="LWPOLYLINE_94_">
		
			<rect x="128.734" y="56.047" fill="#FFDEC7" stroke="#000000" stroke-width="0.01" stroke-linecap="round" stroke-linejoin="round" stroke-miterlimit="10" width="6.01" height="6.01"/>
	</g>
	<g id="LWPOLYLINE_95_">
		
			<rect x="134.744" y="56.047" fill="#FFDEC7" stroke="#000000" stroke-width="0.01" stroke-linecap="round" stroke-linejoin="round" stroke-miterlimit="10" width="6.01" height="6.01"/>
	</g>
	<g id="LWPOLYLINE_96_">
		
			<rect x="113.912" y="65.064" fill="#FFDEC7" stroke="#000000" stroke-width="0.01" stroke-linecap="round" stroke-linejoin="round" stroke-miterlimit="10" width="6.01" height="3.004"/>
	</g>
	<g id="LWPOLYLINE_97_">
		
			<rect x="119.921" y="65.064" fill="#FFDEC7" stroke="#000000" stroke-width="0.01" stroke-linecap="round" stroke-linejoin="round" stroke-miterlimit="10" width="6.009" height="3.004"/>
	</g>
	<g id="LWPOLYLINE_98_">
		
			<rect x="125.93" y="65.064" fill="#FFDEC7" stroke="#000000" stroke-width="0.01" stroke-linecap="round" stroke-linejoin="round" stroke-miterlimit="10" width="3.005" height="3.004"/>
	</g>
	<g id="LWPOLYLINE_99_">
		
			<rect x="128.935" y="65.064" fill="#FFDEC7" stroke="#000000" stroke-width="0.01" stroke-linecap="round" stroke-linejoin="round" stroke-miterlimit="10" width="3.005" height="3.004"/>
	</g>
	<g id="LWPOLYLINE_100_">
		
			<rect x="131.939" y="65.064" fill="#FFDEC7" stroke="#000000" stroke-width="0.01" stroke-linecap="round" stroke-linejoin="round" stroke-miterlimit="10" width="3.004" height="3.004"/>
	</g>
	<g id="LWPOLYLINE_101_">
		
			<rect x="134.943" y="65.064" fill="#FFDEC7" stroke="#000000" stroke-width="0.01" stroke-linecap="round" stroke-linejoin="round" stroke-miterlimit="10" width="3.006" height="3.004"/>
	</g>
	<g id="LWPOLYLINE_102_">
		
			<rect x="149.966" y="1.96" fill="#FFDEC7" stroke="#000000" stroke-width="0.01" stroke-linecap="round" stroke-linejoin="round" stroke-miterlimit="10" width="6.01" height="3.004"/>
	</g>
	<g id="LWPOLYLINE_103_">
		
			<rect x="155.976" y="1.96" fill="#FFDEC7" stroke="#000000" stroke-width="0.01" stroke-linecap="round" stroke-linejoin="round" stroke-miterlimit="10" width="3.005" height="3.004"/>
	</g>
	<g id="LWPOLYLINE_104_">
		
			<rect x="158.98" y="1.96" fill="#FFDEC7" stroke="#000000" stroke-width="0.01" stroke-linecap="round" stroke-linejoin="round" stroke-miterlimit="10" width="3.004" height="3.004"/>
	</g>
	<g id="LWPOLYLINE_105_">
		
			<rect x="161.984" y="1.96" fill="#FFDEC7" stroke="#000000" stroke-width="0.01" stroke-linecap="round" stroke-linejoin="round" stroke-miterlimit="10" width="6.01" height="3.004"/>
	</g>
	<g id="LWPOLYLINE_106_">
		
			<rect x="167.994" y="1.96" fill="#FFDEC7" stroke="#000000" stroke-width="0.01" stroke-linecap="round" stroke-linejoin="round" stroke-miterlimit="10" width="6.01" height="3.004"/>
	</g>
	<g id="LWPOLYLINE_107_">
		
			<rect x="146.762" y="7.974" fill="#FFDEC7" stroke="#000000" stroke-width="0.01" stroke-linecap="round" stroke-linejoin="round" stroke-miterlimit="10" width="6.009" height="6.009"/>
	</g>
	<g id="LWPOLYLINE_108_">
		
			<rect x="152.771" y="7.974" fill="#FFDEC7" stroke="#000000" stroke-width="0.01" stroke-linecap="round" stroke-linejoin="round" stroke-miterlimit="10" width="6.01" height="6.009"/>
	</g>
	<g id="LWPOLYLINE_109_">
		
			<rect x="161.785" y="7.974" fill="#FFDEC7" stroke="#000000" stroke-width="0.01" stroke-linecap="round" stroke-linejoin="round" stroke-miterlimit="10" width="6.01" height="3.004"/>
	</g>
	<g id="LWPOLYLINE_110_">
		
			<rect x="161.785" y="10.978" fill="#FFDEC7" stroke="#000000" stroke-width="0.01" stroke-linecap="round" stroke-linejoin="round" stroke-miterlimit="10" width="6.01" height="3.004"/>
	</g>
	<g id="LWPOLYLINE_111_">
		
			<rect x="167.794" y="7.974" fill="#FFDEC7" stroke="#000000" stroke-width="0.01" stroke-linecap="round" stroke-linejoin="round" stroke-miterlimit="10" width="3.004" height="3.004"/>
	</g>
	<g id="LWPOLYLINE_112_">
		
			<rect x="167.794" y="10.978" fill="#FFDEC7" stroke="#000000" stroke-width="0.01" stroke-linecap="round" stroke-linejoin="round" stroke-miterlimit="10" width="3.004" height="3.004"/>
	</g>
	<g id="LWPOLYLINE_113_">
		
			<rect x="170.798" y="7.974" fill="#FFDEC7" stroke="#000000" stroke-width="0.01" stroke-linecap="round" stroke-linejoin="round" stroke-miterlimit="10" width="6.01" height="3.004"/>
	</g>
	<g id="LWPOLYLINE_114_">
		
			<rect x="170.798" y="10.978" fill="#FFDEC7" stroke="#000000" stroke-width="0.01" stroke-linecap="round" stroke-linejoin="round" stroke-miterlimit="10" width="6.01" height="3.004"/>
	</g>
	<g id="LWPOLYLINE_115_">
		
			<rect x="146.762" y="16.987" fill="#FFDEC7" stroke="#000000" stroke-width="0.01" stroke-linecap="round" stroke-linejoin="round" stroke-miterlimit="10" width="6.009" height="6.009"/>
	</g>
	<g id="LWPOLYLINE_116_">
		
			<rect x="152.771" y="16.987" fill="#FFDEC7" stroke="#000000" stroke-width="0.01" stroke-linecap="round" stroke-linejoin="round" stroke-miterlimit="10" width="6.01" height="6.009"/>
	</g>
	<g id="LWPOLYLINE_117_">
		
			<rect x="161.785" y="16.987" fill="#FFDEC7" stroke="#000000" stroke-width="0.01" stroke-linecap="round" stroke-linejoin="round" stroke-miterlimit="10" width="6.01" height="6.009"/>
	</g>
	<g id="LWPOLYLINE_118_">
		
			<rect x="167.794" y="16.987" fill="#FFDEC7" stroke="#000000" stroke-width="0.01" stroke-linecap="round" stroke-linejoin="round" stroke-miterlimit="10" width="3.004" height="3.004"/>
	</g>
	<g id="LWPOLYLINE_119_">
		
			<rect x="167.794" y="19.992" fill="#FFDEC7" stroke="#000000" stroke-width="0.01" stroke-linecap="round" stroke-linejoin="round" stroke-miterlimit="10" width="3.004" height="3.004"/>
	</g>
	<g id="LWPOLYLINE_120_">
		
			<rect x="170.798" y="16.987" fill="#FFDEC7" stroke="#000000" stroke-width="0.01" stroke-linecap="round" stroke-linejoin="round" stroke-miterlimit="10" width="6.01" height="6.009"/>
	</g>
	<g id="LWPOLYLINE_121_">
		
			<rect x="146.762" y="26.001" fill="#FFDEC7" stroke="#000000" stroke-width="0.01" stroke-linecap="round" stroke-linejoin="round" stroke-miterlimit="10" width="15.022" height="6.009"/>
	</g>
	<g id="LWPOLYLINE_122_">
		
			<rect x="164.789" y="26.001" fill="#FFDEC7" stroke="#000000" stroke-width="0.01" stroke-linecap="round" stroke-linejoin="round" stroke-miterlimit="10" width="6.01" height="6.009"/>
	</g>
	<g id="LWPOLYLINE_123_">
		
			<rect x="170.798" y="26.001" fill="#FFDEC7" stroke="#000000" stroke-width="0.01" stroke-linecap="round" stroke-linejoin="round" stroke-miterlimit="10" width="6.01" height="6.009"/>
	</g>
	<g id="LWPOLYLINE_124_">
		
			<rect x="146.762" y="38.02" fill="#FFDEC7" stroke="#000000" stroke-width="0.01" stroke-linecap="round" stroke-linejoin="round" stroke-miterlimit="10" width="12.019" height="7.513"/>
	</g>
	<g id="LWPOLYLINE_125_">
		
			<rect x="161.785" y="38.02" fill="#FFDEC7" stroke="#000000" stroke-width="0.01" stroke-linecap="round" stroke-linejoin="round" stroke-miterlimit="10" width="15.021" height="6.011"/>
	</g>
	<g id="LWPOLYLINE_126_">
		
			<rect x="146.762" y="48.535" fill="#FFDEC7" stroke="#000000" stroke-width="0.01" stroke-linecap="round" stroke-linejoin="round" stroke-miterlimit="10" width="12.019" height="4.507"/>
	</g>
	<g id="LWPOLYLINE_127_">
		
			<rect x="161.785" y="47.033" fill="#FFDEC7" stroke="#000000" stroke-width="0.01" stroke-linecap="round" stroke-linejoin="round" stroke-miterlimit="10" width="6.01" height="6.009"/>
	</g>
	<g id="LWPOLYLINE_128_">
		
			<rect x="167.794" y="47.033" fill="#FFDEC7" stroke="#000000" stroke-width="0.01" stroke-linecap="round" stroke-linejoin="round" stroke-miterlimit="10" width="3.004" height="3.004"/>
	</g>
	<g id="LWPOLYLINE_129_">
		
			<rect x="167.794" y="50.037" fill="#FFDEC7" stroke="#000000" stroke-width="0.01" stroke-linecap="round" stroke-linejoin="round" stroke-miterlimit="10" width="3.004" height="3.005"/>
	</g>
	<g id="LWPOLYLINE_130_">
		
			<rect x="170.798" y="47.033" fill="#FFDEC7" stroke="#000000" stroke-width="0.01" stroke-linecap="round" stroke-linejoin="round" stroke-miterlimit="10" width="6.01" height="6.009"/>
	</g>
	<g id="LWPOLYLINE_131_">
		
			<rect x="146.762" y="56.047" fill="#FFDEC7" stroke="#000000" stroke-width="0.01" stroke-linecap="round" stroke-linejoin="round" stroke-miterlimit="10" width="9.014" height="6.01"/>
	</g>
	<g id="LWPOLYLINE_132_">
		
			<rect x="155.775" y="56.047" fill="#FFDEC7" stroke="#000000" stroke-width="0.01" stroke-linecap="round" stroke-linejoin="round" stroke-miterlimit="10" width="6.01" height="6.01"/>
	</g>
	<g id="LWPOLYLINE_133_">
		
			<rect x="164.789" y="56.047" fill="#FFDEC7" stroke="#000000" stroke-width="0.01" stroke-linecap="round" stroke-linejoin="round" stroke-miterlimit="10" width="6.01" height="6.01"/>
	</g>
	<g id="LWPOLYLINE_134_">
		
			<rect x="170.798" y="56.047" fill="#FFDEC7" stroke="#000000" stroke-width="0.01" stroke-linecap="round" stroke-linejoin="round" stroke-miterlimit="10" width="6.01" height="6.01"/>
	</g>
	<g id="LWPOLYLINE_135_">
		
			<rect x="149.966" y="65.064" fill="#FFDEC7" stroke="#000000" stroke-width="0.01" stroke-linecap="round" stroke-linejoin="round" stroke-miterlimit="10" width="6.01" height="3.004"/>
	</g>
	<g id="LWPOLYLINE_136_">
		
			<rect x="155.976" y="65.064" fill="#FFDEC7" stroke="#000000" stroke-width="0.01" stroke-linecap="round" stroke-linejoin="round" stroke-miterlimit="10" width="3.005" height="3.004"/>
	</g>
	<g id="LWPOLYLINE_137_">
		
			<rect x="158.98" y="65.064" fill="#FFDEC7" stroke="#000000" stroke-width="0.01" stroke-linecap="round" stroke-linejoin="round" stroke-miterlimit="10" width="3.004" height="3.004"/>
	</g>
	<g id="LWPOLYLINE_138_">
		
			<rect x="161.984" y="65.064" fill="#FFDEC7" stroke="#000000" stroke-width="0.01" stroke-linecap="round" stroke-linejoin="round" stroke-miterlimit="10" width="3.006" height="3.004"/>
	</g>
	<g id="LWPOLYLINE_139_">
		
			<rect x="164.99" y="65.064" fill="#FFDEC7" stroke="#000000" stroke-width="0.01" stroke-linecap="round" stroke-linejoin="round" stroke-miterlimit="10" width="3.004" height="3.004"/>
	</g>
	<g id="LWPOLYLINE_140_">
		
			<rect x="167.994" y="65.064" fill="#FFDEC7" stroke="#000000" stroke-width="0.01" stroke-linecap="round" stroke-linejoin="round" stroke-miterlimit="10" width="3.004" height="3.004"/>
	</g>
	<g id="LWPOLYLINE_141_">
		
			<rect x="170.998" y="65.064" fill="#FFDEC7" stroke="#000000" stroke-width="0.01" stroke-linecap="round" stroke-linejoin="round" stroke-miterlimit="10" width="3.006" height="3.004"/>
	</g>
	<g id="LWPOLYLINE_142_">
		
			<rect x="181.815" y="5.97" fill="#FFDEC7" stroke="#000000" stroke-width="0.01" stroke-linecap="round" stroke-linejoin="round" stroke-miterlimit="10" width="3.004" height="6.009"/>
	</g>
	<g id="LWPOLYLINE_143_">
		
			<rect x="181.815" y="11.979" fill="#FFDEC7" stroke="#000000" stroke-width="0.01" stroke-linecap="round" stroke-linejoin="round" stroke-miterlimit="10" width="3.004" height="6.009"/>
	</g>
	<g id="LWPOLYLINE_144_">
		
			<rect x="181.815" y="17.989" fill="#FFDEC7" stroke="#000000" stroke-width="0.01" stroke-linecap="round" stroke-linejoin="round" stroke-miterlimit="10" width="3.004" height="3.004"/>
	</g>
	<g id="LWPOLYLINE_145_">
		
			<rect x="181.815" y="20.993" fill="#FFDEC7" stroke="#000000" stroke-width="0.01" stroke-linecap="round" stroke-linejoin="round" stroke-miterlimit="10" width="3.004" height="6.009"/>
	</g>
	<g id="LWPOLYLINE_146_">
		
			<rect x="181.815" y="27.002" fill="#FFDEC7" stroke="#000000" stroke-width="0.01" stroke-linecap="round" stroke-linejoin="round" stroke-miterlimit="10" width="3.004" height="6.009"/>
	</g>
	<g id="LWPOLYLINE_147_">
		
			<rect x="181.815" y="38.02" fill="#FFDEC7" stroke="#000000" stroke-width="0.01" stroke-linecap="round" stroke-linejoin="round" stroke-miterlimit="10" width="3.004" height="6.011"/>
	</g>
	<g id="LWPOLYLINE_148_">
		
			<rect x="181.815" y="44.027" fill="#FFDEC7" stroke="#000000" stroke-width="0.01" stroke-linecap="round" stroke-linejoin="round" stroke-miterlimit="10" width="3.004" height="6.01"/>
	</g>
	<g id="LWPOLYLINE_149_">
		
			<rect x="181.815" y="50.037" fill="#FFDEC7" stroke="#000000" stroke-width="0.01" stroke-linecap="round" stroke-linejoin="round" stroke-miterlimit="10" width="3.004" height="6.01"/>
	</g>
	<g id="LWPOLYLINE_150_">
		
			<rect x="181.815" y="56.047" fill="#FFDEC7" stroke="#000000" stroke-width="0.01" stroke-linecap="round" stroke-linejoin="round" stroke-miterlimit="10" width="3.004" height="6.01"/>
	</g>
</g>
<g id="LUNKUO-02">
	<g id="LWPOLYLINE_151_">
		<polygon fill="none" points="-0.02,4.884 -0.02,64.975 -0.02,70.023 6.252,70.023 166.083,70.023 191.789,70.023 191.789,64.996 
			198.02,64.996 198.02,4.884 191.789,4.884 191.789,-0.124 177.99,-0.124 6.252,-0.124 -0.02,-0.124 		"/>
	</g>
</g>
<g id="device">
	<circle id="E4:95:6E:4C:54:3B" fill="#F90606" cx="16.567" cy="42.958" r="0.5"/>
	<circle id="E4:95:6E:4C:55:5B" fill="#F90606" cx="32.588" cy="56.547" r="0.5"/>
	<circle id="E4:95:6E:4C:54:18" fill="#F90606" cx="33.088" cy="42.527" r="0.5"/>
	<circle id="E4:95:6E:4C:54:7E" fill="#F90606" cx="33.588" cy="27.503" r="0.5"/>
	<circle id="E4:95:6E:4C:55:BD" fill="#F90606" cx="31.086" cy="11.479" r="0.5"/>
	<circle id="E4:95:6E:4C:54:28" fill="#F90606" cx="63.134" cy="59.051" r="0.5"/>
	<circle id="E4:95:6E:4C:54:06" fill="#F90606" cx="62.634" cy="41.625" r="0.5"/>
	<circle id="E4:95:6E:4C:54:65" fill="#F90606" cx="63.634" cy="10.978" r="0.5"/>
	<circle id="E4:95:6E:4C:55:5A" fill="#F90606" cx="82.164" cy="41.775" r="0.5"/>
	<circle id="E4:95:6E:4C:54:6A" fill="#F90606" cx="101.099" cy="59.051" r="0.5"/>
	<circle id="E4:95:6E:4C:55:B0" fill="#F90606" cx="100.191" cy="42.027" r="0.5"/>
	<circle id="E4:95:6E:4C:54:7B" fill="#F90606" cx="100.599" cy="10.979" r="0.5"/>
	<circle id="E4:95:6E:4C:55:0C" fill="#F90606" cx="135.443" cy="42.027" r="0.5"/>
	<circle id="E4:95:6E:4C:54:07" fill="#F90606" cx="137.744" cy="10.979" r="0.5"/>
	<circle id="E4:95:6E:4C:55:BE" fill="#F90606" cx="151.269" cy="59.551" r="0.5"/>
	<circle id="E4:95:6E:4C:55:B7" fill="#F90606" cx="154.273" cy="29.005" r="0.5"/>
	<circle id="E4:95:6E:4C:54:02" fill="#F90606" cx="174.503" cy="59.051" r="0.5"/>
	<circle id="E4:95:6E:4C:55:B4" fill="#F90606" cx="174.003" cy="29.005" r="0.5"/>
	<circle id="E4:95:6E:4C:55:2F" fill="#F90606" cx="183.317" cy="8.975" r="0.5"/>
</g>
<g id="展会大门">
	<g>
		<g>
			<text transform="matrix(1.0002 0 0 1 21.9019 4.4448)" fill="#020002" font-family="'Arial-BoldMT'" font-size="1.3749">1</text>
			<text transform="matrix(1.0002 0 0 1 22.6753 4.4409)" fill="#020002" font-family="'SimSun'" font-size="1.4008">号门</text>
		</g>
		<g>
			
				<line fill="none" stroke="#020002" stroke-width="0.01" stroke-linecap="square" stroke-miterlimit="10" x1="26.445" y1="2.753" x2="26.445" y2="0.128"/>
			
				<line fill="none" stroke="#020002" stroke-width="0.01" stroke-linecap="square" stroke-miterlimit="10" x1="26.367" y1="0.128" x2="26.367" y2="2.753"/>
			<polyline fill="none" stroke="#020002" stroke-width="0.01" stroke-linecap="square" stroke-miterlimit="10" points="
				23.82,0.128 23.923,0.934 24.314,1.687 24.885,2.259 25.639,2.623 26.445,2.753 			"/>
			
				<line fill="none" stroke="#020002" stroke-width="0.01" stroke-linecap="square" stroke-miterlimit="10" x1="21.169" y1="2.753" x2="21.169" y2="0.128"/>
			
				<line fill="none" stroke="#020002" stroke-width="0.01" stroke-linecap="square" stroke-miterlimit="10" x1="21.247" y1="0.128" x2="21.247" y2="2.753"/>
			<polyline fill="none" stroke="#020002" stroke-width="0.01" stroke-linecap="square" stroke-miterlimit="10" points="
				21.169,2.753 21.975,2.623 22.729,2.259 23.3,1.687 23.69,0.934 23.82,0.128 			"/>
		</g>
	</g>
	<g>
		<g>
			<text transform="matrix(1.0002 0 0 1 70.231 4.4468)" fill="#050005" font-family="'Arial-BoldMT'" font-size="1.3749">2</text>
			<text transform="matrix(1.0002 0 0 1 71.0083 4.4429)" fill="#050005" font-family="'SimSun'" font-size="1.4008">号门</text>
		</g>
		<g>
			
				<line fill="none" stroke="#020002" stroke-width="0.01" stroke-linecap="square" stroke-miterlimit="10" x1="74.496" y1="2.753" x2="74.496" y2="0.128"/>
			
				<line fill="none" stroke="#020002" stroke-width="0.01" stroke-linecap="square" stroke-miterlimit="10" x1="74.418" y1="0.128" x2="74.418" y2="2.753"/>
			<polyline fill="none" stroke="#020002" stroke-width="0.01" stroke-linecap="square" stroke-miterlimit="10" points="
				71.844,0.128 71.975,0.934 72.339,1.687 72.937,2.259 73.664,2.623 74.496,2.753 			"/>
			
				<line fill="none" stroke="#020002" stroke-width="0.01" stroke-linecap="square" stroke-miterlimit="10" x1="69.194" y1="2.753" x2="69.194" y2="0.128"/>
			
				<line fill="none" stroke="#020002" stroke-width="0.01" stroke-linecap="square" stroke-miterlimit="10" x1="69.272" y1="0.128" x2="69.272" y2="2.753"/>
			<polyline fill="none" stroke="#020002" stroke-width="0.01" stroke-linecap="square" stroke-miterlimit="10" points="
				69.194,2.753 70.025,2.623 70.753,2.259 71.352,1.687 71.715,0.934 71.844,0.128 			"/>
		</g>
	</g>
	<g>
		<g>
			<text transform="matrix(1.0002 0 0 1 106.1626 4.4443)" fill="#020002" font-family="'Arial-BoldMT'" font-size="1.3749">3</text>
			<text transform="matrix(1.0002 0 0 1 106.939 4.4492)" fill="#020002" font-family="'SimSun'" font-size="1.4008">号门</text>
		</g>
		<g>
			
				<line fill="none" stroke="#050005" stroke-width="0.01" stroke-linecap="square" stroke-miterlimit="10" x1="110.516" y1="2.753" x2="110.516" y2="0.128"/>
			
				<line fill="none" stroke="#050005" stroke-width="0.01" stroke-linecap="square" stroke-miterlimit="10" x1="110.435" y1="0.128" x2="110.435" y2="2.753"/>
			<polyline fill="none" stroke="#050005" stroke-width="0.01" stroke-linecap="square" stroke-miterlimit="10" points="
				107.863,0.128 107.995,0.934 108.383,1.687 108.955,2.259 109.709,2.623 110.516,2.753 			"/>
			
				<line fill="none" stroke="#050005" stroke-width="0.01" stroke-linecap="square" stroke-miterlimit="10" x1="105.238" y1="2.753" x2="105.238" y2="0.128"/>
			
				<line fill="none" stroke="#050005" stroke-width="0.01" stroke-linecap="square" stroke-miterlimit="10" x1="105.316" y1="0.128" x2="105.316" y2="2.753"/>
			<polyline fill="none" stroke="#050005" stroke-width="0.01" stroke-linecap="square" stroke-miterlimit="10" points="
				105.238,2.753 106.044,2.623 106.772,2.259 107.369,1.687 107.734,0.934 107.863,0.128 			"/>
		</g>
	</g>
	<g>
		<g>
			<text transform="matrix(1.0002 0 0 1 142.3237 4.4385)" fill="#020002" font-family="'Arial-BoldMT'" font-size="1.3749">4</text>
			<text transform="matrix(1.0002 0 0 1 143.104 4.4434)" fill="#020002" font-family="'SimSun'" font-size="1.4008">号门</text>
		</g>
		<g>
			
				<line fill="none" stroke="#050005" stroke-width="0.01" stroke-linecap="square" stroke-miterlimit="10" x1="146.532" y1="2.753" x2="146.532" y2="0.128"/>
			
				<line fill="none" stroke="#050005" stroke-width="0.01" stroke-linecap="square" stroke-miterlimit="10" x1="146.456" y1="0.128" x2="146.456" y2="2.753"/>
			<polyline fill="none" stroke="#050005" stroke-width="0.01" stroke-linecap="square" stroke-miterlimit="10" points="
				143.909,0.128 144.04,0.934 144.404,1.662 144.974,2.259 145.728,2.623 146.532,2.753 			"/>
			
				<line fill="none" stroke="#050005" stroke-width="0.01" stroke-linecap="square" stroke-miterlimit="10" x1="141.259" y1="2.753" x2="141.259" y2="0.128"/>
			
				<line fill="none" stroke="#050005" stroke-width="0.01" stroke-linecap="square" stroke-miterlimit="10" x1="141.335" y1="0.128" x2="141.335" y2="2.753"/>
			<polyline fill="none" stroke="#050005" stroke-width="0.01" stroke-linecap="square" stroke-miterlimit="10" points="
				141.259,2.753 142.066,2.623 142.819,2.259 143.388,1.662 143.777,0.934 143.909,0.128 			"/>
		</g>
	</g>
	<g>
		<g>
			<text transform="matrix(1.0002 0 0 1 178.3628 4.2515)" fill="#020002" font-family="'Arial-BoldMT'" font-size="1.3749">5</text>
			<text transform="matrix(1.0002 0 0 1 179.145 4.2563)" fill="#020002" font-family="'SimSun'" font-size="1.4008">号门</text>
		</g>
		<g>
			
				<line fill="none" stroke="#020002" stroke-width="0.01" stroke-linecap="square" stroke-miterlimit="10" x1="182.579" y1="2.623" x2="182.579" y2="-0.027"/>
			
				<line fill="none" stroke="#020002" stroke-width="0.01" stroke-linecap="square" stroke-miterlimit="10" x1="182.5" y1="-0.027" x2="182.5" y2="2.623"/>
			<polyline fill="none" stroke="#020002" stroke-width="0.01" stroke-linecap="square" stroke-miterlimit="10" points="
				179.926,-0.027 180.057,0.778 180.419,1.532 181.018,2.104 181.746,2.494 182.579,2.623 			"/>
			
				<line fill="none" stroke="#020002" stroke-width="0.01" stroke-linecap="square" stroke-miterlimit="10" x1="177.276" y1="2.623" x2="177.276" y2="-0.027"/>
			
				<line fill="none" stroke="#020002" stroke-width="0.01" stroke-linecap="square" stroke-miterlimit="10" x1="177.356" y1="-0.027" x2="177.356" y2="2.623"/>
			<polyline fill="none" stroke="#020002" stroke-width="0.01" stroke-linecap="square" stroke-miterlimit="10" points="
				177.276,2.623 178.107,2.494 178.836,2.104 179.433,1.532 179.797,0.778 179.926,-0.027 			"/>
		</g>
	</g>
	<g>
		<g>
			<text transform="matrix(1.0002 0 0 1 22.1172 66.5664)" fill="#020002" font-family="'Arial-BoldMT'" font-size="1.3749">6</text>
			<text transform="matrix(1.0002 0 0 1 22.8721 66.5625)" fill="#020002" font-family="'SimSun'" font-size="1.4008">号门</text>
		</g>
		<g>
			
				<line fill="none" stroke="#000000" stroke-width="0.01" stroke-linecap="square" stroke-miterlimit="10" x1="26.445" y1="67.348" x2="26.445" y2="69.994"/>
			
				<line fill="none" stroke="#000000" stroke-width="0.01" stroke-linecap="square" stroke-miterlimit="10" x1="26.367" y1="69.994" x2="26.367" y2="67.348"/>
			<polyline fill="none" stroke="#000000" stroke-width="0.01" stroke-linecap="square" stroke-miterlimit="10" points="
				23.82,69.994 23.923,69.19 24.314,68.439 24.885,67.866 25.639,67.477 26.445,67.348 			"/>
			
				<line fill="none" stroke="#000000" stroke-width="0.01" stroke-linecap="square" stroke-miterlimit="10" x1="21.169" y1="67.348" x2="21.169" y2="69.994"/>
			
				<line fill="none" stroke="#000000" stroke-width="0.01" stroke-linecap="square" stroke-miterlimit="10" x1="21.247" y1="69.994" x2="21.247" y2="67.348"/>
			<polyline fill="none" stroke="#000000" stroke-width="0.01" stroke-linecap="square" stroke-miterlimit="10" points="
				21.169,67.348 21.975,67.477 22.729,67.866 23.3,68.439 23.69,69.19 23.82,69.994 			"/>
		</g>
	</g>
	<g>
		<g>
			<text transform="matrix(1.0002 0 0 1 70.1323 66.5684)" font-family="'Arial-BoldMT'" font-size="1.3749">7</text>
			<text transform="matrix(1.0002 0 0 1 70.9063 66.5645)" font-family="'SimSun'" font-size="1.4008">号门</text>
		</g>
		<g>
			
				<line fill="none" stroke="#020002" stroke-width="0.01" stroke-linecap="square" stroke-miterlimit="10" x1="74.496" y1="67.348" x2="74.496" y2="69.994"/>
			
				<line fill="none" stroke="#020002" stroke-width="0.01" stroke-linecap="square" stroke-miterlimit="10" x1="74.418" y1="69.994" x2="74.418" y2="67.348"/>
			<polyline fill="none" stroke="#020002" stroke-width="0.01" stroke-linecap="square" stroke-miterlimit="10" points="
				71.844,69.994 71.975,69.19 72.339,68.439 72.937,67.866 73.664,67.477 74.496,67.348 			"/>
			
				<line fill="none" stroke="#020002" stroke-width="0.01" stroke-linecap="square" stroke-miterlimit="10" x1="69.194" y1="67.348" x2="69.194" y2="69.994"/>
			
				<line fill="none" stroke="#020002" stroke-width="0.01" stroke-linecap="square" stroke-miterlimit="10" x1="69.272" y1="69.994" x2="69.272" y2="67.348"/>
			<polyline fill="none" stroke="#020002" stroke-width="0.01" stroke-linecap="square" stroke-miterlimit="10" points="
				69.194,67.348 70.025,67.477 70.753,67.866 71.352,68.439 71.715,69.19 71.844,69.994 			"/>
		</g>
	</g>
	<g>
		<g>
			<text transform="matrix(1.0002 0 0 1 106.1606 66.9346)" fill="#020002" font-family="'Arial-BoldMT'" font-size="1.3749">8</text>
			<text transform="matrix(1.0002 0 0 1 106.9399 66.9307)" fill="#020002" font-family="'SimSun'" font-size="1.4008">号门</text>
		</g>
		<g>
			
				<line fill="none" stroke="#020002" stroke-width="0.01" stroke-linecap="square" stroke-miterlimit="10" x1="110.516" y1="67.348" x2="110.516" y2="69.994"/>
			
				<line fill="none" stroke="#020002" stroke-width="0.01" stroke-linecap="square" stroke-miterlimit="10" x1="110.435" y1="69.994" x2="110.435" y2="67.348"/>
			<polyline fill="none" stroke="#020002" stroke-width="0.01" stroke-linecap="square" stroke-miterlimit="10" points="
				107.863,69.994 107.995,69.19 108.383,68.439 108.955,67.866 109.709,67.477 110.516,67.348 			"/>
			
				<line fill="none" stroke="#020002" stroke-width="0.01" stroke-linecap="square" stroke-miterlimit="10" x1="105.238" y1="67.348" x2="105.238" y2="69.994"/>
			
				<line fill="none" stroke="#020002" stroke-width="0.01" stroke-linecap="square" stroke-miterlimit="10" x1="105.316" y1="69.994" x2="105.316" y2="67.348"/>
			<polyline fill="none" stroke="#020002" stroke-width="0.01" stroke-linecap="square" stroke-miterlimit="10" points="
				105.238,67.348 106.044,67.477 106.772,67.866 107.369,68.439 107.734,69.19 107.863,69.994 			"/>
		</g>
	</g>
	<g>
		<g>
			<text transform="matrix(1.0002 0 0 1 142.3237 66.3906)" fill="#020002" font-family="'Arial-BoldMT'" font-size="1.3749">9</text>
			<text transform="matrix(1.0002 0 0 1 143.1021 66.3867)" fill="#020002" font-family="'SimSun'" font-size="1.4008">号门</text>
		</g>
		<g>
			
				<line fill="none" stroke="#050005" stroke-width="0.01" stroke-linecap="square" stroke-miterlimit="10" x1="146.532" y1="67.373" x2="146.532" y2="69.994"/>
			
				<line fill="none" stroke="#050005" stroke-width="0.01" stroke-linecap="square" stroke-miterlimit="10" x1="146.456" y1="69.994" x2="146.456" y2="67.373"/>
			<polyline fill="none" stroke="#050005" stroke-width="0.01" stroke-linecap="square" stroke-miterlimit="10" points="
				143.909,69.994 144.04,69.19 144.404,68.439 144.974,67.866 145.728,67.502 146.532,67.373 			"/>
			
				<line fill="none" stroke="#050005" stroke-width="0.01" stroke-linecap="square" stroke-miterlimit="10" x1="141.259" y1="67.373" x2="141.259" y2="69.994"/>
			
				<line fill="none" stroke="#050005" stroke-width="0.01" stroke-linecap="square" stroke-miterlimit="10" x1="141.335" y1="69.994" x2="141.335" y2="67.373"/>
			<polyline fill="none" stroke="#050005" stroke-width="0.01" stroke-linecap="square" stroke-miterlimit="10" points="
				141.259,67.373 142.066,67.502 142.819,67.866 143.388,68.439 143.777,69.19 143.909,69.994 			"/>
		</g>
	</g>
	<g>
		<g>
			<text transform="matrix(1.0002 0 0 1 177.8188 66.9326)"><tspan x="0" y="0" fill="#020002" font-family="'Arial-BoldMT'" font-size="1.3749">1</tspan><tspan x="0.754" y="0" fill="#020002" font-family="'Arial-BoldMT'" font-size="1.3749">0</tspan></text>
			<text transform="matrix(1.0002 0 0 1 179.3843 66.9287)" fill="#020002" font-family="'SimSun'" font-size="1.4008">号门</text>
		</g>
		<g>
			
				<line fill="none" stroke="#070007" stroke-width="0.01" stroke-linecap="square" stroke-miterlimit="10" x1="182.579" y1="67.502" x2="182.579" y2="70.152"/>
			
				<line fill="none" stroke="#070007" stroke-width="0.01" stroke-linecap="square" stroke-miterlimit="10" x1="182.5" y1="70.152" x2="182.5" y2="67.502"/>
			<polyline fill="none" stroke="#070007" stroke-width="0.01" stroke-linecap="square" stroke-miterlimit="10" points="
				179.926,70.152 180.057,69.321 180.419,68.592 181.018,67.997 181.746,67.631 182.579,67.502 			"/>
			
				<line fill="none" stroke="#070007" stroke-width="0.01" stroke-linecap="square" stroke-miterlimit="10" x1="177.276" y1="67.502" x2="177.276" y2="70.152"/>
			
				<line fill="none" stroke="#070007" stroke-width="0.01" stroke-linecap="square" stroke-miterlimit="10" x1="177.356" y1="70.152" x2="177.356" y2="67.502"/>
			<polyline fill="none" stroke="#070007" stroke-width="0.01" stroke-linecap="square" stroke-miterlimit="10" points="
				177.276,67.502 178.107,67.631 178.836,67.997 179.433,68.592 179.797,69.321 179.926,70.152 			"/>
		</g>
	</g>
</g>
</svg>
