<?xml version="1.0" encoding="utf-8"?>
<!-- Generator: Adobe Illustrator 16.0.0, SVG Export Plug-In . SVG Version: 6.00 Build 0)  -->
<!DOCTYPE svg PUBLIC "-//W3C//DTD SVG 1.1//EN" "http://www.w3.org/Graphics/SVG/1.1/DTD/svg11.dtd">
<svg version="1.1" id="图层_1" xmlns="http://www.w3.org/2000/svg" xmlns:xlink="http://www.w3.org/1999/xlink" x="0px" y="0px"
	 width="185.8px" height="70px" viewBox="0 0 185.8 70" enable-background="new 0 0 185.8 70" xml:space="preserve">
<g id="LUNKUO-01">
	<g id="LWPOLYLINE">
		
			<polygon fill="#FCFBE3" stroke="#020000" stroke-width="0.01" stroke-linecap="round" stroke-linejoin="round" stroke-miterlimit="10" points="
			-0.007,5.015 -0.007,65.188 6.273,65.188 6.273,70.203 166.322,70.203 186.268,70.203 186.268,0 6.273,0 6.273,5.015 		"/>
	</g>
</g>
<g id="卫生间">
	<g id="LWPOLYLINE_57_">
		
			<rect x="-0.007" y="6.919" fill="#BEBBFB" stroke="#000202" stroke-width="0.01" stroke-linecap="round" stroke-linejoin="round" stroke-miterlimit="10" width="8.323" height="5.391"/>
	</g>
	<g id="LWPOLYLINE_58_">
		
			<rect x="-0.007" y="57.564" fill="#BEBBFB" stroke="#000202" stroke-width="0.01" stroke-linecap="round" stroke-linejoin="round" stroke-miterlimit="10" width="8.323" height="5.517"/>
	</g>
</g>
<g id="障碍物">
	<g id="LWPOLYLINE_122_">
		
			<polygon fill="#DDDDDD" stroke="#000505" stroke-width="0.01" stroke-linecap="round" stroke-linejoin="round" stroke-miterlimit="10" points="
			-0.007,12.435 10.368,12.435 10.368,19.881 6.018,19.881 6.018,50.118 10.368,50.118 10.368,57.535 -0.007,57.535 		"/>
	</g>
	<g id="LWPOLYLINE_123_">
		
			<polygon fill="#DDDDDD" stroke="#000505" stroke-width="0.01" stroke-linecap="round" stroke-linejoin="round" stroke-miterlimit="10" points="
			180.257,34.925 175.77,34.925 175.77,69.971 186.097,69.971 186.097,57.67 182.416,57.67 182.414,50.169 180.271,50.169 		"/>
	</g>
	<g id="LWPOLYLINE_124_">
		
			<rect x="175.77" y="0.029" fill="#DDDDDD" stroke="#000505" stroke-width="0.01" stroke-linecap="round" stroke-linejoin="round" stroke-miterlimit="10" width="10.207" height="12.301"/>
	</g>
</g>
<g id="展位商铺">
	<g id="LINE">
		
			<line fill="none" stroke="#000000" stroke-width="0.01" stroke-linecap="round" stroke-linejoin="round" stroke-miterlimit="10" x1="44.478" y1="4.914" x2="44.478" y2="1.905"/>
	</g>
	<g id="LINE_1_">
		
			<line fill="none" stroke="#000000" stroke-width="0.01" stroke-linecap="round" stroke-linejoin="round" stroke-miterlimit="10" x1="35.452" y1="1.905" x2="35.452" y2="4.914"/>
	</g>
	<g id="LINE_2_">
		
			<line fill="none" stroke="#000000" stroke-width="0.01" stroke-linecap="round" stroke-linejoin="round" stroke-miterlimit="10" x1="35.452" y1="4.914" x2="35.452" y2="1.905"/>
	</g>
	<g id="LINE_3_">
		
			<line fill="none" stroke="#000000" stroke-width="0.01" stroke-linecap="round" stroke-linejoin="round" stroke-miterlimit="10" x1="32.443" y1="4.914" x2="35.452" y2="4.914"/>
	</g>
	<g id="LINE_4_">
		
			<line fill="none" stroke="#000000" stroke-width="0.01" stroke-linecap="round" stroke-linejoin="round" stroke-miterlimit="10" x1="35.452" y1="4.914" x2="38.461" y2="4.914"/>
	</g>
	<g id="LINE_5_">
		
			<line fill="none" stroke="#000000" stroke-width="0.01" stroke-linecap="round" stroke-linejoin="round" stroke-miterlimit="10" x1="35.452" y1="1.905" x2="35.452" y2="4.914"/>
	</g>
	<g id="LINE_6_">
		
			<line fill="none" stroke="#000000" stroke-width="0.01" stroke-linecap="round" stroke-linejoin="round" stroke-miterlimit="10" x1="35.452" y1="1.905" x2="35.452" y2="4.914"/>
	</g>
	<g id="LINE_7_">
		
			<line fill="none" stroke="#000000" stroke-width="0.01" stroke-linecap="round" stroke-linejoin="round" stroke-miterlimit="10" x1="41.47" y1="4.914" x2="44.478" y2="4.914"/>
	</g>
	<g id="LINE_8_">
		
			<line fill="none" stroke="#000000" stroke-width="0.01" stroke-linecap="round" stroke-linejoin="round" stroke-miterlimit="10" x1="44.478" y1="4.914" x2="44.478" y2="1.905"/>
	</g>
	<g id="LINE_9_">
		
			<line fill="none" stroke="#000000" stroke-width="0.01" stroke-linecap="round" stroke-linejoin="round" stroke-miterlimit="10" x1="41.47" y1="1.905" x2="41.47" y2="4.914"/>
	</g>
	<g id="LINE_10_">
		
			<line fill="none" stroke="#000000" stroke-width="0.01" stroke-linecap="round" stroke-linejoin="round" stroke-miterlimit="10" x1="41.47" y1="4.914" x2="38.461" y2="4.914"/>
	</g>
	<g id="LINE_11_">
		
			<line fill="none" stroke="#000000" stroke-width="0.01" stroke-linecap="round" stroke-linejoin="round" stroke-miterlimit="10" x1="52.188" y1="14.942" x2="52.188" y2="7.922"/>
	</g>
	<g id="LINE_12_">
		
			<line fill="none" stroke="#000000" stroke-width="0.01" stroke-linecap="round" stroke-linejoin="round" stroke-miterlimit="10" x1="52.188" y1="7.922" x2="52.188" y2="16.948"/>
	</g>
	<g id="LINE_13_">
		
			<line fill="none" stroke="#000000" stroke-width="0.01" stroke-linecap="round" stroke-linejoin="round" stroke-miterlimit="10" x1="66.229" y1="14.942" x2="56.2" y2="14.942"/>
	</g>
	<g id="LINE_14_">
		
			<line fill="none" stroke="#000000" stroke-width="0.01" stroke-linecap="round" stroke-linejoin="round" stroke-miterlimit="10" x1="22.102" y1="19.957" x2="28.119" y2="19.957"/>
	</g>
	<g id="LINE_15_">
		
			<line fill="none" stroke="#000000" stroke-width="0.01" stroke-linecap="round" stroke-linejoin="round" stroke-miterlimit="10" x1="52.188" y1="7.922" x2="52.188" y2="16.948"/>
	</g>
	<g id="LINE_16_">
		
			<line fill="none" stroke="#000000" stroke-width="0.01" stroke-linecap="round" stroke-linejoin="round" stroke-miterlimit="10" x1="46.171" y1="13.939" x2="52.188" y2="13.939"/>
	</g>
	<g id="LINE_17_">
		
			<line fill="none" stroke="#000000" stroke-width="0.01" stroke-linecap="round" stroke-linejoin="round" stroke-miterlimit="10" x1="52.188" y1="13.939" x2="52.188" y2="16.948"/>
	</g>
	<g id="LWPOLYLINE_1_">
		
			<rect x="22.102" y="7.922" fill="#FFDEC7" stroke="#000000" stroke-width="0.01" stroke-linecap="round" stroke-linejoin="round" stroke-miterlimit="10" width="6.018" height="6.018"/>
	</g>
	<g id="LWPOLYLINE_2_">
		
			<rect x="34.136" y="7.922" fill="#FFDEC7" stroke="#000000" stroke-width="0.01" stroke-linecap="round" stroke-linejoin="round" stroke-miterlimit="10" width="6.018" height="3.009"/>
	</g>
	<g id="LWPOLYLINE_3_">
		
			<rect x="34.136" y="10.931" fill="#FFDEC7" stroke="#000000" stroke-width="0.01" stroke-linecap="round" stroke-linejoin="round" stroke-miterlimit="10" width="6.018" height="3.009"/>
	</g>
	<g id="LWPOLYLINE_4_">
		
			<rect x="29.435" y="1.905" fill="#FFDEC7" stroke="#000000" stroke-width="0.01" stroke-linecap="round" stroke-linejoin="round" stroke-miterlimit="10" width="3.008" height="3.009"/>
	</g>
	<g id="LWPOLYLINE_5_">
		
			<rect x="32.443" y="1.905" fill="#FFDEC7" stroke="#000000" stroke-width="0.01" stroke-linecap="round" stroke-linejoin="round" stroke-miterlimit="10" width="3.009" height="3.009"/>
	</g>
	<g id="LWPOLYLINE_6_">
		
			<rect x="35.452" y="1.905" fill="#FFDEC7" stroke="#000000" stroke-width="0.01" stroke-linecap="round" stroke-linejoin="round" stroke-miterlimit="10" width="3.009" height="3.009"/>
	</g>
	<g id="LWPOLYLINE_7_">
		
			<rect x="38.461" y="1.905" fill="#FFDEC7" stroke="#000000" stroke-width="0.01" stroke-linecap="round" stroke-linejoin="round" stroke-miterlimit="10" width="3.009" height="3.009"/>
	</g>
	<g id="LWPOLYLINE_8_">
		
			<rect x="41.47" y="1.905" fill="#FFDEC7" stroke="#000000" stroke-width="0.01" stroke-linecap="round" stroke-linejoin="round" stroke-miterlimit="10" width="3.008" height="3.009"/>
	</g>
	<g id="LWPOLYLINE_9_">
		
			<rect x="14.079" y="26.977" fill="#FFDEC7" stroke="#000000" stroke-width="0.01" stroke-linecap="round" stroke-linejoin="round" stroke-miterlimit="10" width="3.009" height="6.017"/>
	</g>
	<g id="LWPOLYLINE_10_">
		
			<rect x="14.086" y="37.006" fill="#FFDEC7" stroke="#000000" stroke-width="0.01" stroke-linecap="round" stroke-linejoin="round" stroke-miterlimit="10" width="3.009" height="6.018"/>
	</g>
	<g id="LWPOLYLINE_11_">
		
			<rect x="14.086" y="43.023" fill="#FFDEC7" stroke="#000000" stroke-width="0.01" stroke-linecap="round" stroke-linejoin="round" stroke-miterlimit="10" width="3.009" height="3.009"/>
	</g>
	<g id="LWPOLYLINE_12_">
		
			<rect x="22.102" y="16.948" fill="#FFDEC7" stroke="#000000" stroke-width="0.01" stroke-linecap="round" stroke-linejoin="round" stroke-miterlimit="10" width="6.018" height="3.008"/>
	</g>
	<g id="LWPOLYLINE_13_">
		
			<rect x="22.102" y="19.957" fill="#FFDEC7" stroke="#000000" stroke-width="0.01" stroke-linecap="round" stroke-linejoin="round" stroke-miterlimit="10" width="6.018" height="3.009"/>
	</g>
	<g id="LWPOLYLINE_14_">
		
			<rect x="28.119" y="16.948" fill="#FFDEC7" stroke="#000000" stroke-width="0.01" stroke-linecap="round" stroke-linejoin="round" stroke-miterlimit="10" width="3.009" height="6.017"/>
	</g>
	<g id="LWPOLYLINE_15_">
		
			<rect x="46.171" y="7.922" fill="#FFDEC7" stroke="#000000" stroke-width="0.01" stroke-linecap="round" stroke-linejoin="round" stroke-miterlimit="10" width="6.018" height="6.018"/>
	</g>
	<g id="LWPOLYLINE_16_">
		
			<rect x="46.171" y="13.939" fill="#FFDEC7" stroke="#000000" stroke-width="0.01" stroke-linecap="round" stroke-linejoin="round" stroke-miterlimit="10" width="6.018" height="3.009"/>
	</g>
	<g id="LWPOLYLINE_17_">
		
			<rect x="37.145" y="20.959" fill="#FFDEC7" stroke="#000000" stroke-width="0.01" stroke-linecap="round" stroke-linejoin="round" stroke-miterlimit="10" width="15.043" height="12.035"/>
	</g>
	<g id="LWPOLYLINE_18_">
		
			<rect x="22.102" y="26.977" fill="#FFDEC7" stroke="#000000" stroke-width="0.01" stroke-linecap="round" stroke-linejoin="round" stroke-miterlimit="10" width="12.035" height="6.017"/>
	</g>
	<g id="LWPOLYLINE_19_">
		
			<rect x="22.109" y="37.006" fill="#FFDEC7" stroke="#000000" stroke-width="0.01" stroke-linecap="round" stroke-linejoin="round" stroke-miterlimit="10" width="11.032" height="6.018"/>
	</g>
	<g id="LWPOLYLINE_20_">
		
			<rect x="38.155" y="37.006" fill="#FFDEC7" stroke="#000000" stroke-width="0.01" stroke-linecap="round" stroke-linejoin="round" stroke-miterlimit="10" width="14.041" height="6.018"/>
	</g>
	<g id="LWPOLYLINE_21_">
		
			<rect x="38.155" y="43.023" fill="#FFDEC7" stroke="#000000" stroke-width="0.01" stroke-linecap="round" stroke-linejoin="round" stroke-miterlimit="10" width="14.041" height="6.017"/>
	</g>
	<g id="LWPOLYLINE_22_">
		
			<rect x="56.2" y="37.006" fill="#FFDEC7" stroke="#000000" stroke-width="0.01" stroke-linecap="round" stroke-linejoin="round" stroke-miterlimit="10" width="9.026" height="15.043"/>
	</g>
	<g id="LWPOLYLINE_23_">
		
			<rect x="56.2" y="25.974" fill="#FFDEC7" stroke="#000000" stroke-width="0.01" stroke-linecap="round" stroke-linejoin="round" stroke-miterlimit="10" width="18.052" height="7.02"/>
	</g>
	<g id="LWPOLYLINE_24_">
		
			<rect x="56.2" y="17.951" fill="#FFDEC7" stroke="#000000" stroke-width="0.01" stroke-linecap="round" stroke-linejoin="round" stroke-miterlimit="10" width="12.035" height="6.018"/>
	</g>
	<g id="LWPOLYLINE_25_">
		
			<rect x="56.2" y="7.922" fill="#FFDEC7" stroke="#000000" stroke-width="0.01" stroke-linecap="round" stroke-linejoin="round" stroke-miterlimit="10" width="10.029" height="7.021"/>
	</g>
	<g id="LWPOLYLINE_26_">
		
			<rect x="68.736" y="7.922" fill="#FFDEC7" stroke="#000000" stroke-width="0.01" stroke-linecap="round" stroke-linejoin="round" stroke-miterlimit="10" width="6.017" height="6.018"/>
	</g>
	<g id="LWPOLYLINE_27_">
		
			<rect x="77.261" y="7.922" fill="#FFDEC7" stroke="#000000" stroke-width="0.01" stroke-linecap="round" stroke-linejoin="round" stroke-miterlimit="10" width="10.029" height="8.023"/>
	</g>
	<g id="LWPOLYLINE_28_">
		
			<rect x="70.24" y="17.951" fill="#FFDEC7" stroke="#000000" stroke-width="0.01" stroke-linecap="round" stroke-linejoin="round" stroke-miterlimit="10" width="6.018" height="6.018"/>
	</g>
	<g id="LWPOLYLINE_29_">
		
			<rect x="78.264" y="17.951" fill="#FFDEC7" stroke="#000000" stroke-width="0.01" stroke-linecap="round" stroke-linejoin="round" stroke-miterlimit="10" width="9.026" height="6.018"/>
	</g>
	<g id="LWPOLYLINE_30_">
		
			<rect x="77.261" y="25.974" fill="#FFDEC7" stroke="#000000" stroke-width="0.01" stroke-linecap="round" stroke-linejoin="round" stroke-miterlimit="10" width="10.029" height="7.02"/>
	</g>
	<g id="LWPOLYLINE_31_">
		
			<rect x="67.232" y="37.006" fill="#FFDEC7" stroke="#000000" stroke-width="0.01" stroke-linecap="round" stroke-linejoin="round" stroke-miterlimit="10" width="20.058" height="15.043"/>
	</g>
	<g id="LWPOLYLINE_32_">
		
			<rect x="61.522" y="1.817" fill="#FFDEC7" stroke="#000000" stroke-width="0.01" stroke-linecap="round" stroke-linejoin="round" stroke-miterlimit="10" width="6.017" height="3.009"/>
	</g>
	<g id="LWPOLYLINE_33_">
		
			<rect x="67.539" y="1.817" fill="#FFDEC7" stroke="#000000" stroke-width="0.01" stroke-linecap="round" stroke-linejoin="round" stroke-miterlimit="10" width="3.009" height="3.009"/>
	</g>
	<g id="LWPOLYLINE_34_">
		
			<rect x="70.548" y="1.817" fill="#FFDEC7" stroke="#000000" stroke-width="0.01" stroke-linecap="round" stroke-linejoin="round" stroke-miterlimit="10" width="6.018" height="3.009"/>
	</g>
	<g id="LWPOLYLINE_35_">
		
			<rect x="76.565" y="1.817" fill="#FFDEC7" stroke="#000000" stroke-width="0.01" stroke-linecap="round" stroke-linejoin="round" stroke-miterlimit="10" width="6.017" height="3.009"/>
	</g>
	<g id="LWPOLYLINE_36_">
		
			<rect x="22.109" y="47.034" fill="#FFDEC7" stroke="#000000" stroke-width="0.01" stroke-linecap="round" stroke-linejoin="round" stroke-miterlimit="10" width="6.017" height="3.009"/>
	</g>
	<g id="LWPOLYLINE_37_">
		
			<rect x="22.109" y="50.043" fill="#FFDEC7" stroke="#000000" stroke-width="0.01" stroke-linecap="round" stroke-linejoin="round" stroke-miterlimit="10" width="3.008" height="3.009"/>
	</g>
	<g id="LWPOLYLINE_38_">
		
			<rect x="25.118" y="50.043" fill="#FFDEC7" stroke="#000000" stroke-width="0.01" stroke-linecap="round" stroke-linejoin="round" stroke-miterlimit="10" width="3.009" height="3.009"/>
	</g>
	<g id="LWPOLYLINE_39_">
		
			<rect x="28.126" y="47.034" fill="#FFDEC7" stroke="#000000" stroke-width="0.01" stroke-linecap="round" stroke-linejoin="round" stroke-miterlimit="10" width="6.018" height="6.018"/>
	</g>
	<g id="LWPOLYLINE_40_">
		
			<rect x="22.109" y="56.061" fill="#FFDEC7" stroke="#000000" stroke-width="0.01" stroke-linecap="round" stroke-linejoin="round" stroke-miterlimit="10" width="3.008" height="3.01"/>
	</g>
	<g id="LWPOLYLINE_41_">
		
			<rect x="25.118" y="56.061" fill="#FFDEC7" stroke="#000000" stroke-width="0.01" stroke-linecap="round" stroke-linejoin="round" stroke-miterlimit="10" width="6.018" height="3.01"/>
	</g>
	<g id="LWPOLYLINE_42_">
		
			<rect x="22.109" y="59.068" fill="#FFDEC7" stroke="#000000" stroke-width="0.01" stroke-linecap="round" stroke-linejoin="round" stroke-miterlimit="10" width="3.008" height="3.01"/>
	</g>
	<g id="LWPOLYLINE_43_">
		
			<rect x="25.118" y="59.068" fill="#FFDEC7" stroke="#000000" stroke-width="0.01" stroke-linecap="round" stroke-linejoin="round" stroke-miterlimit="10" width="6.018" height="3.01"/>
	</g>
	<g id="LWPOLYLINE_44_">
		
			<rect x="36.655" y="53.052" fill="#FFDEC7" stroke="#000000" stroke-width="0.01" stroke-linecap="round" stroke-linejoin="round" stroke-miterlimit="10" width="6.017" height="9.026"/>
	</g>
	<g id="LWPOLYLINE_45_">
		
			<rect x="45.176" y="53.052" fill="#FFDEC7" stroke="#000000" stroke-width="0.01" stroke-linecap="round" stroke-linejoin="round" stroke-miterlimit="10" width="7.02" height="9.026"/>
	</g>
	<g id="LWPOLYLINE_46_">
		
			<rect x="56.2" y="56.061" fill="#FFDEC7" stroke="#000000" stroke-width="0.01" stroke-linecap="round" stroke-linejoin="round" stroke-miterlimit="10" width="6.017" height="6.02"/>
	</g>
	<g id="LWPOLYLINE_47_">
		
			<rect x="28.608" y="65.029" fill="#FFDEC7" stroke="#000000" stroke-width="0.01" stroke-linecap="round" stroke-linejoin="round" stroke-miterlimit="10" width="8.023" height="4.012"/>
	</g>
	<g id="LWPOLYLINE_48_">
		
			<rect x="36.631" y="65.029" fill="#FFDEC7" stroke="#000000" stroke-width="0.01" stroke-linecap="round" stroke-linejoin="round" stroke-miterlimit="10" width="5.015" height="4.012"/>
	</g>
	<g id="LWPOLYLINE_49_">
		
			<rect x="65.226" y="56.061" fill="#FFDEC7" stroke="#000000" stroke-width="0.01" stroke-linecap="round" stroke-linejoin="round" stroke-miterlimit="10" width="6.017" height="3.01"/>
	</g>
	<g id="LWPOLYLINE_50_">
		
			<rect x="65.226" y="59.068" fill="#FFDEC7" stroke="#000000" stroke-width="0.01" stroke-linecap="round" stroke-linejoin="round" stroke-miterlimit="10" width="6.017" height="3.01"/>
	</g>
	<g id="LWPOLYLINE_51_">
		
			<rect x="71.243" y="56.061" fill="#FFDEC7" stroke="#000000" stroke-width="0.01" stroke-linecap="round" stroke-linejoin="round" stroke-miterlimit="10" width="3.009" height="6.02"/>
	</g>
	<g id="LWPOLYLINE_52_">
		
			<rect x="77.261" y="55.059" fill="#FFDEC7" stroke="#000000" stroke-width="0.01" stroke-linecap="round" stroke-linejoin="round" stroke-miterlimit="10" width="10.029" height="7.021"/>
	</g>
	<g id="LWPOLYLINE_53_">
		
			<rect x="60.625" y="65.087" fill="#FFDEC7" stroke="#000000" stroke-width="0.01" stroke-linecap="round" stroke-linejoin="round" stroke-miterlimit="10" width="4.012" height="3.009"/>
	</g>
	<g id="LWPOLYLINE_54_">
		
			<rect x="64.636" y="65.087" fill="#FFDEC7" stroke="#000000" stroke-width="0.01" stroke-linecap="round" stroke-linejoin="round" stroke-miterlimit="10" width="10.029" height="4.013"/>
	</g>
	<g id="LWPOLYLINE_55_">
		
			<rect x="74.665" y="65.087" fill="#FFDEC7" stroke="#000000" stroke-width="0.01" stroke-linecap="round" stroke-linejoin="round" stroke-miterlimit="10" width="3.009" height="3.009"/>
	</g>
	<g id="LWPOLYLINE_56_">
		
			<rect x="77.674" y="65.087" fill="#FFDEC7" stroke="#000000" stroke-width="0.01" stroke-linecap="round" stroke-linejoin="round" stroke-miterlimit="10" width="6.017" height="3.009"/>
	</g>
	<g id="LWPOLYLINE_59_">
		
			<rect x="93.307" y="51.046" fill="#FFDEC7" stroke="#000000" stroke-width="0.01" stroke-linecap="round" stroke-linejoin="round" stroke-miterlimit="10" width="5.015" height="11.032"/>
	</g>
	<g id="LWPOLYLINE_60_">
		
			<rect x="102.333" y="56.061" fill="#FFDEC7" stroke="#000000" stroke-width="0.01" stroke-linecap="round" stroke-linejoin="round" stroke-miterlimit="10" width="3.008" height="6.02"/>
	</g>
	<g id="LWPOLYLINE_61_">
		
			<rect x="105.341" y="56.061" fill="#FFDEC7" stroke="#000000" stroke-width="0.01" stroke-linecap="round" stroke-linejoin="round" stroke-miterlimit="10" width="6.018" height="6.02"/>
	</g>
	<g id="LWPOLYLINE_62_">
		
			<rect x="93.307" y="7.922" fill="#FFDEC7" stroke="#000000" stroke-width="0.01" stroke-linecap="round" stroke-linejoin="round" stroke-miterlimit="10" width="8.022" height="10.029"/>
	</g>
	<g id="LWPOLYLINE_63_">
		
			<rect x="101.33" y="7.922" fill="#FFDEC7" stroke="#000000" stroke-width="0.01" stroke-linecap="round" stroke-linejoin="round" stroke-miterlimit="10" width="6.02" height="10.029"/>
	</g>
	<g id="LWPOLYLINE_64_">
		
			<rect x="97.432" y="1.905" fill="#FFDEC7" stroke="#000000" stroke-width="0.01" stroke-linecap="round" stroke-linejoin="round" stroke-miterlimit="10" width="6.019" height="3.009"/>
	</g>
	<g id="LWPOLYLINE_65_">
		
			<rect x="103.449" y="1.905" fill="#FFDEC7" stroke="#000000" stroke-width="0.01" stroke-linecap="round" stroke-linejoin="round" stroke-miterlimit="10" width="3.01" height="3.009"/>
	</g>
	<g id="LWPOLYLINE_66_">
		
			<rect x="106.458" y="1.905" fill="#FFDEC7" stroke="#000000" stroke-width="0.01" stroke-linecap="round" stroke-linejoin="round" stroke-miterlimit="10" width="6.017" height="3.009"/>
	</g>
	<g id="LWPOLYLINE_67_">
		
			<rect x="112.475" y="1.905" fill="#FFDEC7" stroke="#000000" stroke-width="0.01" stroke-linecap="round" stroke-linejoin="round" stroke-miterlimit="10" width="6.019" height="3.009"/>
	</g>
	<g id="LWPOLYLINE_68_">
		
			<rect x="110.356" y="7.922" fill="#FFDEC7" stroke="#000000" stroke-width="0.01" stroke-linecap="round" stroke-linejoin="round" stroke-miterlimit="10" width="6.017" height="9.026"/>
	</g>
	<g id="LWPOLYLINE_69_">
		
			<rect x="119.382" y="7.922" fill="#FFDEC7" stroke="#000000" stroke-width="0.01" stroke-linecap="round" stroke-linejoin="round" stroke-miterlimit="10" width="5.015" height="10.029"/>
	</g>
	<g id="LWPOLYLINE_70_">
		
			<rect x="93.307" y="20.959" fill="#FFDEC7" stroke="#000000" stroke-width="0.01" stroke-linecap="round" stroke-linejoin="round" stroke-miterlimit="10" width="9.026" height="12.035"/>
	</g>
	<g id="LWPOLYLINE_71_">
		
			<rect x="104.339" y="20.959" fill="#FFDEC7" stroke="#000000" stroke-width="0.01" stroke-linecap="round" stroke-linejoin="round" stroke-miterlimit="10" width="6.018" height="12.035"/>
	</g>
	<g id="LWPOLYLINE_72_">
		
			<rect x="112.361" y="19.957" fill="#FFDEC7" stroke="#000000" stroke-width="0.01" stroke-linecap="round" stroke-linejoin="round" stroke-miterlimit="10" width="12.035" height="13.038"/>
	</g>
	<g id="LWPOLYLINE_73_">
		
			<rect x="93.307" y="37.006" fill="#FFDEC7" stroke="#000000" stroke-width="0.01" stroke-linecap="round" stroke-linejoin="round" stroke-miterlimit="10" width="6.019" height="10.028"/>
	</g>
	<g id="LWPOLYLINE_74_">
		
			<rect x="102.708" y="37.006" fill="#FFDEC7" stroke="#000000" stroke-width="0.01" stroke-linecap="round" stroke-linejoin="round" stroke-miterlimit="10" width="11.283" height="8.023"/>
	</g>
	<g id="LWPOLYLINE_75_">
		
			<rect x="102.333" y="47.536" fill="#FFDEC7" stroke="#000000" stroke-width="0.01" stroke-linecap="round" stroke-linejoin="round" stroke-miterlimit="10" width="3.008" height="6.019"/>
	</g>
	<g id="LWPOLYLINE_76_">
		
			<rect x="105.341" y="47.536" fill="#FFDEC7" stroke="#000000" stroke-width="0.01" stroke-linecap="round" stroke-linejoin="round" stroke-miterlimit="10" width="7.021" height="6.019"/>
	</g>
	<g id="LWPOLYLINE_77_">
		
			<rect x="115.371" y="48.539" fill="#FFDEC7" stroke="#000000" stroke-width="0.01" stroke-linecap="round" stroke-linejoin="round" stroke-miterlimit="10" width="9.025" height="6.018"/>
	</g>
	<g id="LWPOLYLINE_78_">
		
			<rect x="117.376" y="37.006" fill="#FFDEC7" stroke="#000000" stroke-width="0.01" stroke-linecap="round" stroke-linejoin="round" stroke-miterlimit="10" width="7.021" height="9.026"/>
	</g>
	<g id="LWPOLYLINE_79_">
		
			<rect x="115.371" y="57.063" fill="#FFDEC7" stroke="#000000" stroke-width="0.01" stroke-linecap="round" stroke-linejoin="round" stroke-miterlimit="10" width="9.025" height="5.017"/>
	</g>
	<g id="LWPOLYLINE_80_">
		
			<rect x="98.104" y="65.087" fill="#FFDEC7" stroke="#000000" stroke-width="0.01" stroke-linecap="round" stroke-linejoin="round" stroke-miterlimit="10" width="6.771" height="4.013"/>
	</g>
	<g id="LWPOLYLINE_81_">
		
			<rect x="104.873" y="65.087" fill="#FFDEC7" stroke="#000000" stroke-width="0.01" stroke-linecap="round" stroke-linejoin="round" stroke-miterlimit="10" width="8.023" height="4.013"/>
	</g>
	<g id="LWPOLYLINE_82_">
		
			<rect x="112.896" y="65.087" fill="#FFDEC7" stroke="#000000" stroke-width="0.01" stroke-linecap="round" stroke-linejoin="round" stroke-miterlimit="10" width="6.018" height="3.009"/>
	</g>
	<g id="LWPOLYLINE_83_">
		
			<rect x="133.671" y="1.905" fill="#FFDEC7" stroke="#000000" stroke-width="0.01" stroke-linecap="round" stroke-linejoin="round" stroke-miterlimit="10" width="6.019" height="3.009"/>
	</g>
	<g id="LWPOLYLINE_84_">
		
			<rect x="139.689" y="1.905" fill="#FFDEC7" stroke="#000000" stroke-width="0.01" stroke-linecap="round" stroke-linejoin="round" stroke-miterlimit="10" width="3.01" height="3.009"/>
	</g>
	<g id="LWPOLYLINE_85_">
		
			<rect x="142.699" y="0.902" fill="#FFDEC7" stroke="#000000" stroke-width="0.01" stroke-linecap="round" stroke-linejoin="round" stroke-miterlimit="10" width="5.014" height="4.012"/>
	</g>
	<g id="LWPOLYLINE_86_">
		
			<rect x="147.712" y="1.905" fill="#FFDEC7" stroke="#000000" stroke-width="0.01" stroke-linecap="round" stroke-linejoin="round" stroke-miterlimit="10" width="6.019" height="3.009"/>
	</g>
	<g id="LWPOLYLINE_87_">
		
			<rect x="128.408" y="7.922" fill="#FFDEC7" stroke="#000000" stroke-width="0.01" stroke-linecap="round" stroke-linejoin="round" stroke-miterlimit="10" width="6.018" height="6.018"/>
	</g>
	<g id="LWPOLYLINE_88_">
		
			<rect x="134.425" y="7.922" fill="#FFDEC7" stroke="#000000" stroke-width="0.01" stroke-linecap="round" stroke-linejoin="round" stroke-miterlimit="10" width="6.018" height="6.018"/>
	</g>
	<g id="LWPOLYLINE_89_">
		
			<rect x="143.451" y="7.922" fill="#FFDEC7" stroke="#000000" stroke-width="0.01" stroke-linecap="round" stroke-linejoin="round" stroke-miterlimit="10" width="6.02" height="6.018"/>
	</g>
	<g id="LWPOLYLINE_90_">
		
			<rect x="149.468" y="7.922" fill="#FFDEC7" stroke="#000000" stroke-width="0.01" stroke-linecap="round" stroke-linejoin="round" stroke-miterlimit="10" width="11.031" height="6.018"/>
	</g>
	<g id="LWPOLYLINE_91_">
		
			<rect x="128.408" y="16.948" fill="#FFDEC7" stroke="#000000" stroke-width="0.01" stroke-linecap="round" stroke-linejoin="round" stroke-miterlimit="10" width="6.018" height="6.017"/>
	</g>
	<g id="LWPOLYLINE_92_">
		
			<rect x="134.425" y="16.948" fill="#FFDEC7" stroke="#000000" stroke-width="0.01" stroke-linecap="round" stroke-linejoin="round" stroke-miterlimit="10" width="6.018" height="6.017"/>
	</g>
	<g id="LWPOLYLINE_93_">
		
			<rect x="143.451" y="15.945" fill="#FFDEC7" stroke="#000000" stroke-width="0.01" stroke-linecap="round" stroke-linejoin="round" stroke-miterlimit="10" width="17.049" height="7.02"/>
	</g>
	<g id="LWPOLYLINE_94_">
		
			<rect x="164.512" y="9.928" fill="#FFDEC7" stroke="#000000" stroke-width="0.01" stroke-linecap="round" stroke-linejoin="round" stroke-miterlimit="10" width="6.018" height="5.015"/>
	</g>
	<g id="LWPOLYLINE_95_">
		
			<rect x="164.512" y="14.942" fill="#FFDEC7" stroke="#000000" stroke-width="0.01" stroke-linecap="round" stroke-linejoin="round" stroke-miterlimit="10" width="6.018" height="6.017"/>
	</g>
	<g id="LWPOLYLINE_96_">
		
			<rect x="128.408" y="25.974" fill="#FFDEC7" stroke="#000000" stroke-width="0.01" stroke-linecap="round" stroke-linejoin="round" stroke-miterlimit="10" width="6.018" height="7.02"/>
	</g>
	<g id="LWPOLYLINE_97_">
		
			<rect x="134.425" y="25.974" fill="#FFDEC7" stroke="#000000" stroke-width="0.01" stroke-linecap="round" stroke-linejoin="round" stroke-miterlimit="10" width="8.021" height="7.02"/>
	</g>
	<g id="LWPOLYLINE_98_">
		
			<rect x="145.457" y="24.971" fill="#FFDEC7" stroke="#000000" stroke-width="0.01" stroke-linecap="round" stroke-linejoin="round" stroke-miterlimit="10" width="15.043" height="8.023"/>
	</g>
	<g id="LWPOLYLINE_99_">
		
			<rect x="164.512" y="23.968" fill="#FFDEC7" stroke="#000000" stroke-width="0.01" stroke-linecap="round" stroke-linejoin="round" stroke-miterlimit="10" width="8.022" height="9.026"/>
	</g>
	<g id="LWPOLYLINE_100_">
		
			<rect x="128.408" y="37.006" fill="#FFDEC7" stroke="#000000" stroke-width="0.01" stroke-linecap="round" stroke-linejoin="round" stroke-miterlimit="10" width="13.539" height="10.028"/>
	</g>
	<g id="LWPOLYLINE_101_">
		
			<rect x="146.46" y="37.006" fill="#FFDEC7" stroke="#000000" stroke-width="0.01" stroke-linecap="round" stroke-linejoin="round" stroke-miterlimit="10" width="6.018" height="6.018"/>
	</g>
	<g id="LWPOLYLINE_102_">
		
			<rect x="152.478" y="37.006" fill="#FFDEC7" stroke="#000000" stroke-width="0.01" stroke-linecap="round" stroke-linejoin="round" stroke-miterlimit="10" width="8.021" height="6.018"/>
	</g>
	<g id="LWPOLYLINE_103_">
		
			<rect x="164.512" y="37.006" fill="#FFDEC7" stroke="#000000" stroke-width="0.01" stroke-linecap="round" stroke-linejoin="round" stroke-miterlimit="10" width="8.022" height="6.018"/>
	</g>
	<g id="LWPOLYLINE_104_">
		
			<rect x="145.457" y="45.029" fill="#FFDEC7" stroke="#000000" stroke-width="0.01" stroke-linecap="round" stroke-linejoin="round" stroke-miterlimit="10" width="15.043" height="9.025"/>
	</g>
	<g id="LWPOLYLINE_105_">
		
			<rect x="164.512" y="46.032" fill="#FFDEC7" stroke="#000000" stroke-width="0.01" stroke-linecap="round" stroke-linejoin="round" stroke-miterlimit="10" width="8.022" height="6.519"/>
	</g>
	<g id="LWPOLYLINE_106_">
		
			<rect x="128.408" y="52.049" fill="#FFDEC7" stroke="#000000" stroke-width="0.01" stroke-linecap="round" stroke-linejoin="round" stroke-miterlimit="10" width="4.012" height="10.029"/>
	</g>
	<g id="LWPOLYLINE_107_">
		
			<rect x="134.675" y="50.043" fill="#FFDEC7" stroke="#000000" stroke-width="0.01" stroke-linecap="round" stroke-linejoin="round" stroke-miterlimit="10" width="6.019" height="4.012"/>
	</g>
	<g id="LWPOLYLINE_108_">
		
			<polygon fill="#FFDEC7" stroke="#000000" stroke-width="0.01" stroke-linecap="round" stroke-linejoin="round" stroke-miterlimit="10" points="
			140.693,56.061 140.693,59.068 137.685,59.068 137.685,62.078 134.675,62.078 134.675,56.061 		"/>
	</g>
	<g id="LWPOLYLINE_109_">
		
			<rect x="137.685" y="59.068" fill="#FFDEC7" stroke="#000000" stroke-width="0.01" stroke-linecap="round" stroke-linejoin="round" stroke-miterlimit="10" width="3.009" height="3.01"/>
	</g>
	<g id="LWPOLYLINE_110_">
		
			<rect x="142.951" y="56.061" fill="#FFDEC7" stroke="#000000" stroke-width="0.01" stroke-linecap="round" stroke-linejoin="round" stroke-miterlimit="10" width="6.016" height="6.02"/>
	</g>
	<g id="LWPOLYLINE_111_">
		
			<rect x="151.475" y="56.061" fill="#FFDEC7" stroke="#000000" stroke-width="0.01" stroke-linecap="round" stroke-linejoin="round" stroke-miterlimit="10" width="9.024" height="6.02"/>
	</g>
	<g id="LWPOLYLINE_112_">
		
			<rect x="164.512" y="55.059" fill="#FFDEC7" stroke="#000000" stroke-width="0.01" stroke-linecap="round" stroke-linejoin="round" stroke-miterlimit="10" width="8.022" height="5.016"/>
	</g>
	<g id="LWPOLYLINE_113_">
		
			<rect x="133.013" y="65.087" fill="#FFDEC7" stroke="#000000" stroke-width="0.01" stroke-linecap="round" stroke-linejoin="round" stroke-miterlimit="10" width="6.017" height="3.009"/>
	</g>
	<g id="LWPOLYLINE_114_">
		
			<rect x="139.029" y="65.087" fill="#FFDEC7" stroke="#000000" stroke-width="0.01" stroke-linecap="round" stroke-linejoin="round" stroke-miterlimit="10" width="3.01" height="3.009"/>
	</g>
	<g id="LWPOLYLINE_115_">
		
			<rect x="142.039" y="65.087" fill="#FFDEC7" stroke="#000000" stroke-width="0.01" stroke-linecap="round" stroke-linejoin="round" stroke-miterlimit="10" width="6.019" height="3.009"/>
	</g>
	<g id="LWPOLYLINE_116_">
		
			<rect x="148.056" y="65.087" fill="#FFDEC7" stroke="#000000" stroke-width="0.01" stroke-linecap="round" stroke-linejoin="round" stroke-miterlimit="10" width="6.018" height="3.009"/>
	</g>
	<g id="LWPOLYLINE_117_">
		
			<rect x="180.458" y="12.51" fill="#FFDEC7" stroke="#000000" stroke-width="0.01" stroke-linecap="round" stroke-linejoin="round" stroke-miterlimit="10" width="5.519" height="7.321"/>
	</g>
	<g id="LWPOLYLINE_118_">
		
			<rect x="180.507" y="20.082" fill="#FFDEC7" stroke="#000000" stroke-width="0.01" stroke-linecap="round" stroke-linejoin="round" stroke-miterlimit="10" width="5.47" height="14.843"/>
	</g>
	<g id="LWPOLYLINE_119_">
		
			<rect x="180.507" y="35.075" fill="#FFDEC7" stroke="#000000" stroke-width="0.01" stroke-linecap="round" stroke-linejoin="round" stroke-miterlimit="10" width="5.47" height="14.843"/>
	</g>
	<g id="LWPOLYLINE_120_">
		
			<rect x="182.559" y="50.169" fill="#FFDEC7" stroke="#000000" stroke-width="0.01" stroke-linecap="round" stroke-linejoin="round" stroke-miterlimit="10" width="3.418" height="7.321"/>
	</g>
	<g id="LWPOLYLINE_121_">
		
			<rect x="6.268" y="20.032" fill="#FFDEC7" stroke="#000000" stroke-width="0.01" stroke-linecap="round" stroke-linejoin="round" stroke-miterlimit="10" width="4.1" height="29.936"/>
	</g>
</g>
<g id="LUNKUO-02">
	<g id="LWPOLYLINE_125_">
		<polygon fill="none" points="0,5.015 0,65.188 6.28,65.188 6.28,70.203 166.328,70.203 186.275,70.203 186.275,0 6.28,0 
			6.28,5.015 		"/>
	</g>
</g>
<g id="device">
	<circle id="E4:95:6E:4C:55:1C" fill="#FC0322" cx="168.212" cy="58" r="0.5"/>
	<circle id="E4:95:6E:4C:55:75" fill="#FC0322" cx="167.712" cy="17.95" r="0.5"/>
	<circle id="E4:95:6E:4C:55:58" fill="#FC0322" cx="156.489" cy="40.016" r="0.5"/>
	<circle id="E4:95:6E:4C:55:B1" fill="#FC0322" cx="146.46" cy="10.931" r="0.5"/>
	<circle id="E4:95:6E:4C:54:31" fill="#FC0322" cx="137.685" cy="52.447" r="0.5"/>
	<circle id="E4:95:6E:4C:55:7D" fill="#FC0322" cx="108.35" cy="50.545" r="0.5"/>
	<circle id="E4:95:6E:4C:54:6B" fill="#FC0322" cx="118.494" cy="26.476" r="0.5"/>
	<circle id="E4:95:6E:4C:55:07" fill="#FC0322" cx="122.39" cy="11.433" r="0.5"/>
	<circle id="E4:95:6E:4C:54:7D" fill="#FC0322" cx="77.674" cy="44.527" r="0.5"/>
	<circle id="E4:95:6E:4C:54:CD" fill="#FC0322" cx="82.276" cy="29.484" r="0.5"/>
	<circle id="E4:95:6E:4C:54:09" fill="#FC0322" cx="82.276" cy="11.431" r="0.5"/>
	<circle id="E4:95:6E:4C:55:08" fill="#FC0322" cx="60.625" cy="44.527" r="0.5"/>
	<circle id="E4:95:6E:4C:54:6C" fill="#FC0322" cx="61.522" cy="11.433" r="0.5"/>
	<circle id="E4:95:6E:4C:55:04" fill="#FC0322" cx="48.686" cy="58" r="0.5"/>
	<circle id="E4:95:6E:4C:54:B1" fill="#FC0322" cx="44.478" cy="27.503" r="0.5"/>
	<circle id="E4:95:6E:4C:54:0F" fill="#FC0322" cx="31.128" cy="49.918" r="0.5"/>
	<circle id="E4:95:6E:4C:54:C0" fill="#FC0322" cx="25.118" cy="10.431" r="0.5"/>
	<circle id="E4:95:6E:4C:55:7B" fill="#FC0322" cx="15.59" cy="29.985" r="0.5"/>
</g>
<g id="展会大门">
	<g>
		<g>
			<text transform="matrix(1.0002 0 0 1 15.5313 3.8691)" fill="#020002" font-family="'Arial-BoldMT'" font-size="1.1921">10</text>
			<text transform="matrix(1.0002 0 0 1 16.769 3.8691)" fill="#020002" font-family="'SimSun'" font-size="1.2146">号门</text>
		</g>
		<g>
			
				<line fill="none" stroke="#020002" stroke-width="0.01" stroke-linecap="square" stroke-miterlimit="10" x1="20.038" y1="2.406" x2="20.038" y2="0.13"/>
			
				<line fill="none" stroke="#020002" stroke-width="0.01" stroke-linecap="square" stroke-miterlimit="10" x1="19.97" y1="0.13" x2="19.97" y2="2.406"/>
			<polyline fill="none" stroke="#020002" stroke-width="0.01" stroke-linecap="square" stroke-miterlimit="10" points="
				17.762,0.13 17.851,0.828 18.19,1.482 18.685,1.978 19.339,2.293 20.038,2.406 			"/>
			
				<line fill="none" stroke="#020002" stroke-width="0.01" stroke-linecap="square" stroke-miterlimit="10" x1="15.463" y1="2.406" x2="15.463" y2="0.13"/>
			
				<line fill="none" stroke="#020002" stroke-width="0.01" stroke-linecap="square" stroke-miterlimit="10" x1="15.531" y1="0.13" x2="15.531" y2="2.406"/>
			<polyline fill="none" stroke="#020002" stroke-width="0.01" stroke-linecap="square" stroke-miterlimit="10" points="
				15.463,2.406 16.162,2.293 16.815,1.978 17.31,1.482 17.648,0.828 17.762,0.13 			"/>
		</g>
	</g>
	<g>
		<g>
			<text transform="matrix(1.0002 0 0 1 52.7896 3.9561)" fill="#050005" font-family="'Arial-BoldMT'" font-size="1.1921">9</text>
			<text transform="matrix(1.0002 0 0 1 53.4639 3.9521)" fill="#050005" font-family="'SimSun'" font-size="1.2146">号门</text>
		</g>
		<g>
			
				<line fill="none" stroke="#020002" stroke-width="0.01" stroke-linecap="square" stroke-miterlimit="10" x1="56.488" y1="2.487" x2="56.488" y2="0.211"/>
			
				<line fill="none" stroke="#020002" stroke-width="0.01" stroke-linecap="square" stroke-miterlimit="10" x1="56.42" y1="0.211" x2="56.42" y2="2.487"/>
			<polyline fill="none" stroke="#020002" stroke-width="0.01" stroke-linecap="square" stroke-miterlimit="10" points="
				54.189,0.211 54.301,0.91 54.617,1.563 55.135,2.059 55.767,2.375 56.488,2.487 			"/>
			
				<line fill="none" stroke="#020002" stroke-width="0.01" stroke-linecap="square" stroke-miterlimit="10" x1="51.89" y1="2.487" x2="51.89" y2="0.211"/>
			
				<line fill="none" stroke="#020002" stroke-width="0.01" stroke-linecap="square" stroke-miterlimit="10" x1="51.958" y1="0.211" x2="51.958" y2="2.487"/>
			<polyline fill="none" stroke="#020002" stroke-width="0.01" stroke-linecap="square" stroke-miterlimit="10" points="
				51.89,2.487 52.611,2.375 53.242,2.059 53.761,1.563 54.077,0.91 54.189,0.211 			"/>
		</g>
	</g>
	<g>
		<g>
			<text transform="matrix(1.0002 0 0 1 89.1865 4.0137)" fill="#020002" font-family="'Arial-BoldMT'" font-size="1.1921">8</text>
			<text transform="matrix(1.0002 0 0 1 89.8604 4.0176)" fill="#020002" font-family="'SimSun'" font-size="1.2146">号门</text>
		</g>
		<g>
			
				<line fill="none" stroke="#050005" stroke-width="0.01" stroke-linecap="square" stroke-miterlimit="10" x1="92.96" y1="2.548" x2="92.96" y2="0.271"/>
			
				<line fill="none" stroke="#050005" stroke-width="0.01" stroke-linecap="square" stroke-miterlimit="10" x1="92.89" y1="0.271" x2="92.89" y2="2.548"/>
			<polyline fill="none" stroke="#050005" stroke-width="0.01" stroke-linecap="square" stroke-miterlimit="10" points="
				90.66,0.271 90.775,0.971 91.111,1.624 91.607,2.119 92.261,2.436 92.96,2.548 			"/>
			
				<line fill="none" stroke="#050005" stroke-width="0.01" stroke-linecap="square" stroke-miterlimit="10" x1="88.384" y1="2.548" x2="88.384" y2="0.271"/>
			
				<line fill="none" stroke="#050005" stroke-width="0.01" stroke-linecap="square" stroke-miterlimit="10" x1="88.453" y1="0.271" x2="88.453" y2="2.548"/>
			<polyline fill="none" stroke="#050005" stroke-width="0.01" stroke-linecap="square" stroke-miterlimit="10" points="
				88.384,2.548 89.083,2.436 89.714,2.119 90.232,1.624 90.548,0.971 90.66,0.271 			"/>
		</g>
	</g>
	<g>
		<g>
			<text transform="matrix(1.0002 0 0 1 125.3296 4.0088)" fill="#020002" font-family="'Arial-BoldMT'" font-size="1.1921">7</text>
			<text transform="matrix(1.0002 0 0 1 126.0054 4.0127)" fill="#020002" font-family="'SimSun'" font-size="1.2146">号门</text>
		</g>
		<g>
			
				<line fill="none" stroke="#050005" stroke-width="0.01" stroke-linecap="square" stroke-miterlimit="10" x1="128.979" y1="2.548" x2="128.979" y2="0.271"/>
			
				<line fill="none" stroke="#050005" stroke-width="0.01" stroke-linecap="square" stroke-miterlimit="10" x1="128.913" y1="0.271" x2="128.913" y2="2.548"/>
			<polyline fill="none" stroke="#050005" stroke-width="0.01" stroke-linecap="square" stroke-miterlimit="10" points="
				126.704,0.271 126.817,0.971 127.133,1.602 127.627,2.119 128.282,2.436 128.979,2.548 			"/>
			
				<line fill="none" stroke="#050005" stroke-width="0.01" stroke-linecap="square" stroke-miterlimit="10" x1="124.407" y1="2.548" x2="124.407" y2="0.271"/>
			
				<line fill="none" stroke="#050005" stroke-width="0.01" stroke-linecap="square" stroke-miterlimit="10" x1="124.473" y1="0.271" x2="124.473" y2="2.548"/>
			<polyline fill="none" stroke="#050005" stroke-width="0.01" stroke-linecap="square" stroke-miterlimit="10" points="
				124.407,2.548 125.106,2.436 125.76,2.119 126.252,1.602 126.588,0.971 126.704,0.271 			"/>
		</g>
	</g>
	<g>
		<g>
			<text transform="matrix(1.0002 0 0 1 161.1499 4.0176)" fill="#020002" font-family="'Arial-BoldMT'" font-size="1.1921">6</text>
			<text transform="matrix(1.0002 0 0 1 162.355 3.9844)" fill="#020002" font-family="'SimSun'" font-size="1.2146">号门</text>
		</g>
		<g>
			
				<line fill="none" stroke="#020002" stroke-width="0.01" stroke-linecap="square" stroke-miterlimit="10" x1="165.332" y1="2.57" x2="165.332" y2="0.271"/>
			
				<line fill="none" stroke="#020002" stroke-width="0.01" stroke-linecap="square" stroke-miterlimit="10" x1="165.263" y1="0.271" x2="165.263" y2="2.57"/>
			<polyline fill="none" stroke="#020002" stroke-width="0.01" stroke-linecap="square" stroke-miterlimit="10" points="
				163.029,0.271 163.144,0.97 163.458,1.624 163.978,2.119 164.609,2.457 165.332,2.57 			"/>
			
				<line fill="none" stroke="#020002" stroke-width="0.01" stroke-linecap="square" stroke-miterlimit="10" x1="160.734" y1="2.57" x2="160.734" y2="0.271"/>
			
				<line fill="none" stroke="#020002" stroke-width="0.01" stroke-linecap="square" stroke-miterlimit="10" x1="160.804" y1="0.271" x2="160.804" y2="2.57"/>
			<polyline fill="none" stroke="#020002" stroke-width="0.01" stroke-linecap="square" stroke-miterlimit="10" points="
				160.734,2.57 161.453,2.457 162.085,2.119 162.603,1.624 162.917,0.97 163.029,0.271 			"/>
		</g>
	</g>
	<g>
		<g>
			<text transform="matrix(1.0002 0 0 1 15.9121 66.6885)" fill="#020002" font-family="'Arial-BoldMT'" font-size="1.1921">5</text>
			<text transform="matrix(1.0002 0 0 1 16.5669 66.6865)" fill="#020002" font-family="'SimSun'" font-size="1.2146">号门</text>
		</g>
		<g>
			
				<line fill="none" stroke="#000000" stroke-width="0.01" stroke-linecap="square" stroke-miterlimit="10" x1="19.664" y1="67.366" x2="19.664" y2="69.661"/>
			
				<line fill="none" stroke="#000000" stroke-width="0.01" stroke-linecap="square" stroke-miterlimit="10" x1="19.597" y1="69.661" x2="19.597" y2="67.366"/>
			<polyline fill="none" stroke="#000000" stroke-width="0.01" stroke-linecap="square" stroke-miterlimit="10" points="
				17.389,69.661 17.477,68.964 17.817,68.313 18.311,67.815 18.966,67.479 19.664,67.366 			"/>
			
				<line fill="none" stroke="#000000" stroke-width="0.01" stroke-linecap="square" stroke-miterlimit="10" x1="15.09" y1="67.366" x2="15.09" y2="69.661"/>
			
				<line fill="none" stroke="#000000" stroke-width="0.01" stroke-linecap="square" stroke-miterlimit="10" x1="15.158" y1="69.661" x2="15.158" y2="67.366"/>
			<polyline fill="none" stroke="#000000" stroke-width="0.01" stroke-linecap="square" stroke-miterlimit="10" points="
				15.09,67.366 15.789,67.479 16.442,67.815 16.937,68.313 17.275,68.964 17.389,69.661 			"/>
		</g>
	</g>
	<g>
		<g>
			<text transform="matrix(1.0002 0 0 1 52.7051 66.6807)" font-family="'Arial-BoldMT'" font-size="1.1921">4</text>
			<text transform="matrix(1.0002 0 0 1 53.376 66.6787)" font-family="'SimSun'" font-size="1.2146">号门</text>
		</g>
		<g>
			
				<line fill="none" stroke="#020002" stroke-width="0.01" stroke-linecap="square" stroke-miterlimit="10" x1="56.488" y1="67.358" x2="56.488" y2="69.651"/>
			
				<line fill="none" stroke="#020002" stroke-width="0.01" stroke-linecap="square" stroke-miterlimit="10" x1="56.421" y1="69.651" x2="56.421" y2="67.358"/>
			<polyline fill="none" stroke="#020002" stroke-width="0.01" stroke-linecap="square" stroke-miterlimit="10" points="
				54.189,69.651 54.302,68.954 54.617,68.304 55.136,67.808 55.767,67.47 56.488,67.358 			"/>
			
				<line fill="none" stroke="#020002" stroke-width="0.01" stroke-linecap="square" stroke-miterlimit="10" x1="51.892" y1="67.358" x2="51.892" y2="69.651"/>
			
				<line fill="none" stroke="#020002" stroke-width="0.01" stroke-linecap="square" stroke-miterlimit="10" x1="51.958" y1="69.651" x2="51.958" y2="67.358"/>
			<polyline fill="none" stroke="#020002" stroke-width="0.01" stroke-linecap="square" stroke-miterlimit="10" points="
				51.892,67.358 52.611,67.47 53.242,67.808 53.762,68.304 54.078,68.954 54.189,69.651 			"/>
		</g>
	</g>
	<g>
		<g>
			<text transform="matrix(1.0002 0 0 1 88.8613 66.9463)" fill="#020002" font-family="'Arial-BoldMT'" font-size="1.1921">3</text>
			<text transform="matrix(1.0002 0 0 1 89.5381 66.9424)" fill="#020002" font-family="'SimSun'" font-size="1.2146">号门</text>
		</g>
		<g>
			
				<line fill="none" stroke="#020002" stroke-width="0.01" stroke-linecap="square" stroke-miterlimit="10" x1="92.638" y1="67.306" x2="92.638" y2="69.599"/>
			
				<line fill="none" stroke="#020002" stroke-width="0.01" stroke-linecap="square" stroke-miterlimit="10" x1="92.568" y1="69.599" x2="92.568" y2="67.306"/>
			<polyline fill="none" stroke="#020002" stroke-width="0.01" stroke-linecap="square" stroke-miterlimit="10" points="
				90.335,69.599 90.451,68.901 90.787,68.251 91.283,67.755 91.937,67.417 92.638,67.306 			"/>
			
				<line fill="none" stroke="#020002" stroke-width="0.01" stroke-linecap="square" stroke-miterlimit="10" x1="88.059" y1="67.306" x2="88.059" y2="69.599"/>
			
				<line fill="none" stroke="#020002" stroke-width="0.01" stroke-linecap="square" stroke-miterlimit="10" x1="88.127" y1="69.599" x2="88.127" y2="67.306"/>
			<polyline fill="none" stroke="#020002" stroke-width="0.01" stroke-linecap="square" stroke-miterlimit="10" points="
				88.059,67.306 88.759,67.417 89.392,67.755 89.908,68.251 90.224,68.901 90.335,69.599 			"/>
		</g>
	</g>
	<g>
		<g>
			<text transform="matrix(1.0002 0 0 1 124.9565 66.6777)" fill="#020002" font-family="'Arial-BoldMT'" font-size="1.1921">2</text>
			<text transform="matrix(1.0002 0 0 1 125.6323 66.6748)" fill="#020002" font-family="'SimSun'" font-size="1.2146">号门</text>
		</g>
		<g>
			
				<line fill="none" stroke="#050005" stroke-width="0.01" stroke-linecap="square" stroke-miterlimit="10" x1="128.606" y1="67.53" x2="128.606" y2="69.802"/>
			
				<line fill="none" stroke="#050005" stroke-width="0.01" stroke-linecap="square" stroke-miterlimit="10" x1="128.54" y1="69.802" x2="128.54" y2="67.53"/>
			<polyline fill="none" stroke="#050005" stroke-width="0.01" stroke-linecap="square" stroke-miterlimit="10" points="
				126.331,69.802 126.444,69.104 126.76,68.454 127.254,67.958 127.909,67.642 128.606,67.53 			"/>
			
				<line fill="none" stroke="#050005" stroke-width="0.01" stroke-linecap="square" stroke-miterlimit="10" x1="124.034" y1="67.53" x2="124.034" y2="69.802"/>
			
				<line fill="none" stroke="#050005" stroke-width="0.01" stroke-linecap="square" stroke-miterlimit="10" x1="124.1" y1="69.802" x2="124.1" y2="67.53"/>
			<polyline fill="none" stroke="#050005" stroke-width="0.01" stroke-linecap="square" stroke-miterlimit="10" points="
				124.034,67.53 124.733,67.642 125.387,67.958 125.879,68.454 126.215,69.104 126.331,69.802 			"/>
		</g>
	</g>
	<g>
		<g>
			<text transform="matrix(1.0002 0 0 1 161.4858 67.2822)" fill="#020002" font-family="'Arial-BoldMT'" font-size="1.1921">1</text>
			<text transform="matrix(1.0002 0 0 1 162.189 67.2803)" fill="#020002" font-family="'SimSun'" font-size="1.2146">号门</text>
		</g>
		<g>
			
				<line fill="none" stroke="#070007" stroke-width="0.01" stroke-linecap="square" stroke-miterlimit="10" x1="164.958" y1="67.776" x2="164.958" y2="70.074"/>
			
				<line fill="none" stroke="#070007" stroke-width="0.01" stroke-linecap="square" stroke-miterlimit="10" x1="164.89" y1="70.074" x2="164.89" y2="67.776"/>
			<polyline fill="none" stroke="#070007" stroke-width="0.01" stroke-linecap="square" stroke-miterlimit="10" points="
				162.656,70.074 162.771,69.353 163.085,68.722 163.605,68.206 164.236,67.888 164.958,67.776 			"/>
			
				<line fill="none" stroke="#070007" stroke-width="0.01" stroke-linecap="square" stroke-miterlimit="10" x1="160.361" y1="67.776" x2="160.361" y2="70.074"/>
			
				<line fill="none" stroke="#070007" stroke-width="0.01" stroke-linecap="square" stroke-miterlimit="10" x1="160.431" y1="70.074" x2="160.431" y2="67.776"/>
			<polyline fill="none" stroke="#070007" stroke-width="0.01" stroke-linecap="square" stroke-miterlimit="10" points="
				160.361,67.776 161.08,67.888 161.712,68.206 162.23,68.722 162.544,69.353 162.656,70.074 			"/>
		</g>
	</g>
</g>
</svg>
