<?xml version="1.0" encoding="utf-8"?>
<!-- Generator: Adobe Illustrator 16.0.0, SVG Export Plug-In . SVG Version: 6.00 Build 0)  -->
<!DOCTYPE svg PUBLIC "-//W3C//DTD SVG 1.1//EN" "http://www.w3.org/Graphics/SVG/1.1/DTD/svg11.dtd">
<svg version="1.1" id="图层_1" xmlns="http://www.w3.org/2000/svg" xmlns:xlink="http://www.w3.org/1999/xlink" x="0px" y="0px"
	 width="185.76px" height="89.221px" viewBox="0 0 185.76 89.221" enable-background="new 0 0 185.76 89.221" xml:space="preserve">
<g id="轮廓">
	<g id="LWPOLYLINE">
		
			<polyline fill="#FCFBE3" stroke="#020201" stroke-width="0.01" stroke-linecap="round" stroke-linejoin="round" stroke-miterlimit="10" points="
			6.323,13.355 6.241,13.416 6.241,18.357 0,18.357 0,78.375 6.163,78.375 6.241,78.375 6.241,83.315 6.323,83.397 165.851,83.397 
			165.851,89.25 176.155,89.25 176.155,83.406 185.679,83.397 185.76,83.315 185.76,13.416 185.679,13.334 184.028,13.334 
			184.022,13.334 184.022,12.874 184.05,12.847 184.69,12.847 184.772,12.765 184.772,0.001 165.851,0.001 165.851,13.355 
			6.323,13.355 		"/>
	</g>
</g>
<g id="svg商铺">
	<g id="LWPOLYLINE_1_">
		
			<rect x="24.176" y="21.356" fill="#FFDEC7" stroke="#020201" stroke-width="0.01" stroke-linecap="round" stroke-linejoin="round" stroke-miterlimit="10" width="6" height="6.002"/>
	</g>
	<g id="LWPOLYLINE_2_">
		
			<rect x="33.426" y="30.36" fill="#FFDEC7" stroke="#020201" stroke-width="0.01" stroke-linecap="round" stroke-linejoin="round" stroke-miterlimit="10" width="6" height="6.001"/>
	</g>
	<g id="LWPOLYLINE_3_">
		
			<rect x="24.176" y="30.36" fill="#FFDEC7" stroke="#020201" stroke-width="0.01" stroke-linecap="round" stroke-linejoin="round" stroke-miterlimit="10" width="6" height="3.001"/>
	</g>
	<g id="LWPOLYLINE_4_">
		
			<rect x="24.176" y="33.361" fill="#FFDEC7" stroke="#020201" stroke-width="0.01" stroke-linecap="round" stroke-linejoin="round" stroke-miterlimit="10" width="3" height="3"/>
	</g>
	<g id="LWPOLYLINE_5_">
		
			<rect x="27.175" y="33.361" fill="#FFDEC7" stroke="#020201" stroke-width="0.01" stroke-linecap="round" stroke-linejoin="round" stroke-miterlimit="10" width="3" height="3"/>
	</g>
	<g id="LWPOLYLINE_6_">
		
			<rect x="35.175" y="39.363" fill="#FFDEC7" stroke="#020201" stroke-width="0.01" stroke-linecap="round" stroke-linejoin="round" stroke-miterlimit="10" width="16.5" height="6.002"/>
	</g>
	<g id="LWPOLYLINE_7_">
		
			<rect x="24.176" y="39.363" fill="#FFDEC7" stroke="#020201" stroke-width="0.01" stroke-linecap="round" stroke-linejoin="round" stroke-miterlimit="10" width="7" height="6.002"/>
	</g>
	<g id="LWPOLYLINE_8_">
		
			<polygon fill="#FFDEC7" stroke="#020201" stroke-width="0.01" stroke-linecap="round" stroke-linejoin="round" stroke-miterlimit="10" points="
			55.676,35.362 67.676,35.413 67.676,45.365 55.717,45.365 		"/>
	</g>
	<g id="LWPOLYLINE_9_">
		
			<rect x="45.675" y="30.36" fill="#FFDEC7" stroke="#020201" stroke-width="0.01" stroke-linecap="round" stroke-linejoin="round" stroke-miterlimit="10" width="6" height="6.001"/>
	</g>
	<g id="LWPOLYLINE_10_">
		
			<rect x="42.676" y="30.36" fill="#FFDEC7" stroke="#020201" stroke-width="0.01" stroke-linecap="round" stroke-linejoin="round" stroke-miterlimit="10" width="3" height="6.001"/>
	</g>
	<g id="LWPOLYLINE_11_">
		
			<rect x="72.176" y="31.361" fill="#FFDEC7" stroke="#020201" stroke-width="0.01" stroke-linecap="round" stroke-linejoin="round" stroke-miterlimit="10" width="15" height="14.004"/>
	</g>
	<g id="LWPOLYLINE_12_">
		
			<rect x="55.676" y="29.36" fill="#FFDEC7" stroke="#020201" stroke-width="0.01" stroke-linecap="round" stroke-linejoin="round" stroke-miterlimit="10" width="13" height="4.001"/>
	</g>
	<g id="LWPOLYLINE_13_">
		
			<rect x="44.676" y="21.357" fill="#FFDEC7" stroke="#020201" stroke-width="0.01" stroke-linecap="round" stroke-linejoin="round" stroke-miterlimit="10" width="7" height="6.002"/>
	</g>
	<g id="LWPOLYLINE_14_">
		
			<rect x="55.676" y="21.357" fill="#FFDEC7" stroke="#020201" stroke-width="0.01" stroke-linecap="round" stroke-linejoin="round" stroke-miterlimit="10" width="3" height="6.002"/>
	</g>
	<g id="LWPOLYLINE_15_">
		
			<rect x="58.675" y="21.357" fill="#FFDEC7" stroke="#020201" stroke-width="0.01" stroke-linecap="round" stroke-linejoin="round" stroke-miterlimit="10" width="9" height="6.002"/>
	</g>
	<g id="LWPOLYLINE_16_">
		
			<rect x="71.176" y="21.358" fill="#FFDEC7" stroke="#020201" stroke-width="0.01" stroke-linecap="round" stroke-linejoin="round" stroke-miterlimit="10" width="16" height="6.002"/>
	</g>
	<g id="LWPOLYLINE_17_">
		
			<rect x="93.175" y="23.358" fill="#FFDEC7" stroke="#020201" stroke-width="0.01" stroke-linecap="round" stroke-linejoin="round" stroke-miterlimit="10" width="15.001" height="22.007"/>
	</g>
	<g id="LWPOLYLINE_18_">
		
			<rect x="130.163" y="21.358" fill="#FFDEC7" stroke="#020201" stroke-width="0.01" stroke-linecap="round" stroke-linejoin="round" stroke-miterlimit="10" width="30" height="10.003"/>
	</g>
	<g id="LWPOLYLINE_19_">
		
			<rect x="128.177" y="35.362" fill="#FFDEC7" stroke="#020201" stroke-width="0.01" stroke-linecap="round" stroke-linejoin="round" stroke-miterlimit="10" width="13.999" height="10.003"/>
	</g>
	<g id="LWPOLYLINE_20_">
		
			<rect x="144.675" y="35.362" fill="#FFDEC7" stroke="#020201" stroke-width="0.01" stroke-linecap="round" stroke-linejoin="round" stroke-miterlimit="10" width="15.501" height="10.003"/>
	</g>
	<g id="LWPOLYLINE_21_">
		
			<rect x="111.176" y="30.86" fill="#FFDEC7" stroke="#020201" stroke-width="0.01" stroke-linecap="round" stroke-linejoin="round" stroke-miterlimit="10" width="13" height="6.002"/>
	</g>
	<g id="LWPOLYLINE_22_">
		
			<rect x="116.175" y="39.363" fill="#FFDEC7" stroke="#020201" stroke-width="0.01" stroke-linecap="round" stroke-linejoin="round" stroke-miterlimit="10" width="8.001" height="6.002"/>
	</g>
	<g id="LWPOLYLINE_23_">
		
			<rect x="111.176" y="39.363" fill="#FFDEC7" stroke="#020201" stroke-width="0.01" stroke-linecap="round" stroke-linejoin="round" stroke-miterlimit="10" width="4.999" height="6.002"/>
	</g>
	<g id="LWPOLYLINE_24_">
		
			<rect x="75.176" y="50.367" fill="#FFDEC7" stroke="#020201" stroke-width="0.01" stroke-linecap="round" stroke-linejoin="round" stroke-miterlimit="10" width="12" height="12.503"/>
	</g>
	<g id="LWPOLYLINE_25_">
		
			<rect x="93.175" y="50.367" fill="#FFDEC7" stroke="#020201" stroke-width="0.01" stroke-linecap="round" stroke-linejoin="round" stroke-miterlimit="10" width="13" height="12.003"/>
	</g>
	<g id="LWPOLYLINE_26_">
		
			<rect x="109.175" y="50.367" fill="#FFDEC7" stroke="#020201" stroke-width="0.01" stroke-linecap="round" stroke-linejoin="round" stroke-miterlimit="10" width="15.001" height="12.003"/>
	</g>
	<g id="LWPOLYLINE_27_">
		
			<rect x="128.177" y="50.367" fill="#FFDEC7" stroke="#020201" stroke-width="0.01" stroke-linecap="round" stroke-linejoin="round" stroke-miterlimit="10" width="16.999" height="14.003"/>
	</g>
	<g id="LWPOLYLINE_28_">
		
			<rect x="55.676" y="50.367" fill="#FFDEC7" stroke="#020201" stroke-width="0.01" stroke-linecap="round" stroke-linejoin="round" stroke-miterlimit="10" width="17" height="10.002"/>
	</g>
	<g id="LWPOLYLINE_29_">
		
			<rect x="75.175" y="62.87" fill="#FFDEC7" stroke="#020201" stroke-width="0.01" stroke-linecap="round" stroke-linejoin="round" stroke-miterlimit="10" width="12" height="4.502"/>
	</g>
	<g id="LWPOLYLINE_30_">
		
			<rect x="72.176" y="69.372" fill="#FFDEC7" stroke="#020201" stroke-width="0.01" stroke-linecap="round" stroke-linejoin="round" stroke-miterlimit="10" width="15" height="6.001"/>
	</g>
	<g id="LWPOLYLINE_31_">
		
			<rect x="93.175" y="65.371" fill="#FFDEC7" stroke="#020201" stroke-width="0.01" stroke-linecap="round" stroke-linejoin="round" stroke-miterlimit="10" width="10.001" height="10.002"/>
	</g>
	<g id="LWPOLYLINE_32_">
		
			<rect x="106.175" y="65.371" fill="#FFDEC7" stroke="#020201" stroke-width="0.01" stroke-linecap="round" stroke-linejoin="round" stroke-miterlimit="10" width="6.002" height="10.002"/>
	</g>
	<g id="LWPOLYLINE_33_">
		
			<rect x="115.177" y="65.371" fill="#FFDEC7" stroke="#020201" stroke-width="0.01" stroke-linecap="round" stroke-linejoin="round" stroke-miterlimit="10" width="8.999" height="10.002"/>
	</g>
	<g id="LWPOLYLINE_34_">
		
			<rect x="128.177" y="67.372" fill="#FFDEC7" stroke="#020201" stroke-width="0.01" stroke-linecap="round" stroke-linejoin="round" stroke-miterlimit="10" width="8.999" height="8.001"/>
	</g>
	<g id="LWPOLYLINE_35_">
		
			<rect x="137.176" y="67.372" fill="#FFDEC7" stroke="#020201" stroke-width="0.01" stroke-linecap="round" stroke-linejoin="round" stroke-miterlimit="10" width="8" height="8.001"/>
	</g>
	<g id="LWPOLYLINE_36_">
		
			<rect x="150.176" y="71.372" fill="#FFDEC7" stroke="#020201" stroke-width="0.01" stroke-linecap="round" stroke-linejoin="round" stroke-miterlimit="10" width="10" height="4.001"/>
	</g>
	<g id="LWPOLYLINE_37_">
		
			<rect x="150.176" y="62.87" fill="#FFDEC7" stroke="#020201" stroke-width="0.01" stroke-linecap="round" stroke-linejoin="round" stroke-miterlimit="10" width="10" height="6.001"/>
	</g>
	<g id="LWPOLYLINE_38_">
		
			<rect x="165.676" y="60.369" fill="#FFDEC7" stroke="#020201" stroke-width="0.01" stroke-linecap="round" stroke-linejoin="round" stroke-miterlimit="10" width="6" height="8.003"/>
	</g>
	<g id="LWPOLYLINE_39_">
		
			<rect x="148.176" y="50.367" fill="#FFDEC7" stroke="#020201" stroke-width="0.01" stroke-linecap="round" stroke-linejoin="round" stroke-miterlimit="10" width="12" height="10.002"/>
	</g>
	<g id="LWPOLYLINE_40_">
		
			<rect x="164.176" y="50.367" fill="#FFDEC7" stroke="#020201" stroke-width="0.01" stroke-linecap="round" stroke-linejoin="round" stroke-miterlimit="10" width="9" height="6"/>
	</g>
	<g id="LWPOLYLINE_41_">
		
			<rect x="164.176" y="34.862" fill="#FFDEC7" stroke="#020201" stroke-width="0.01" stroke-linecap="round" stroke-linejoin="round" stroke-miterlimit="10" width="7" height="10.503"/>
	</g>
	<g id="LWPOLYLINE_42_">
		
			<rect x="164.176" y="22.858" fill="#FFDEC7" stroke="#020201" stroke-width="0.01" stroke-linecap="round" stroke-linejoin="round" stroke-miterlimit="10" width="7.999" height="6.001"/>
	</g>
	<g id="LWPOLYLINE_43_">
		
			<rect x="164.176" y="28.859" fill="#FFDEC7" stroke="#020201" stroke-width="0.01" stroke-linecap="round" stroke-linejoin="round" stroke-miterlimit="10" width="7.999" height="4.002"/>
	</g>
	<g id="LWPOLYLINE_44_">
		
			<rect x="24.176" y="50.367" fill="#FFDEC7" stroke="#020201" stroke-width="0.01" stroke-linecap="round" stroke-linejoin="round" stroke-miterlimit="10" width="12" height="6"/>
	</g>
	<g id="LWPOLYLINE_45_">
		
			<rect x="14.676" y="50.367" fill="#FFDEC7" stroke="#020201" stroke-width="0.01" stroke-linecap="round" stroke-linejoin="round" stroke-miterlimit="10" width="3" height="6"/>
	</g>
	<g id="LWPOLYLINE_46_">
		
			<rect x="14.676" y="56.367" fill="#FFDEC7" stroke="#020201" stroke-width="0.01" stroke-linecap="round" stroke-linejoin="round" stroke-miterlimit="10" width="3" height="6.003"/>
	</g>
	<g id="LWPOLYLINE_47_">
		
			<rect x="14.676" y="62.37" fill="#FFDEC7" stroke="#020201" stroke-width="0.01" stroke-linecap="round" stroke-linejoin="round" stroke-miterlimit="10" width="3" height="6.001"/>
	</g>
	<g id="LWPOLYLINE_48_">
		
			<rect x="24.176" y="59.869" fill="#FFDEC7" stroke="#020201" stroke-width="0.01" stroke-linecap="round" stroke-linejoin="round" stroke-miterlimit="10" width="5.5" height="6.002"/>
	</g>
	<g id="LWPOLYLINE_49_">
		
			<rect x="32.676" y="59.869" fill="#FFDEC7" stroke="#020201" stroke-width="0.01" stroke-linecap="round" stroke-linejoin="round" stroke-miterlimit="10" width="6" height="3.001"/>
	</g>
	<g id="LWPOLYLINE_50_">
		
			<rect x="32.676" y="62.87" fill="#FFDEC7" stroke="#020201" stroke-width="0.01" stroke-linecap="round" stroke-linejoin="round" stroke-miterlimit="10" width="6" height="3.001"/>
	</g>
	<g id="LWPOLYLINE_51_">
		
			<rect x="41.675" y="59.869" fill="#FFDEC7" stroke="#020201" stroke-width="0.01" stroke-linecap="round" stroke-linejoin="round" stroke-miterlimit="10" width="10" height="6.002"/>
	</g>
	<g id="LWPOLYLINE_52_">
		
			<rect x="42.676" y="50.367" fill="#FFDEC7" stroke="#020201" stroke-width="0.01" stroke-linecap="round" stroke-linejoin="round" stroke-miterlimit="10" width="9" height="6"/>
	</g>
	<g id="LWPOLYLINE_53_">
		
			<rect x="39.676" y="50.367" fill="#FFDEC7" stroke="#020201" stroke-width="0.01" stroke-linecap="round" stroke-linejoin="round" stroke-miterlimit="10" width="3" height="6"/>
	</g>
	<g id="LWPOLYLINE_54_">
		
			<rect x="55.676" y="63.37" fill="#FFDEC7" stroke="#020201" stroke-width="0.01" stroke-linecap="round" stroke-linejoin="round" stroke-miterlimit="10" width="6" height="6.002"/>
	</g>
	<g id="LWPOLYLINE_55_">
		
			<rect x="55.676" y="69.372" fill="#FFDEC7" stroke="#020201" stroke-width="0.01" stroke-linecap="round" stroke-linejoin="round" stroke-miterlimit="10" width="6" height="6.001"/>
	</g>
	<g id="LWPOLYLINE_56_">
		
			<rect x="42.676" y="70.372" fill="#FFDEC7" stroke="#020201" stroke-width="0.01" stroke-linecap="round" stroke-linejoin="round" stroke-miterlimit="10" width="9" height="5.001"/>
	</g>
	<g id="LWPOLYLINE_57_">
		
			<rect x="33.426" y="69.372" fill="#FFDEC7" stroke="#020201" stroke-width="0.01" stroke-linecap="round" stroke-linejoin="round" stroke-miterlimit="10" width="6" height="3.001"/>
	</g>
	<g id="LWPOLYLINE_58_">
		
			<rect x="24.176" y="69.372" fill="#FFDEC7" stroke="#020201" stroke-width="0.01" stroke-linecap="round" stroke-linejoin="round" stroke-miterlimit="10" width="6" height="3.001"/>
	</g>
	<g id="LWPOLYLINE_59_">
		
			<rect x="24.176" y="72.373" fill="#FFDEC7" stroke="#020201" stroke-width="0.01" stroke-linecap="round" stroke-linejoin="round" stroke-miterlimit="10" width="3" height="3"/>
	</g>
	<g id="LWPOLYLINE_60_">
		
			<rect x="27.175" y="72.373" fill="#FFDEC7" stroke="#020201" stroke-width="0.01" stroke-linecap="round" stroke-linejoin="round" stroke-miterlimit="10" width="3" height="3"/>
	</g>
	<g id="LWPOLYLINE_61_">
		
			<rect x="33.426" y="72.389" fill="#FFDEC7" stroke="#020201" stroke-width="0.01" stroke-linecap="round" stroke-linejoin="round" stroke-miterlimit="10" width="3" height="2.99"/>
	</g>
	<g id="LWPOLYLINE_62_">
		
			<rect x="36.426" y="72.373" fill="#FFDEC7" stroke="#020201" stroke-width="0.01" stroke-linecap="round" stroke-linejoin="round" stroke-miterlimit="10" width="3" height="3.008"/>
	</g>
	<g id="LWPOLYLINE_63_">
		
			<rect x="63.925" y="65.371" fill="#FFDEC7" stroke="#020201" stroke-width="0.01" stroke-linecap="round" stroke-linejoin="round" stroke-miterlimit="10" width="6" height="4.001"/>
	</g>
	<g id="LWPOLYLINE_64_">
		
			<rect x="63.925" y="69.372" fill="#FFDEC7" stroke="#020201" stroke-width="0.01" stroke-linecap="round" stroke-linejoin="round" stroke-miterlimit="10" width="3" height="6.001"/>
	</g>
	<g id="LWPOLYLINE_65_">
		
			<rect x="66.926" y="69.372" fill="#FFDEC7" stroke="#020201" stroke-width="0.01" stroke-linecap="round" stroke-linejoin="round" stroke-miterlimit="10" width="3" height="6.001"/>
	</g>
	<g id="LWPOLYLINE_66_">
		
			<rect x="27.001" y="15.355" fill="#FFDEC7" stroke="#020201" stroke-width="0.01" stroke-linecap="round" stroke-linejoin="round" stroke-miterlimit="10" width="3" height="3.001"/>
	</g>
	<g id="LWPOLYLINE_67_">
		
			<rect x="35.175" y="21.357" fill="#FFDEC7" stroke="#020201" stroke-width="0.01" stroke-linecap="round" stroke-linejoin="round" stroke-miterlimit="10" width="6" height="3"/>
	</g>
	<g id="LWPOLYLINE_68_">
		
			<rect x="35.175" y="24.358" fill="#FFDEC7" stroke="#020201" stroke-width="0.01" stroke-linecap="round" stroke-linejoin="round" stroke-miterlimit="10" width="6" height="3.001"/>
	</g>
	<g id="LWPOLYLINE_69_">
		
			<rect x="30" y="15.355" fill="#FFDEC7" stroke="#020201" stroke-width="0.01" stroke-linecap="round" stroke-linejoin="round" stroke-miterlimit="10" width="3" height="3.001"/>
	</g>
	<g id="LWPOLYLINE_70_">
		
			<rect x="33" y="15.355" fill="#FFDEC7" stroke="#020201" stroke-width="0.01" stroke-linecap="round" stroke-linejoin="round" stroke-miterlimit="10" width="3" height="3.001"/>
	</g>
	<g id="LWPOLYLINE_71_">
		
			<rect x="36" y="15.355" fill="#FFDEC7" stroke="#020201" stroke-width="0.01" stroke-linecap="round" stroke-linejoin="round" stroke-miterlimit="10" width="3.001" height="3.001"/>
	</g>
	<g id="LWPOLYLINE_72_">
		
			<rect x="39.001" y="15.355" fill="#FFDEC7" stroke="#020201" stroke-width="0.01" stroke-linecap="round" stroke-linejoin="round" stroke-miterlimit="10" width="3" height="3.001"/>
	</g>
	<g id="LWPOLYLINE_73_">
		
			<rect x="42" y="15.355" fill="#FFDEC7" stroke="#020201" stroke-width="0.01" stroke-linecap="round" stroke-linejoin="round" stroke-miterlimit="10" width="3" height="3.001"/>
	</g>
	<g id="LWPOLYLINE_74_">
		
			<rect x="63" y="15.355" fill="#FFDEC7" stroke="#020201" stroke-width="0.01" stroke-linecap="round" stroke-linejoin="round" stroke-miterlimit="10" width="9" height="3.001"/>
	</g>
	<g id="LWPOLYLINE_75_">
		
			<rect x="72.001" y="15.355" fill="#FFDEC7" stroke="#020201" stroke-width="0.01" stroke-linecap="round" stroke-linejoin="round" stroke-miterlimit="10" width="3" height="3.001"/>
	</g>
	<g id="LWPOLYLINE_76_">
		
			<rect x="75" y="15.355" fill="#FFDEC7" stroke="#020201" stroke-width="0.01" stroke-linecap="round" stroke-linejoin="round" stroke-miterlimit="10" width="6" height="3.001"/>
	</g>
	<g id="LWPOLYLINE_77_">
		
			<rect x="99.001" y="15.355" fill="#FFDEC7" stroke="#020201" stroke-width="0.01" stroke-linecap="round" stroke-linejoin="round" stroke-miterlimit="10" width="9" height="3.001"/>
	</g>
	<g id="LWPOLYLINE_78_">
		
			<rect x="108.001" y="15.355" fill="#FFDEC7" stroke="#020201" stroke-width="0.01" stroke-linecap="round" stroke-linejoin="round" stroke-miterlimit="10" width="3" height="3.001"/>
	</g>
	<g id="LWPOLYLINE_79_">
		
			<rect x="111.001" y="15.355" fill="#FFDEC7" stroke="#020201" stroke-width="0.01" stroke-linecap="round" stroke-linejoin="round" stroke-miterlimit="10" width="6" height="3.001"/>
	</g>
	<g id="LWPOLYLINE_80_">
		
			<rect x="115.177" y="21.358" fill="#FFDEC7" stroke="#020201" stroke-width="0.01" stroke-linecap="round" stroke-linejoin="round" stroke-miterlimit="10" width="8.999" height="7.001"/>
	</g>
	<g id="LWPOLYLINE_81_">
		
			<rect x="111.176" y="21.358" fill="#FFDEC7" stroke="#020201" stroke-width="0.01" stroke-linecap="round" stroke-linejoin="round" stroke-miterlimit="10" width="4.001" height="7.001"/>
	</g>
	<g id="LWPOLYLINE_82_">
		
			<rect x="134.001" y="15.355" fill="#FFDEC7" stroke="#020201" stroke-width="0.01" stroke-linecap="round" stroke-linejoin="round" stroke-miterlimit="10" width="5.999" height="3.001"/>
	</g>
	<g id="LWPOLYLINE_83_">
		
			<rect x="140" y="15.355" fill="#FFDEC7" stroke="#020201" stroke-width="0.01" stroke-linecap="round" stroke-linejoin="round" stroke-miterlimit="10" width="3" height="3.001"/>
	</g>
	<g id="LWPOLYLINE_84_">
		
			<rect x="143" y="15.355" fill="#FFDEC7" stroke="#020201" stroke-width="0.01" stroke-linecap="round" stroke-linejoin="round" stroke-miterlimit="10" width="3.001" height="3.001"/>
	</g>
	<g id="LWPOLYLINE_85_">
		
			<rect x="146.001" y="15.355" fill="#FFDEC7" stroke="#020201" stroke-width="0.01" stroke-linecap="round" stroke-linejoin="round" stroke-miterlimit="10" width="3" height="3.001"/>
	</g>
	<g id="LWPOLYLINE_86_">
		
			<rect x="149.001" y="14.356" fill="#FFDEC7" stroke="#020201" stroke-width="0.01" stroke-linecap="round" stroke-linejoin="round" stroke-miterlimit="10" width="5" height="4.001"/>
	</g>
	<g id="LWPOLYLINE_87_">
		
			<rect x="180.076" y="25.934" fill="#FFDEC7" stroke="#020201" stroke-width="0.01" stroke-linecap="round" stroke-linejoin="round" stroke-miterlimit="10" width="5.685" height="7.444"/>
	</g>
	<g id="LWPOLYLINE_88_">
		
			<rect x="175.399" y="25.783" fill="#FFDEC7" stroke="#020201" stroke-width="0.01" stroke-linecap="round" stroke-linejoin="round" stroke-miterlimit="10" width="4.677" height="7.596"/>
	</g>
	<g id="LWPOLYLINE_89_">
		
			<rect x="175.399" y="33.379" fill="#FFDEC7" stroke="#020201" stroke-width="0.01" stroke-linecap="round" stroke-linejoin="round" stroke-miterlimit="10" width="4.677" height="14.912"/>
	</g>
	<g id="LWPOLYLINE_90_">
		
			<rect x="180.076" y="33.379" fill="#FFDEC7" stroke="#020201" stroke-width="0.01" stroke-linecap="round" stroke-linejoin="round" stroke-miterlimit="10" width="5.685" height="14.912"/>
	</g>
	<g id="LWPOLYLINE_91_">
		
			<rect x="175.399" y="48.291" fill="#FFDEC7" stroke="#020201" stroke-width="0.01" stroke-linecap="round" stroke-linejoin="round" stroke-miterlimit="10" width="4.677" height="7.593"/>
	</g>
	<g id="LWPOLYLINE_92_">
		
			<rect x="180.075" y="48.291" fill="#FFDEC7" stroke="#020201" stroke-width="0.01" stroke-linecap="round" stroke-linejoin="round" stroke-miterlimit="10" width="5.685" height="7.594"/>
	</g>
	<g id="LWPOLYLINE_93_">
		
			<rect x="175.399" y="55.884" fill="#FFDEC7" stroke="#020201" stroke-width="0.01" stroke-linecap="round" stroke-linejoin="round" stroke-miterlimit="10" width="4.676" height="7.594"/>
	</g>
	<g id="LWPOLYLINE_94_">
		
			<rect x="180.074" y="55.884" fill="#FFDEC7" stroke="#020201" stroke-width="0.01" stroke-linecap="round" stroke-linejoin="round" stroke-miterlimit="10" width="5.685" height="7.594"/>
	</g>
	<g id="LWPOLYLINE_95_">
		
			<rect x="175.397" y="63.477" fill="#FFDEC7" stroke="#020201" stroke-width="0.01" stroke-linecap="round" stroke-linejoin="round" stroke-miterlimit="10" width="6.627" height="7.516"/>
	</g>
	<g id="LWPOLYLINE_96_">
		
			<rect x="134.001" y="78.375" fill="#FFDEC7" stroke="#020201" stroke-width="0.01" stroke-linecap="round" stroke-linejoin="round" stroke-miterlimit="10" width="4.999" height="4"/>
	</g>
	<g id="LWPOLYLINE_97_">
		
			<rect x="139" y="78.375" fill="#FFDEC7" stroke="#020201" stroke-width="0.01" stroke-linecap="round" stroke-linejoin="round" stroke-miterlimit="10" width="3" height="3"/>
	</g>
	<g id="LWPOLYLINE_98_">
		
			<rect x="142" y="78.375" fill="#FFDEC7" stroke="#020201" stroke-width="0.01" stroke-linecap="round" stroke-linejoin="round" stroke-miterlimit="10" width="6.022" height="3"/>
	</g>
	<g id="LWPOLYLINE_99_">
		
			<rect x="148.022" y="78.375" fill="#FFDEC7" stroke="#020201" stroke-width="0.01" stroke-linecap="round" stroke-linejoin="round" stroke-miterlimit="10" width="6" height="3"/>
	</g>
	<g id="LWPOLYLINE_100_">
		
			<rect x="97.501" y="78.375" fill="#FFDEC7" stroke="#020201" stroke-width="0.01" stroke-linecap="round" stroke-linejoin="round" stroke-miterlimit="10" width="5.999" height="3"/>
	</g>
	<g id="LWPOLYLINE_101_">
		
			<rect x="103.5" y="78.375" fill="#FFDEC7" stroke="#020201" stroke-width="0.01" stroke-linecap="round" stroke-linejoin="round" stroke-miterlimit="10" width="3.001" height="3"/>
	</g>
	<g id="LWPOLYLINE_102_">
		
			<rect x="106.501" y="78.375" fill="#FFDEC7" stroke="#020201" stroke-width="0.01" stroke-linecap="round" stroke-linejoin="round" stroke-miterlimit="10" width="6" height="3"/>
	</g>
	<g id="LWPOLYLINE_103_">
		
			<rect x="112.501" y="78.375" fill="#FFDEC7" stroke="#020201" stroke-width="0.01" stroke-linecap="round" stroke-linejoin="round" stroke-miterlimit="10" width="6" height="3"/>
	</g>
	<g id="LWPOLYLINE_104_">
		
			<rect x="76" y="78.375" fill="#FFDEC7" stroke="#020201" stroke-width="0.01" stroke-linecap="round" stroke-linejoin="round" stroke-miterlimit="10" width="6" height="4"/>
	</g>
	<g id="LWPOLYLINE_105_">
		
			<rect x="70" y="78.375" fill="#FFDEC7" stroke="#020201" stroke-width="0.01" stroke-linecap="round" stroke-linejoin="round" stroke-miterlimit="10" width="6" height="3"/>
	</g>
	<g id="LWPOLYLINE_106_">
		
			<rect x="62" y="78.375" fill="#FFDEC7" stroke="#020201" stroke-width="0.01" stroke-linecap="round" stroke-linejoin="round" stroke-miterlimit="10" width="8" height="4"/>
	</g>
	<g id="LWPOLYLINE_107_">
		
			<rect x="42" y="78.375" fill="#FFDEC7" stroke="#020201" stroke-width="0.01" stroke-linecap="round" stroke-linejoin="round" stroke-miterlimit="10" width="3" height="3"/>
	</g>
	<g id="LWPOLYLINE_108_">
		
			<rect x="39.001" y="78.375" fill="#FFDEC7" stroke="#020201" stroke-width="0.01" stroke-linecap="round" stroke-linejoin="round" stroke-miterlimit="10" width="3" height="3"/>
	</g>
	<g id="LWPOLYLINE_109_">
		
			<rect x="36" y="78.375" fill="#FFDEC7" stroke="#020201" stroke-width="0.01" stroke-linecap="round" stroke-linejoin="round" stroke-miterlimit="10" width="3.001" height="3"/>
	</g>
	<g id="LWPOLYLINE_110_">
		
			<rect x="33" y="78.375" fill="#FFDEC7" stroke="#020201" stroke-width="0.01" stroke-linecap="round" stroke-linejoin="round" stroke-miterlimit="10" width="3" height="3"/>
	</g>
	<g id="LWPOLYLINE_111_">
		
			<rect x="30" y="78.375" fill="#FFDEC7" stroke="#020201" stroke-width="0.01" stroke-linecap="round" stroke-linejoin="round" stroke-miterlimit="10" width="3" height="3"/>
	</g>
	<g id="LWPOLYLINE_112_">
		
			<rect x="27.001" y="78.375" fill="#FFDEC7" stroke="#020201" stroke-width="0.01" stroke-linecap="round" stroke-linejoin="round" stroke-miterlimit="10" width="3" height="3"/>
	</g>
	<g id="LWPOLYLINE_113_">
		
			<rect x="14.676" y="33.36" fill="#FFDEC7" stroke="#020201" stroke-width="0.01" stroke-linecap="round" stroke-linejoin="round" stroke-miterlimit="10" width="3" height="12.003"/>
	</g>
	<g id="LWPOLYLINE_114_">
		
			<rect x="14.676" y="24.357" fill="#FFDEC7" stroke="#020201" stroke-width="0.01" stroke-linecap="round" stroke-linejoin="round" stroke-miterlimit="10" width="3" height="6.002"/>
	</g>
	<g id="LWPOLYLINE_115_">
		
			<rect y="25.859" fill="#FFDEC7" stroke="#020201" stroke-width="0.01" stroke-linecap="round" stroke-linejoin="round" stroke-miterlimit="10" width="6.387" height="7.577"/>
	</g>
	<g id="LWPOLYLINE_116_">
		
			<rect x="6.388" y="25.859" fill="#FFDEC7" stroke="#020201" stroke-width="0.01" stroke-linecap="round" stroke-linejoin="round" stroke-miterlimit="10" width="4.213" height="7.579"/>
	</g>
	<g id="LWPOLYLINE_117_">
		
			<rect y="33.436" fill="#FFDEC7" stroke="#020201" stroke-width="0.01" stroke-linecap="round" stroke-linejoin="round" stroke-miterlimit="10" width="6.387" height="14.931"/>
	</g>
	<g id="LWPOLYLINE_118_">
		
			<rect x="6.388" y="33.436" fill="#FFDEC7" stroke="#020201" stroke-width="0.01" stroke-linecap="round" stroke-linejoin="round" stroke-miterlimit="10" width="4.213" height="7.446"/>
	</g>
	<g id="LWPOLYLINE_119_">
		
			<rect x="6.388" y="40.883" fill="#FFDEC7" stroke="#020201" stroke-width="0.01" stroke-linecap="round" stroke-linejoin="round" stroke-miterlimit="10" width="4.213" height="7.482"/>
	</g>
	<g id="LWPOLYLINE_120_">
		
			<rect y="48.366" fill="#FFDEC7" stroke="#020201" stroke-width="0.01" stroke-linecap="round" stroke-linejoin="round" stroke-miterlimit="10" width="6.387" height="3.751"/>
	</g>
	<g id="LWPOLYLINE_121_">
		
			<rect x="6.388" y="48.366" fill="#FFDEC7" stroke="#020201" stroke-width="0.01" stroke-linecap="round" stroke-linejoin="round" stroke-miterlimit="10" width="4.213" height="7.521"/>
	</g>
	<g id="LWPOLYLINE_122_">
		
			<polygon fill="#FFDEC7" stroke="#020201" stroke-width="0.01" stroke-linecap="round" stroke-linejoin="round" stroke-miterlimit="10" points="
			6.388,52.117 0,52.117 0,55.869 6.388,55.888 		"/>
	</g>
	<g id="LWPOLYLINE_123_">
		
			<rect y="55.888" fill="#FFDEC7" stroke="#020201" stroke-width="0.01" stroke-linecap="round" stroke-linejoin="round" stroke-miterlimit="10" width="6.387" height="3.729"/>
	</g>
	<g id="LWPOLYLINE_124_">
		
			<rect x="6.388" y="55.888" fill="#FFDEC7" stroke="#020201" stroke-width="0.01" stroke-linecap="round" stroke-linejoin="round" stroke-miterlimit="10" width="4.213" height="7.501"/>
	</g>
	<g id="LWPOLYLINE_125_">
		
			<rect y="59.619" fill="#FFDEC7" stroke="#020201" stroke-width="0.01" stroke-linecap="round" stroke-linejoin="round" stroke-miterlimit="10" width="6.387" height="3.771"/>
	</g>
	<g id="LWPOLYLINE_126_">
		
			<rect y="63.389" fill="#FFDEC7" stroke="#020201" stroke-width="0.01" stroke-linecap="round" stroke-linejoin="round" stroke-miterlimit="10" width="4.955" height="7.606"/>
	</g>
	<g id="LWPOLYLINE_127_">
		
			<rect x="4.955" y="63.389" fill="#FFDEC7" stroke="#020201" stroke-width="0.01" stroke-linecap="round" stroke-linejoin="round" stroke-miterlimit="10" width="5.646" height="7.606"/>
	</g>
	<g id="LWPOLYLINE_128_">
		
			<rect x="165.851" y="0.001" fill="#FFDEC7" stroke="#020201" stroke-width="0.01" stroke-linecap="round" stroke-linejoin="round" stroke-miterlimit="10" width="5.875" height="7.729"/>
	</g>
	<g id="LWPOLYLINE_129_">
		
			<rect x="171.726" y="0.001" fill="#FFDEC7" stroke="#020201" stroke-width="0.01" stroke-linecap="round" stroke-linejoin="round" stroke-miterlimit="10" width="4.399" height="7.729"/>
	</g>
</g>
<g id="svg厕所">
	<g id="LWPOLYLINE_131_">
		
			<rect x="165.851" y="7.729" fill="#BEBBFB" stroke="#020201" stroke-width="0.01" stroke-linecap="round" stroke-linejoin="round" stroke-miterlimit="10" width="10.149" height="5.626"/>
	</g>
	<g id="LWPOLYLINE_134_">
		
			<rect y="20.357" fill="#BEBBFB" stroke="#020201" stroke-width="0.01" stroke-linecap="round" stroke-linejoin="round" stroke-miterlimit="10" width="8.43" height="5.502"/>
	</g>
	<g id="LWPOLYLINE_135_">
		
			<rect y="70.997" fill="#BEBBFB" stroke="#020201" stroke-width="0.01" stroke-linecap="round" stroke-linejoin="round" stroke-miterlimit="10" width="8.43" height="5.378"/>
	</g>
	<g id="LWPOLYLINE_136_">
		
			<rect x="165.851" y="83.397" fill="#BEBBFB" stroke="#020201" stroke-width="0.01" stroke-linecap="round" stroke-linejoin="round" stroke-miterlimit="10" width="10.306" height="5.854"/>
	</g>
</g>
<g id="svg楼梯">
	<g id="LWPOLYLINE_132_">
		
			<rect x="180.263" y="78.974" fill="#F6F9A7" stroke="#020201" stroke-width="0.01" stroke-linecap="round" stroke-linejoin="round" stroke-miterlimit="10" width="4.725" height="3.051"/>
	</g>
	<g id="LWPOLYLINE_133_">
		
			<rect x="180.263" y="14.706" fill="#F6F9A7" stroke="#020201" stroke-width="0.01" stroke-linecap="round" stroke-linejoin="round" stroke-miterlimit="10" width="4.725" height="3.001"/>
	</g>
</g>
<g id="障碍物">
	<g id="LWPOLYLINE_130_">
		
			<rect x="176.125" y="0.001" fill="#DDDDDD" stroke="#020201" stroke-width="0.01" stroke-linecap="round" stroke-linejoin="round" stroke-miterlimit="10" width="8.647" height="12.152"/>
	</g>
</g>
<g id="轮廓2">
	<g id="LWPOLYLINE_137_">
		<polyline fill="none" points="6.322,13.355 6.241,13.416 6.241,18.357 0,18.357 0,78.375 6.162,78.375 6.241,78.375 6.241,83.315 
			6.322,83.396 165.851,83.396 165.851,89.25 176.155,89.25 176.155,83.406 185.679,83.396 185.76,83.315 185.76,13.416 
			185.679,13.334 184.028,13.334 184.021,13.334 184.021,12.874 184.049,12.847 184.688,12.847 184.771,12.765 184.771,0.001 
			165.851,0.001 165.851,13.355 6.322,13.355 		"/>
	</g>
</g>
<g id="device">
	<circle id="E4:95:6E:4C:55:16" fill="#F9061D" cx="167.667" cy="53.248" r="0.5"/>
	<circle id="E4:95:6E:4C:54:24" fill="#F9061D" cx="168.175" cy="31.361" r="0.5"/>
	<circle id="E4:95:6E:4C:54:25" fill="#F9061D" cx="155.176" cy="73.372" r="0.5"/>
	<circle id="E4:95:6E:4C:54:19" fill="#F9061D" cx="132.677" cy="71.372" r="0.5"/>
	<circle id="E4:95:6E:4C:55:05" fill="#F9061D" cx="135.177" cy="40.113" r="0.5"/>
	<circle id="E4:95:6E:4C:54:0C" fill="#F9061D" cx="144.501" cy="26.36" r="0.5"/>
	<circle id="E4:95:6E:4C:54:2E" fill="#F9061D" cx="117.676" cy="55.368" r="0.5"/>
	<circle id="E4:95:6E:4C:55:2A" fill="#F9061D" cx="100.501" cy="32.861" r="0.5"/>
	<circle id="E4:95:6E:4C:54:CA" fill="#F9061D" cx="79.676" cy="72.372" r="0.5"/>
	<circle id="E4:95:6E:4C:55:59" fill="#F9061D" cx="81" cy="54.003" r="0.5"/>
	<circle id="E4:95:6E:4C:54:71" fill="#F9061D" cx="79.676" cy="37.159" r="0.5"/>
	<circle id="E4:95:6E:4C:54:E8" fill="#F9061D" cx="79.676" cy="24.859" r="0.5"/>
	<circle id="E4:95:6E:4C:54:C3" fill="#F9061D" cx="58.676" cy="72.872" r="0.5"/>
	<circle id="E4:95:6E:4C:54:04" fill="#F9061D" cx="63.175" cy="24.357" r="0.5"/>
	<circle id="E4:95:6E:4C:54:38" fill="#F9061D" cx="31.5" cy="53.503" r="0.5"/>
	<circle id="E4:95:6E:4C:55:95" fill="#F9061D" cx="42.676" cy="42.365" r="0.5"/>
	<circle id="E4:95:6E:4C:54:7A" fill="#F9061D" cx="27.001" cy="24.357" r="0.5"/>
	<circle id="E4:95:6E:4C:55:9A" fill="#F9061D" cx="25.676" cy="73.686" r="0.5"/>
	<circle id="E4:95:6E:4C:54:1F" fill="#F9061D" cx="16.176" cy="53.003" r="0.5"/>
	<circle id="E4:95:6E:4C:54:1B" fill="#F9061D" cx="16.176" cy="27.36" r="0.5"/>
</g>
<g id="展会大门">
	<g>
		<g>
			<text transform="matrix(1.0002 0 0 1 15.5215 17.1306)" fill="#020002" font-family="'Arial-BoldMT'" font-size="1.1921">10</text>
			<text transform="matrix(1.0002 0 0 1 16.7593 17.1306)" fill="#020002" font-family="'SimSun'" font-size="1.2146">号门</text>
		</g>
		<g>
			
				<line fill="none" stroke="#020002" stroke-width="0.01" stroke-linecap="square" stroke-miterlimit="10" x1="20.028" y1="15.668" x2="20.028" y2="13.391"/>
			
				<line fill="none" stroke="#020002" stroke-width="0.01" stroke-linecap="square" stroke-miterlimit="10" x1="19.96" y1="13.391" x2="19.96" y2="15.668"/>
			<polyline fill="none" stroke="#020002" stroke-width="0.01" stroke-linecap="square" stroke-miterlimit="10" points="
				17.752,13.391 17.841,14.09 18.18,14.744 18.675,15.239 19.329,15.554 20.028,15.668 			"/>
			
				<line fill="none" stroke="#020002" stroke-width="0.01" stroke-linecap="square" stroke-miterlimit="10" x1="15.453" y1="15.668" x2="15.453" y2="13.391"/>
			
				<line fill="none" stroke="#020002" stroke-width="0.01" stroke-linecap="square" stroke-miterlimit="10" x1="15.521" y1="13.391" x2="15.521" y2="15.668"/>
			<polyline fill="none" stroke="#020002" stroke-width="0.01" stroke-linecap="square" stroke-miterlimit="10" points="
				15.453,15.668 16.152,15.554 16.805,15.239 17.3,14.744 17.638,14.09 17.752,13.391 			"/>
		</g>
	</g>
	<g>
		<g>
			<text transform="matrix(1.0002 0 0 1 52.7798 17.2175)" fill="#050005" font-family="'Arial-BoldMT'" font-size="1.1921">9</text>
			<text transform="matrix(1.0002 0 0 1 53.4541 17.2136)" fill="#050005" font-family="'SimSun'" font-size="1.2146">号门</text>
		</g>
		<g>
			
				<line fill="none" stroke="#020002" stroke-width="0.01" stroke-linecap="square" stroke-miterlimit="10" x1="56.478" y1="15.749" x2="56.478" y2="13.472"/>
			
				<line fill="none" stroke="#020002" stroke-width="0.01" stroke-linecap="square" stroke-miterlimit="10" x1="56.411" y1="13.472" x2="56.411" y2="15.749"/>
			<polyline fill="none" stroke="#020002" stroke-width="0.01" stroke-linecap="square" stroke-miterlimit="10" points="
				54.179,13.472 54.292,14.172 54.607,14.825 55.125,15.32 55.757,15.636 56.478,15.749 			"/>
			
				<line fill="none" stroke="#020002" stroke-width="0.01" stroke-linecap="square" stroke-miterlimit="10" x1="51.88" y1="15.749" x2="51.88" y2="13.472"/>
			
				<line fill="none" stroke="#020002" stroke-width="0.01" stroke-linecap="square" stroke-miterlimit="10" x1="51.948" y1="13.472" x2="51.948" y2="15.749"/>
			<polyline fill="none" stroke="#020002" stroke-width="0.01" stroke-linecap="square" stroke-miterlimit="10" points="
				51.88,15.749 52.601,15.636 53.232,15.32 53.751,14.825 54.067,14.172 54.179,13.472 			"/>
		</g>
	</g>
	<g>
		<g>
			<text transform="matrix(1.0002 0 0 1 89.1768 17.2751)" fill="#020002" font-family="'Arial-BoldMT'" font-size="1.1921">8</text>
			<text transform="matrix(1.0002 0 0 1 89.8506 17.2791)" fill="#020002" font-family="'SimSun'" font-size="1.2146">号门</text>
		</g>
		<g>
			
				<line fill="none" stroke="#050005" stroke-width="0.01" stroke-linecap="square" stroke-miterlimit="10" x1="92.951" y1="15.809" x2="92.951" y2="13.533"/>
			
				<line fill="none" stroke="#050005" stroke-width="0.01" stroke-linecap="square" stroke-miterlimit="10" x1="92.88" y1="13.533" x2="92.88" y2="15.809"/>
			<polyline fill="none" stroke="#050005" stroke-width="0.01" stroke-linecap="square" stroke-miterlimit="10" points="
				90.65,13.533 90.765,14.232 91.101,14.885 91.597,15.381 92.251,15.697 92.951,15.809 			"/>
			
				<line fill="none" stroke="#050005" stroke-width="0.01" stroke-linecap="square" stroke-miterlimit="10" x1="88.375" y1="15.809" x2="88.375" y2="13.533"/>
			
				<line fill="none" stroke="#050005" stroke-width="0.01" stroke-linecap="square" stroke-miterlimit="10" x1="88.443" y1="13.533" x2="88.443" y2="15.809"/>
			<polyline fill="none" stroke="#050005" stroke-width="0.01" stroke-linecap="square" stroke-miterlimit="10" points="
				88.375,15.809 89.074,15.697 89.705,15.381 90.222,14.885 90.539,14.232 90.65,13.533 			"/>
		</g>
	</g>
	<g>
		<g>
			<text transform="matrix(1.0002 0 0 1 125.3203 17.2703)" fill="#020002" font-family="'Arial-BoldMT'" font-size="1.1921">7</text>
			<text transform="matrix(1.0002 0 0 1 125.9961 17.2742)" fill="#020002" font-family="'SimSun'" font-size="1.2146">号门</text>
		</g>
		<g>
			
				<line fill="none" stroke="#050005" stroke-width="0.01" stroke-linecap="square" stroke-miterlimit="10" x1="128.97" y1="15.809" x2="128.97" y2="13.533"/>
			
				<line fill="none" stroke="#050005" stroke-width="0.01" stroke-linecap="square" stroke-miterlimit="10" x1="128.903" y1="13.533" x2="128.903" y2="15.809"/>
			<polyline fill="none" stroke="#050005" stroke-width="0.01" stroke-linecap="square" stroke-miterlimit="10" points="
				126.694,13.533 126.808,14.232 127.124,14.863 127.618,15.381 128.272,15.697 128.97,15.809 			"/>
			
				<line fill="none" stroke="#050005" stroke-width="0.01" stroke-linecap="square" stroke-miterlimit="10" x1="124.397" y1="15.809" x2="124.397" y2="13.533"/>
			
				<line fill="none" stroke="#050005" stroke-width="0.01" stroke-linecap="square" stroke-miterlimit="10" x1="124.464" y1="13.533" x2="124.464" y2="15.809"/>
			<polyline fill="none" stroke="#050005" stroke-width="0.01" stroke-linecap="square" stroke-miterlimit="10" points="
				124.397,15.809 125.097,15.697 125.751,15.381 126.243,14.863 126.579,14.232 126.694,13.533 			"/>
		</g>
	</g>
	<g>
		<g>
			<text transform="matrix(1.0002 0 0 1 161.1406 17.2791)" fill="#020002" font-family="'Arial-BoldMT'" font-size="1.1921">6</text>
			<text transform="matrix(1.0002 0 0 1 162.3447 17.2458)" fill="#020002" font-family="'SimSun'" font-size="1.2146">号门</text>
		</g>
		<g>
			
				<line fill="none" stroke="#020002" stroke-width="0.01" stroke-linecap="square" stroke-miterlimit="10" x1="165.321" y1="15.832" x2="165.321" y2="13.533"/>
			
				<line fill="none" stroke="#020002" stroke-width="0.01" stroke-linecap="square" stroke-miterlimit="10" x1="165.253" y1="13.533" x2="165.253" y2="15.832"/>
			<polyline fill="none" stroke="#020002" stroke-width="0.01" stroke-linecap="square" stroke-miterlimit="10" points="
				163.019,13.533 163.134,14.231 163.448,14.885 163.968,15.381 164.599,15.719 165.321,15.832 			"/>
			
				<line fill="none" stroke="#020002" stroke-width="0.01" stroke-linecap="square" stroke-miterlimit="10" x1="160.724" y1="15.832" x2="160.724" y2="13.533"/>
			
				<line fill="none" stroke="#020002" stroke-width="0.01" stroke-linecap="square" stroke-miterlimit="10" x1="160.794" y1="13.533" x2="160.794" y2="15.832"/>
			<polyline fill="none" stroke="#020002" stroke-width="0.01" stroke-linecap="square" stroke-miterlimit="10" points="
				160.724,15.832 161.442,15.719 162.075,15.381 162.593,14.885 162.907,14.231 163.019,13.533 			"/>
		</g>
	</g>
	<g>
		<g>
			<text transform="matrix(1.0002 0 0 1 15.9023 79.9504)" fill="#020002" font-family="'Arial-BoldMT'" font-size="1.1921">5</text>
			<text transform="matrix(1.0002 0 0 1 16.5571 79.9485)" fill="#020002" font-family="'SimSun'" font-size="1.2146">号门</text>
		</g>
		<g>
			
				<line fill="none" stroke="#000000" stroke-width="0.01" stroke-linecap="square" stroke-miterlimit="10" x1="19.654" y1="80.628" x2="19.654" y2="82.923"/>
			
				<line fill="none" stroke="#000000" stroke-width="0.01" stroke-linecap="square" stroke-miterlimit="10" x1="19.587" y1="82.923" x2="19.587" y2="80.628"/>
			<polyline fill="none" stroke="#000000" stroke-width="0.01" stroke-linecap="square" stroke-miterlimit="10" points="
				17.379,82.923 17.467,82.226 17.807,81.575 18.301,81.077 18.957,80.741 19.654,80.628 			"/>
			
				<line fill="none" stroke="#000000" stroke-width="0.01" stroke-linecap="square" stroke-miterlimit="10" x1="15.08" y1="80.628" x2="15.08" y2="82.923"/>
			
				<line fill="none" stroke="#000000" stroke-width="0.01" stroke-linecap="square" stroke-miterlimit="10" x1="15.148" y1="82.923" x2="15.148" y2="80.628"/>
			<polyline fill="none" stroke="#000000" stroke-width="0.01" stroke-linecap="square" stroke-miterlimit="10" points="
				15.08,80.628 15.779,80.741 16.432,81.077 16.927,81.575 17.265,82.226 17.379,82.923 			"/>
		</g>
	</g>
	<g>
		<g>
			<text transform="matrix(1.0002 0 0 1 52.6953 79.9426)" font-family="'Arial-BoldMT'" font-size="1.1921">4</text>
			<text transform="matrix(1.0002 0 0 1 53.3662 79.9407)" font-family="'SimSun'" font-size="1.2146">号门</text>
		</g>
		<g>
			
				<line fill="none" stroke="#020002" stroke-width="0.01" stroke-linecap="square" stroke-miterlimit="10" x1="56.478" y1="80.62" x2="56.478" y2="82.913"/>
			
				<line fill="none" stroke="#020002" stroke-width="0.01" stroke-linecap="square" stroke-miterlimit="10" x1="56.412" y1="82.913" x2="56.412" y2="80.62"/>
			<polyline fill="none" stroke="#020002" stroke-width="0.01" stroke-linecap="square" stroke-miterlimit="10" points="
				54.179,82.913 54.292,82.216 54.607,81.566 55.126,81.07 55.757,80.732 56.478,80.62 			"/>
			
				<line fill="none" stroke="#020002" stroke-width="0.01" stroke-linecap="square" stroke-miterlimit="10" x1="51.882" y1="80.62" x2="51.882" y2="82.913"/>
			
				<line fill="none" stroke="#020002" stroke-width="0.01" stroke-linecap="square" stroke-miterlimit="10" x1="51.949" y1="82.913" x2="51.949" y2="80.62"/>
			<polyline fill="none" stroke="#020002" stroke-width="0.01" stroke-linecap="square" stroke-miterlimit="10" points="
				51.882,80.62 52.601,80.732 53.232,81.07 53.752,81.566 54.068,82.216 54.179,82.913 			"/>
		</g>
	</g>
	<g>
		<g>
			<text transform="matrix(1.0002 0 0 1 88.8516 80.2083)" fill="#020002" font-family="'Arial-BoldMT'" font-size="1.1921">3</text>
			<text transform="matrix(1.0002 0 0 1 89.5283 80.2043)" fill="#020002" font-family="'SimSun'" font-size="1.2146">号门</text>
		</g>
		<g>
			
				<line fill="none" stroke="#020002" stroke-width="0.01" stroke-linecap="square" stroke-miterlimit="10" x1="92.628" y1="80.568" x2="92.628" y2="82.861"/>
			
				<line fill="none" stroke="#020002" stroke-width="0.01" stroke-linecap="square" stroke-miterlimit="10" x1="92.558" y1="82.861" x2="92.558" y2="80.568"/>
			<polyline fill="none" stroke="#020002" stroke-width="0.01" stroke-linecap="square" stroke-miterlimit="10" points="
				90.326,82.861 90.441,82.163 90.777,81.513 91.273,81.017 91.927,80.679 92.628,80.568 			"/>
			
				<line fill="none" stroke="#020002" stroke-width="0.01" stroke-linecap="square" stroke-miterlimit="10" x1="88.049" y1="80.568" x2="88.049" y2="82.861"/>
			
				<line fill="none" stroke="#020002" stroke-width="0.01" stroke-linecap="square" stroke-miterlimit="10" x1="88.118" y1="82.861" x2="88.118" y2="80.568"/>
			<polyline fill="none" stroke="#020002" stroke-width="0.01" stroke-linecap="square" stroke-miterlimit="10" points="
				88.049,80.568 88.75,80.679 89.382,81.017 89.898,81.513 90.214,82.163 90.326,82.861 			"/>
		</g>
	</g>
	<g>
		<g>
			<text transform="matrix(1.0002 0 0 1 124.9473 79.9387)" fill="#020002" font-family="'Arial-BoldMT'" font-size="1.1921">2</text>
			<text transform="matrix(1.0002 0 0 1 125.623 79.9368)" fill="#020002" font-family="'SimSun'" font-size="1.2146">号门</text>
		</g>
		<g>
			
				<line fill="none" stroke="#050005" stroke-width="0.01" stroke-linecap="square" stroke-miterlimit="10" x1="128.597" y1="80.792" x2="128.597" y2="83.064"/>
			
				<line fill="none" stroke="#050005" stroke-width="0.01" stroke-linecap="square" stroke-miterlimit="10" x1="128.53" y1="83.064" x2="128.53" y2="80.792"/>
			<polyline fill="none" stroke="#050005" stroke-width="0.01" stroke-linecap="square" stroke-miterlimit="10" points="
				126.321,83.064 126.435,82.366 126.751,81.716 127.245,81.22 127.899,80.904 128.597,80.792 			"/>
			
				<line fill="none" stroke="#050005" stroke-width="0.01" stroke-linecap="square" stroke-miterlimit="10" x1="124.024" y1="80.792" x2="124.024" y2="83.064"/>
			
				<line fill="none" stroke="#050005" stroke-width="0.01" stroke-linecap="square" stroke-miterlimit="10" x1="124.091" y1="83.064" x2="124.091" y2="80.792"/>
			<polyline fill="none" stroke="#050005" stroke-width="0.01" stroke-linecap="square" stroke-miterlimit="10" points="
				124.024,80.792 124.724,80.904 125.378,81.22 125.87,81.716 126.206,82.366 126.321,83.064 			"/>
		</g>
	</g>
	<g>
		<g>
			<text transform="matrix(1.0002 0 0 1 161.4756 80.5442)" fill="#020002" font-family="'Arial-BoldMT'" font-size="1.1921">1</text>
			<text transform="matrix(1.0002 0 0 1 162.1797 80.5422)" fill="#020002" font-family="'SimSun'" font-size="1.2146">号门</text>
		</g>
		<g>
			
				<line fill="none" stroke="#070007" stroke-width="0.01" stroke-linecap="square" stroke-miterlimit="10" x1="164.948" y1="81.038" x2="164.948" y2="83.335"/>
			
				<line fill="none" stroke="#070007" stroke-width="0.01" stroke-linecap="square" stroke-miterlimit="10" x1="164.88" y1="83.335" x2="164.88" y2="81.038"/>
			<polyline fill="none" stroke="#070007" stroke-width="0.01" stroke-linecap="square" stroke-miterlimit="10" points="
				162.646,83.335 162.761,82.615 163.075,81.984 163.595,81.468 164.226,81.15 164.948,81.038 			"/>
			
				<line fill="none" stroke="#070007" stroke-width="0.01" stroke-linecap="square" stroke-miterlimit="10" x1="160.351" y1="81.038" x2="160.351" y2="83.335"/>
			
				<line fill="none" stroke="#070007" stroke-width="0.01" stroke-linecap="square" stroke-miterlimit="10" x1="160.421" y1="83.335" x2="160.421" y2="81.038"/>
			<polyline fill="none" stroke="#070007" stroke-width="0.01" stroke-linecap="square" stroke-miterlimit="10" points="
				160.351,81.038 161.069,81.15 161.702,81.468 162.22,81.984 162.534,82.615 162.646,83.335 			"/>
		</g>
	</g>
</g>
</svg>
