<?xml version="1.0" encoding="utf-8"?>
<!-- Generator: Adobe Illustrator 16.0.0, SVG Export Plug-In . SVG Version: 6.00 Build 0)  -->
<!DOCTYPE svg PUBLIC "-//W3C//DTD SVG 1.1//EN" "http://www.w3.org/Graphics/SVG/1.1/DTD/svg11.dtd">
<svg version="1.1" id="图层_1" xmlns="http://www.w3.org/2000/svg" xmlns:xlink="http://www.w3.org/1999/xlink" x="0px" y="0px"
	 width="75px" height="75px" viewBox="0 0 75 75" enable-background="new 0 0 75 75" xml:space="preserve">
<path fill-rule="evenodd" clip-rule="evenodd" fill="#5BBAEA" d="M0.002,37.479C-0.057,16.956,16.813,0.032,37.365,0.002
	c20.741-0.03,37.571,16.713,37.633,37.438c0.063,20.632-16.717,37.462-37.444,37.558C16.927,75.092,0.063,58.242,0.002,37.479z
	 M62.738,61.674c8.049-7.822,12.854-22.08,7.711-36.183C65.223,11.159,50.793,1.016,34.118,2.589
	C19.339,3.985,6.546,14.831,3.215,30.098c-1.229,5.637-1.064,11.257,0.498,16.816c1.554,5.531,4.305,10.383,8.281,14.607
	c0.409-1.463,0.822-2.783,1.141-4.129c0.26-1.096,0.84-1.818,1.906-2.227c4.157-1.586,8.29-3.234,12.456-4.795
	c2.29-0.857,2.325-0.799,2.259-3.242c-0.007-0.271-0.184-0.627-0.398-0.791c-1.789-1.373-3.091-3.125-3.889-5.199
	c-0.48-1.25-1.152-2.266-2.093-3.218c-1.764-1.785-2.795-3.935-2.512-6.54c0.134-1.233,0.572-2.321,1.785-2.866
	c0.433-0.193,0.492-0.42,0.506-0.847c0.067-2.007-0.028-4.05,0.326-6.012c0.924-5.104,3.795-8.574,9.002-9.809
	c2.355-0.56,4.758-0.446,7.146-0.356c6.34,0.238,10.881,4.279,11.762,10.563c0.288,2.054,0.288,4.148,0.428,6.326
	c1.592,0.554,2.152,1.946,2.205,3.659c0.09,2.861-1.371,4.962-3.314,6.843c-0.365,0.354-0.641,0.813-0.896,1.26
	c-0.984,1.721-1.795,3.566-2.967,5.146c-0.792,1.07-1.152,2.055-1.084,3.344c0.037,0.701,0.203,1.016,0.887,1.281
	c4.332,1.689,8.633,3.463,12.959,5.17c1.189,0.469,1.854,1.248,2.105,2.506C61.986,58.959,62.389,60.303,62.738,61.674z
	 M47.111,52.639c-0.99-0.359-1.906-0.701-2.828-1.025c-0.623-0.221-0.928-0.635-0.92-1.307c0.014-1.359-0.021-2.721,0.02-4.08
	c0.012-0.346,0.135-0.787,0.371-1.014c1.828-1.75,2.945-3.939,3.896-6.227c0.297-0.713,0.723-1.264,1.264-1.819
	c0.834-0.851,1.658-1.79,2.18-2.844c0.4-0.802,0.393-1.835,0.438-2.772c0.029-0.598-0.337-0.932-1.042-0.848
	c-1.1,0.131-1.625-0.49-1.451-1.603c0.359-2.283,0.35-4.563-0.051-6.842c-0.805-4.57-3.639-7.638-7.922-8.134
	c-2.354-0.273-4.788-0.283-7.145-0.028c-3.996,0.43-6.596,2.76-7.756,6.625c-0.828,2.755-0.808,5.563-0.417,8.383
	c0.161,1.16-0.354,1.748-1.517,1.589c-0.661-0.091-0.944,0.229-0.918,0.77c0.042,0.865,0.065,1.773,0.344,2.578
	c0.48,1.389,1.545,2.385,2.626,3.352c0.35,0.313,0.65,0.763,0.797,1.207c0.849,2.578,2.1,4.834,4.498,6.32
	c0.328,0.203,0.58,0.779,0.595,1.191c0.051,1.383-0.032,2.77-0.044,4.154c-0.006,0.791-0.372,1.24-1.131,1.479
	c-1.46,0.459-2.902,0.977-4.381,1.479C32.406,58.752,40.188,59.531,47.111,52.639z M37.713,72.598
	c0.639-0.039,1.62-0.078,2.599-0.158c7.434-0.6,13.985-3.342,19.721-8.09c0.405-0.336,0.552-0.678,0.44-1.168
	c-0.395-1.715-0.771-3.434-1.189-5.143c-0.057-0.232-0.262-0.52-0.471-0.609c-2.934-1.258-5.88-2.494-8.832-3.707
	c-0.158-0.066-0.479,0.037-0.611,0.172c-1.653,1.682-3.48,3.135-5.563,4.248c-3.172,1.697-6.518,2.326-10.077,1.602
	c-3.646-0.742-6.667-2.607-9.323-5.146c-0.19-0.184-0.597-0.354-0.802-0.273c-2.505,0.979-4.997,1.996-7.477,3.037
	c-0.261,0.109-0.547,0.406-0.621,0.674c-0.459,1.67-0.89,3.352-1.259,5.045c-0.061,0.281,0.129,0.744,0.359,0.941
	C21.156,69.627,28.758,72.447,37.713,72.598z"/>
</svg>
