<?xml version="1.0" encoding="utf-8"?>
<!-- Generator: Adobe Illustrator 16.0.0, SVG Export Plug-In . SVG Version: 6.00 Build 0)  -->
<!DOCTYPE svg PUBLIC "-//W3C//DTD SVG 1.1//EN" "http://www.w3.org/Graphics/SVG/1.1/DTD/svg11.dtd">
<svg version="1.1" id="图层_1" xmlns="http://www.w3.org/2000/svg" xmlns:xlink="http://www.w3.org/1999/xlink" x="0px" y="0px"
	 width="75px" height="75px" viewBox="0 0 75 75" enable-background="new 0 0 75 75" xml:space="preserve">
<path fill-rule="evenodd" clip-rule="evenodd" fill="#EF5FA2" d="M36.704,74.988C16.246,74.672-0.328,57.49-0.013,36.924
	C0.305,16.225,17.417-0.339,38.158,0.013c20.556,0.35,37.084,17.214,36.856,37.755C74.78,58.84,57.733,75.313,36.704,74.988z
	 M14.209,63.617c0.029-2.768,0.467-5.361,1.11-7.936c0.263-1.053,0.781-1.723,1.784-2.133c4.312-1.756,8.61-3.543,12.904-5.34
	c0.253-0.105,0.432-0.389,0.646-0.59c-0.25-0.098-0.496-0.262-0.751-0.277c-1.924-0.119-3.809-0.414-5.578-1.217
	c-1.189-0.539-2.229-1.27-2.896-2.441c-0.344-0.604-0.284-1.133,0.17-1.66c0.476-0.555,0.953-1.111,1.358-1.717
	c1.859-2.777,2.356-5.947,2.608-9.187c0.236-3.035,0.261-6.111,0.801-9.094c1.344-7.411,8.758-10.936,15.384-7.451
	c0.688,0.361,1.348,0.567,2.125,0.614c0.793,0.048,1.605,0.215,2.354,0.483c3.033,1.088,4.722,3.438,5.629,6.38
	c1.47,4.772,1.095,9.617,0.299,14.442c-0.265,1.607,0.102,2.933,1.357,3.902c0.763,0.586,1.696,0.959,2.573,1.387
	c0.874,0.426,1.821,0.799,1.83,1.965c0.01,1.199-0.951,1.637-1.867,1.891c-1.767,0.488-3.562,0.895-5.365,1.221
	c-1.531,0.275-3.091,0.393-4.624,0.578c-0.201,0.574,0.004,0.848,0.553,1.012c0.818,0.244,1.626,0.537,2.418,0.859
	c3.681,1.5,7.355,3.016,11.032,4.525c0.574,0.236,0.944,0.639,1.095,1.254c0.284,1.172,0.654,2.326,0.863,3.51
	c0.203,1.146,0.248,2.32,0.365,3.504c8.42-8.031,13.156-22.277,8.204-36.365C65.635,11.639,52.014,2.227,36.728,2.43
	C21.847,2.628,8.476,12.67,3.976,27.15C-0.392,41.203,4.692,55.408,14.209,63.617z M54.027,43.855
	c0.004-0.074,0.008-0.146,0.012-0.221c-0.412-0.236-0.834-0.459-1.234-0.713c-2.476-1.57-3.559-4.041-3.052-6.769
	c0.637-3.434,0.851-6.896,0.441-10.373c-0.234-1.989-0.726-3.914-1.904-5.586c-1.29-1.83-3.071-2.671-5.313-2.627
	c-0.49,0.009-1.051-0.108-1.467-0.355c-1.707-1.014-3.501-1.683-5.51-1.549c-3.6,0.235-6.529,2.825-7.227,6.625
	c-0.403,2.191-0.497,4.445-0.647,6.677c-0.204,3.041-0.271,6.115-1.385,8.99c-0.692,1.784-1.676,3.456-2.578,5.274
	c0.579,0.604,1.52,1.016,2.499,1.186c1.556,0.268,3.137,0.422,4.714,0.523c1.381,0.09,1.767,0.414,1.73,1.771
	c-0.016,0.629-0.072,1.258-0.065,1.887c0.01,0.795-0.359,1.242-1.105,1.5c-1.304,0.453-2.587,0.969-3.99,1.502
	c3.208,2.844,6.686,4.668,11.015,4.178c3.36-0.381,6.016-2.148,8.52-4.449c-1.036-0.367-1.905-0.701-2.792-0.979
	c-0.762-0.24-1.104-0.729-1.105-1.508c-0.001-0.805-0.037-1.611-0.035-2.418c0.002-0.818,0.395-1.25,1.222-1.34
	c1.102-0.121,2.21-0.186,3.307-0.336C50.064,44.473,52.045,44.154,54.027,43.855z M38.185,72.59
	c0.752-0.061,2.237-0.129,3.711-0.311c6.399-0.787,12.126-3.215,17.203-7.174c0.246-0.191,0.44-0.549,0.503-0.859
	c0.523-2.6,0.255-5.162-0.524-7.672c-0.108-0.352-0.446-0.752-0.778-0.895c-2.611-1.123-5.242-2.199-7.883-3.248
	c-0.207-0.082-0.615,0.064-0.8,0.24c-1.701,1.631-3.538,3.07-5.665,4.107c-2.651,1.295-5.44,1.793-8.368,1.346
	c-3.806-0.584-6.924-2.477-9.655-5.105c-0.189-0.182-0.595-0.363-0.79-0.281c-2.322,0.965-4.627,1.973-6.925,2.996
	c-0.218,0.096-0.454,0.35-0.514,0.574c-0.756,2.834-1.242,5.697-0.964,8.654c0.062,0.648,0.313,1.037,0.836,1.393
	C23.569,70.443,30.194,72.508,38.185,72.59z"/>
</svg>
