<?xml version="1.0" standalone="no"?><!DOCTYPE svg PUBLIC "-//W3C//DTD SVG 1.1//EN" "http://www.w3.org/Graphics/SVG/1.1/DTD/svg11.dtd"><svg t="1503560670053" class="icon" style="" viewBox="0 0 1024 1024" version="1.1" xmlns="http://www.w3.org/2000/svg" p-id="3999" xmlns:xlink="http://www.w3.org/1999/xlink" width="200" height="200"><defs><style type="text/css"></style></defs><path d="M512 416C436.515555 416 375.111111 476.288 375.111111 550.4 375.111111 624.512 436.515555 684.8 512 684.8 587.484446 684.8 648.888887 624.512 648.888887 550.4 648.888887 476.288 587.484446 416 512 416" p-id="4000"></path><path d="M512 723.2C414.808889 723.2 336 645.8432 336 550.4 336 454.9568 414.808889 377.6 512 377.6 609.210667 377.6 688 454.9568 688 550.4 688 645.8432 609.210667 723.2 512 723.2M903.111113 204.8 723.767113 204.8C713.383113 204.8 703.448887 200.7488 696.115554 193.5488L640.792887 139.2512C633.459554 132.0512 623.505779 128 613.141333 128L512 128 410.878222 128C400.494222 128 390.56 132.0512 383.226667 139.2512L327.904 193.5488C320.570667 200.7488 310.616889 204.8 300.252445 204.8L120.888889 204.8C77.866667 204.8 42.666667 239.36 42.666667 281.6L42.666667 819.2C42.666667 861.44 77.866667 896 120.888889 896L903.111113 896C946.133333 896 981.333333 861.44 981.333333 819.2L981.333333 281.6C981.333333 239.36 946.133333 204.8 903.111113 204.8" p-id="4001"></path></svg>