<?xml version="1.0" standalone="no"?><!DOCTYPE svg PUBLIC "-//W3C//DTD SVG 1.1//EN" "http://www.w3.org/Graphics/SVG/1.1/DTD/svg11.dtd"><svg t="1503560503135" class="icon" style="" viewBox="0 0 1024 1024" version="1.1" xmlns="http://www.w3.org/2000/svg" p-id="2061" xmlns:xlink="http://www.w3.org/1999/xlink" width="200" height="200"><defs><style type="text/css"></style></defs><path d="M843.093333 324.266667h-187.733333v126.293333h187.733333V324.266667z m-426.666666 126.293333h187.733333V324.266667h-187.733333v126.293333z m-47.786667 0V324.266667H180.906667v116.053333c0 3.413333 6.826667 10.24 13.653333 10.24 58.026667 3.413333 116.053333 0 174.08 0m47.786667 174.08h187.733333v-126.293333h-187.733333v126.293333z m235.52 0h180.906666c3.413333 0 10.24-6.826667 10.24-10.24v-119.466667h-191.146666v129.706667m-471.04-3.413333h187.733333v-126.293334H180.906667v126.293334z m474.453333 174.08h187.733333v-126.293334h-187.733333v126.293334z m-47.786667-126.293334h-187.733333v129.706667h187.733333v-129.706667z m-238.933333 0H180.906667v129.706667h187.733333v-129.706667zM512 180.906667h327.68c37.546667 0 51.2 13.653333 51.2 51.2v563.2c0 37.546667-13.653333 51.2-51.2 51.2H177.493333c-34.133333 0-47.786667-13.653333-47.786666-47.786667V228.693333c0-34.133333 13.653333-47.786667 47.786666-47.786666H512" p-id="2062"></path></svg>